<svg width="250" height="144" viewBox="0 0 250 144" fill="none" xmlns="http://www.w3.org/2000/svg">
<g clip-path="url(#clip0_246_5043)">
<path d="M142.286 135.876C140.05 136.573 137.839 137.204 135.658 137.804C87.3023 151.079 53.0254 142.022 24.1168 120.03C14.5242 112.715 8.10359 105.497 4.30905 98.4425V98.4276C2.68766 95.4395 1.48554 92.2405 0.73685 88.9216C-7.85275 49.6344 60.6565 16.7566 102.006 4.01237C127.817 -3.9453 158.131 0.786612 184.681 10.5457C194.083 13.9928 203.22 18.1271 212.021 22.9153C223.807 29.337 233.76 36.3592 240.695 42.8529C240.697 42.8513 240.699 42.8504 240.702 42.8504C240.705 42.8504 240.707 42.8513 240.709 42.8529C242.308 44.3417 243.753 45.8305 245.018 47.2523C270.204 75.7754 194.172 119.876 142.286 135.876Z" fill="url(#paint0_linear_246_5043)"/>
<path d="M114.846 70.949C111.229 78.5022 101.38 77.336 99.4702 77.2343C87.4023 76.5966 74.3586 67.4354 74.8329 59.4926C74.8329 59.3214 74.8576 59.1477 74.8798 58.9765C75.8013 52.2397 86.4907 48.8899 88.2892 48.3464C88.3082 48.3458 88.3268 48.3407 88.3435 48.3315C90.7657 47.6092 93.2692 47.1973 95.7943 47.1058C97.9229 47.0214 100.054 47.2132 102.133 47.6765C105.291 48.3751 108.225 49.855 110.669 51.9816C112.499 53.5746 114.036 55.9517 115.007 58.6564C115.442 59.8384 115.755 61.0624 115.94 62.309C116.39 65.2419 116.118 68.2865 114.846 70.949Z" fill="#8C2D26"/>
<path d="M156.191 113.856C150.932 118.613 129.284 101.802 118.443 88.1347C114.78 83.5169 111.435 78.0952 112.381 72.0382C112.781 69.4849 114.036 66.2045 116.161 64.2989C116.887 63.6254 117.768 63.1422 118.725 62.892C122.151 62.0557 125.642 64.8621 128.177 67.2765C135.361 74.0853 148.58 90.4523 154.385 102.06C157.14 107.576 158.222 112.025 156.191 113.856Z" fill="#8C2D26"/>
<path d="M85.439 68.8745L91.0344 80.4475L81.5703 104.931L82.1978 105.177L94.0211 80.1671L85.439 68.8745Z" fill="#8C2D26"/>
<path d="M92.0753 72.1822L102.113 79.7081L87.4062 102.871L88.2734 102.487L104.23 79.8123L95.3585 72.1177L92.0753 72.1822Z" fill="#8C2D26"/>
<path d="M103.823 72.0037L111.207 77.7108L100.016 94.7799L100.665 94.502L112.783 77.8125L106.266 71.9888L103.823 72.0037Z" fill="#8C2D26"/>
<path d="M114.846 70.9491C111.229 78.5023 101.38 77.3361 99.4702 77.2343C87.4023 76.5966 74.3586 67.4355 74.8329 59.4927C75.2578 58.7979 75.7296 58.0783 76.2336 57.3364C77.2185 60.7467 78.9525 63.8917 81.3078 66.5397C88.9982 75.0582 104.695 79.0681 111.617 71.8573C115.303 68.0186 115.367 62.18 115.007 58.6565C115.442 59.8385 115.755 61.0625 115.94 62.3091C116.39 65.242 116.118 68.2866 114.846 70.9491Z" fill="#721E1A"/>
<path d="M74.0171 72.3661C73.1376 72.5001 70.8055 72.2296 66.9641 64.5598C65.4481 65.4688 63.7557 66.0407 62.001 66.2372C57.831 66.6838 53.5597 64.8526 53.6338 63.6963C53.6399 63.6207 53.6645 63.5479 53.7054 63.4842C53.7464 63.4206 53.8024 63.3681 53.8684 63.3315C54.8319 62.6814 58.6141 62.9072 62.9348 60.1058C63.9823 59.4234 65.4052 58.1778 68.2437 55.6741C71.9493 52.4062 72.9153 51.2548 74.1727 51.488C76.0799 51.8404 76.9766 55.0289 77.3348 56.3316C77.7108 57.7146 77.941 59.1335 78.0216 60.5648C78.3675 66.2471 76.6085 71.9691 74.0171 72.3661Z" fill="#8C2D26"/>
<path d="M74.0171 72.3657C73.1376 72.4997 70.8055 72.2293 66.9641 64.5594C65.4481 65.4684 63.7557 66.0404 62.001 66.2368C57.831 66.6835 53.5597 64.8522 53.6338 63.6959C53.6399 63.6204 53.6645 63.5475 53.7054 63.4839C53.7464 63.4202 53.8024 63.3678 53.8684 63.3312C53.9789 63.5459 54.1096 63.7495 54.2588 63.9391C56.1116 66.2889 60.877 66.1152 63.9798 64.8398C69.2813 62.6612 70.7883 56.8251 70.9884 56.0137C71.6702 64.2989 72.9326 66.4353 74.0838 66.614C75.5191 66.8249 77.9845 64.1103 77.2755 62.0781C76.8654 60.8994 75.4474 60.1079 73.7676 59.9888C75.6401 59.3089 76.7197 59.5297 77.3768 59.9516C77.6276 60.1128 77.8477 60.3179 78.0265 60.557C78.3675 66.2467 76.6085 71.9687 74.0171 72.3657Z" fill="#721E1A"/>
<g style="mix-blend-mode:overlay" opacity="0.2">
<path d="M98.1435 69.4927C96.9676 70.8624 95.3989 72.6862 94.1909 72.2842C90.6434 71.1179 96.5921 53.1952 90.2184 49.0637C89.6341 48.6882 88.976 48.4436 88.2891 48.3466C88.3081 48.346 88.3267 48.3409 88.3434 48.3317C90.7656 47.6094 93.2691 47.1975 95.7942 47.106C96.9132 47.895 98.4943 48.9819 99.6974 50.5798C103.386 55.5425 102.627 64.2769 98.1435 69.4927Z" fill="#FF746C"/>
</g>
<g style="mix-blend-mode:overlay" opacity="0.2">
<path d="M112.2 68.4727C112.047 68.6291 108.327 72.3585 106.765 71.4057C104.695 70.165 109.977 63.0113 107.346 55.0288C106.375 52.117 104.563 49.5616 102.141 47.689C105.298 48.3876 108.232 49.8675 110.676 51.9941C113.294 54.2794 115.33 58.1975 115.948 62.3215C115.171 64.6269 113.89 66.7287 112.2 68.4727Z" fill="#FF746C"/>
</g>
<path d="M156.191 113.856C150.932 118.613 129.284 101.802 118.443 88.1347C114.78 83.5169 111.435 78.0951 112.381 72.0382C112.781 69.4849 114.036 66.2045 116.161 64.2988C115.694 66.8213 115.572 69.3958 115.798 71.9513C117.831 94.6308 147.886 111.157 153.372 106.531C154.131 105.891 154.674 104.631 154.385 102.065C157.14 107.576 158.222 112.025 156.191 113.856Z" fill="#721E1A"/>
<g style="mix-blend-mode:overlay" opacity="0.2">
<path d="M139.673 87.7381C138.191 89.1252 132.798 85.7307 127.623 80.1576C122.447 74.5845 119.453 68.9444 120.933 67.5573C122.413 66.1702 127.806 69.5647 132.981 75.1378C138.157 80.7109 141.153 86.351 139.673 87.7381Z" fill="#FF746C"/>
</g>
<path opacity="0.67" d="M108.868 58.5025C108.747 56.5348 119.427 55.7036 137.053 50.7111C169.136 41.6194 184.369 30.034 187.943 34.4309C190.394 37.4507 185.72 46.0213 180.779 51.1379C171.772 60.428 159.222 60.9938 140.791 61.5595C127.792 61.9466 109.026 61.1029 108.868 58.5025Z" fill="#8C2D26"/>
<path opacity="0.67" d="M105.065 57.7456C104.376 55.8995 114.339 51.9566 129.729 41.9866C157.744 23.8355 168.915 8.26507 173.609 11.4189C176.838 13.5826 174.879 23.1532 171.632 29.5054C165.738 41.0437 153.907 45.2843 136.451 51.2544C124.161 55.4578 105.976 60.1848 105.065 57.7456Z" fill="#8C2D26"/>
<path opacity="0.67" d="M108.703 55.0485L130.835 47.7012L140.349 36.0066L132.165 47.2918L150.359 40.2224L152.202 36.7337L148.321 33.5501L151.794 35.3987L165.804 19.3965L154.45 34.5798L165.08 31.3045L169.174 25.6619L165.488 32.637L153.531 36.3242L150.767 41.5574L142.795 44.0139L150.255 44.6367L141.466 44.4233L109.061 57.3338L108.703 55.0485Z" fill="#8C2D26"/>
<path opacity="0.67" d="M113.094 57.6194L136.4 57.2174L148.944 48.895L137.788 57.2224L157.252 55.9098L160.046 53.1307L157.284 48.9297L160.051 51.7362L178.169 40.6445L162.83 51.7461L173.95 51.7957L179.528 47.632L173.945 53.1902L161.435 53.1381L157.247 57.3068L148.907 57.272L155.847 60.0933L147.519 57.2646L112.758 59.9072L113.094 57.6194Z" fill="#8C2D26"/>
<g style="mix-blend-mode:saturation" opacity="0.59">
<path d="M241.985 49.4681C262.697 75.0036 203.694 111.405 163.031 123.936C122.368 136.467 93.5679 127.764 69.0121 106.869C13.1982 59.381 86.8978 20.3346 127.546 7.80127C168.194 -4.73201 224.588 28.0168 241.985 49.4681Z" fill="#FFA600"/>
</g>
<path style="mix-blend-mode:screen" opacity="0.99" d="M27.1426 64.4874C21.31 72.1969 14.5435 76.8941 12.0336 74.9785C9.52366 73.0629 12.2139 65.2566 18.0441 57.5446C23.8742 49.8326 30.6431 45.1379 33.1531 47.0535C35.663 48.9691 32.9727 56.7754 27.1426 64.4874Z" fill="url(#paint1_linear_246_5043)"/>
<path style="mix-blend-mode:screen" opacity="0.99" d="M45.4123 37.111C42.4083 39.5154 39.4833 40.833 38.8706 40.0886C38.258 39.3442 40.2022 36.7487 43.2037 34.3418C46.2053 31.9349 49.1327 30.6198 49.7454 31.3642C50.358 32.1086 48.4163 34.7041 45.4123 37.111Z" fill="url(#paint2_linear_246_5043)"/>
<path style="mix-blend-mode:multiply" d="M79.1731 128.965C54.6099 121.186 32.3762 99.5342 36.0868 88.4798C37.485 84.3136 42.29 82.4799 68.0538 77.3138C118.801 67.1402 124.668 69.3288 133.381 61.9567C152.403 45.8602 140.264 22.007 157.011 13.094C178.138 1.85847 213.501 31.3071 216.777 34.0341C227.84 43.2449 229.813 48.3614 230.676 56.3662C233.64 83.8719 177.384 113.504 159.79 120.586C130.068 132.553 104.747 137.065 79.1731 128.965Z" fill="url(#paint3_linear_246_5043)"/>
<g style="mix-blend-mode:multiply" opacity="0.35">
<path d="M142.29 135.876C140.054 136.573 137.843 137.204 135.661 137.804C87.3057 151.079 53.0289 142.022 24.1202 120.03C14.5276 112.715 8.10704 105.497 4.3125 98.4425C19.382 112.641 42.7569 130.023 77.7848 135.941C153.075 148.645 245.367 94.7155 244.577 53.5599C244.505 50.0984 243.423 46.7039 240.725 42.8652C242.324 44.354 243.769 45.8429 245.034 47.2647C270.207 75.7754 194.175 119.876 142.29 135.876Z" fill="#AB0C1B"/>
</g>
<path d="M102.797 21.4659C102.797 22.8464 102.389 24.1959 101.626 25.3438C100.862 26.4917 99.7769 27.3863 98.507 27.9146C97.2372 28.4429 95.84 28.5811 94.492 28.3118C93.1439 28.0425 91.9057 27.3777 90.9338 26.4015C89.962 25.4253 89.3001 24.1816 89.032 22.8276C88.7638 21.4736 88.9015 20.0702 89.4274 18.7947C89.9534 17.5193 90.8441 16.4292 91.9869 15.6622C93.1297 14.8952 94.4733 14.4858 95.8477 14.4858C96.7603 14.4858 97.6639 14.6664 98.507 15.0172C99.3502 15.368 100.116 15.8821 100.762 16.5303C101.407 17.1784 101.919 17.9479 102.268 18.7947C102.617 19.6416 102.797 20.5492 102.797 21.4659Z" fill="url(#paint4_linear_246_5043)"/>
<path d="M137.54 20.0713C137.54 20.6241 137.378 21.1647 137.072 21.6245C136.767 22.0844 136.332 22.4429 135.824 22.6546C135.316 22.8664 134.756 22.922 134.216 22.8142C133.676 22.7065 133.18 22.4403 132.791 22.0494C132.402 21.6585 132.137 21.1605 132.03 20.6183C131.923 20.0761 131.978 19.5141 132.189 19.0034C132.4 18.4928 132.757 18.0565 133.214 17.7496C133.672 17.4428 134.21 17.2793 134.761 17.2798C135.498 17.2798 136.205 17.5739 136.726 18.0974C137.247 18.6209 137.54 19.3309 137.54 20.0713Z" fill="url(#paint5_linear_246_5043)"/>
<g style="mix-blend-mode:lighten" opacity="0.61">
<path d="M182.99 37.0474C183.588 34.5013 182.018 31.9501 179.483 31.3491C176.948 30.7482 174.408 32.3251 173.81 34.8712C173.212 37.4174 174.782 39.9686 177.316 40.5696C179.851 41.1705 182.391 39.5936 182.99 37.0474Z" fill="url(#paint6_linear_246_5043)"/>
<path d="M152.936 71.9764C152.936 72.5389 152.769 73.0888 152.458 73.5565C152.147 74.0242 151.705 74.3887 151.187 74.6038C150.67 74.819 150.101 74.8751 149.551 74.7652C149.002 74.6553 148.498 74.3842 148.102 73.9863C147.706 73.5883 147.436 73.0814 147.328 72.5297C147.219 71.9779 147.275 71.4061 147.49 70.8865C147.704 70.3669 148.068 69.923 148.533 69.6108C148.999 69.2987 149.547 69.1323 150.107 69.1328C150.479 69.1328 150.847 69.2064 151.19 69.3493C151.533 69.4922 151.845 69.7017 152.108 69.9658C152.371 70.2299 152.579 70.5434 152.721 70.8884C152.863 71.2334 152.936 71.6031 152.936 71.9764Z" fill="url(#paint7_linear_246_5043)"/>
<path d="M188.779 64.3958C188.78 64.9584 188.614 65.5086 188.303 65.9766C187.992 66.4446 187.55 66.8095 187.033 67.025C186.515 67.2405 185.946 67.2971 185.397 67.1874C184.847 67.0778 184.342 66.8069 183.946 66.4091C183.55 66.0112 183.281 65.5043 183.171 64.9525C183.062 64.4006 183.119 63.8287 183.333 63.309C183.548 62.7893 183.911 62.3451 184.377 62.0329C184.843 61.7206 185.391 61.5542 185.951 61.5547C186.701 61.5553 187.42 61.8549 187.95 62.3876C188.48 62.9202 188.779 63.6425 188.779 64.3958Z" fill="url(#paint8_linear_246_5043)"/>
<path d="M181.954 84.148C182.917 83.7474 183.374 82.6384 182.975 81.6711C182.576 80.7038 181.472 80.2445 180.509 80.6451C179.546 81.0458 179.089 82.1548 179.488 83.1221C179.887 84.0893 180.991 84.5487 181.954 84.148Z" fill="url(#paint9_linear_246_5043)"/>
</g>
<g style="mix-blend-mode:lighten" opacity="0.61">
<path d="M76.4394 50.292C77.0385 51.4178 77.2915 52.6968 77.1665 53.9672C77.0416 55.2375 76.5442 56.4421 75.7374 57.4284C74.9306 58.4147 73.8507 59.1385 72.6342 59.508C71.4177 59.8776 70.1194 59.8764 68.9036 59.5046C67.6878 59.1327 66.6092 58.407 65.8042 57.4191C64.9993 56.4313 64.5041 55.2258 64.3815 53.9552C64.2589 52.6847 64.5143 51.4061 65.1154 50.2814C65.7166 49.1567 66.6364 48.2364 67.7584 47.6369C69.2605 46.8345 71.0181 46.6634 72.6456 47.1611C74.2731 47.6589 75.6375 48.7849 76.4394 50.292Z" fill="url(#paint10_linear_246_5043)"/>
<path d="M63.1412 112.921C63.4993 113.597 63.65 114.363 63.5743 115.125C63.4985 115.886 63.1997 116.608 62.7156 117.198C62.2316 117.789 61.584 118.222 60.8548 118.443C60.1255 118.664 59.3474 118.663 58.6188 118.44C57.8902 118.217 57.2438 117.782 56.7614 117.19C56.279 116.598 55.9823 115.875 55.9087 115.114C55.835 114.352 55.9879 113.586 56.3479 112.912C56.7079 112.237 57.2589 111.686 57.9311 111.326C58.3775 111.087 58.8664 110.939 59.3698 110.89C59.8732 110.841 60.3814 110.892 60.8652 111.04C61.349 111.188 61.799 111.43 62.1895 111.753C62.58 112.076 62.9034 112.473 63.1412 112.921Z" fill="url(#paint11_linear_246_5043)"/>
<path d="M101.343 80.7779C101.702 81.453 101.853 82.2198 101.778 82.9812C101.702 83.7425 101.404 84.4644 100.92 85.0554C100.436 85.6464 99.7888 86.08 99.0596 86.3014C98.3304 86.5228 97.5523 86.5221 96.8235 86.2993C96.0948 86.0765 95.4482 85.6416 94.9655 85.0496C94.4829 84.4577 94.1858 83.7353 94.1119 82.9737C94.038 82.2122 94.1906 81.4458 94.5504 80.7714C94.9102 80.097 95.461 79.5449 96.1332 79.1849C97.0346 78.703 98.0895 78.6 99.0664 78.8987C100.043 79.1974 100.862 79.8733 101.343 80.7779Z" fill="url(#paint12_linear_246_5043)"/>
<path d="M106.02 106.031C106.259 106.481 106.359 106.992 106.308 107.499C106.257 108.006 106.058 108.487 105.735 108.88C105.413 109.274 104.981 109.562 104.495 109.71C104.009 109.857 103.491 109.856 103.005 109.707C102.52 109.558 102.089 109.268 101.768 108.874C101.446 108.479 101.249 107.998 101.2 107.49C101.15 106.983 101.252 106.472 101.492 106.023C101.732 105.574 102.099 105.206 102.547 104.966C102.845 104.807 103.171 104.708 103.506 104.675C103.842 104.642 104.181 104.676 104.503 104.775C104.826 104.874 105.126 105.036 105.386 105.251C105.647 105.467 105.862 105.731 106.02 106.031Z" fill="url(#paint13_linear_246_5043)"/>
</g>
</g>
<defs>
<linearGradient id="paint0_linear_246_5043" x1="35.5992" y1="28.1236" x2="231.339" y2="132.321" gradientUnits="userSpaceOnUse">
<stop stop-color="#FFCA77"/>
<stop offset="1" stop-color="#FF6E00"/>
</linearGradient>
<linearGradient id="paint1_linear_246_5043" x1="10.7031" y1="60.5708" x2="33.5937" y2="60.7965" gradientUnits="userSpaceOnUse">
<stop stop-color="#FFCA77"/>
<stop offset="1" stop-color="#FF6E00"/>
</linearGradient>
<linearGradient id="paint2_linear_246_5043" x1="38.7595" y1="35.7189" x2="49.859" y2="35.7189" gradientUnits="userSpaceOnUse">
<stop stop-color="#FFCA77"/>
<stop offset="1" stop-color="#FF6E00"/>
</linearGradient>
<linearGradient id="paint3_linear_246_5043" x1="70.6626" y1="39.1159" x2="215.804" y2="116.378" gradientUnits="userSpaceOnUse">
<stop offset="0.54" stop-color="#FFC976"/>
<stop offset="0.6" stop-color="#FFAD52"/>
<stop offset="0.67" stop-color="#FF9734"/>
<stop offset="0.74" stop-color="#FF851D"/>
<stop offset="0.81" stop-color="#FF780D"/>
<stop offset="0.89" stop-color="#FF7003"/>
<stop offset="1" stop-color="#FF6E00"/>
</linearGradient>
<linearGradient id="paint4_linear_246_5043" x1="90.2843" y1="18.4783" x2="102.859" y2="25.1739" gradientUnits="userSpaceOnUse">
<stop stop-color="#FFCA77"/>
<stop offset="1" stop-color="#FF6E00"/>
</linearGradient>
<linearGradient id="paint5_linear_246_5043" x1="132.54" y1="18.8753" x2="137.57" y2="21.554" gradientUnits="userSpaceOnUse">
<stop stop-color="#FFCA77"/>
<stop offset="1" stop-color="#FF6E00"/>
</linearGradient>
<linearGradient id="paint6_linear_246_5043" x1="174.606" y1="33.942" x2="183.138" y2="38.4838" gradientUnits="userSpaceOnUse">
<stop stop-color="#FFCA77"/>
<stop offset="1" stop-color="#FF6E00"/>
</linearGradient>
<linearGradient id="paint7_linear_246_5043" x1="147.842" y1="70.7581" x2="152.96" y2="73.4836" gradientUnits="userSpaceOnUse">
<stop stop-color="#FFCA77"/>
<stop offset="1" stop-color="#FF6E00"/>
</linearGradient>
<linearGradient id="paint8_linear_246_5043" x1="183.685" y1="63.18" x2="188.804" y2="65.9055" gradientUnits="userSpaceOnUse">
<stop stop-color="#FFCA77"/>
<stop offset="1" stop-color="#FF6E00"/>
</linearGradient>
<linearGradient id="paint9_linear_246_5043" x1="179.719" y1="81.5859" x2="183.133" y2="83.4046" gradientUnits="userSpaceOnUse">
<stop stop-color="#FFCA77"/>
<stop offset="1" stop-color="#FF6E00"/>
</linearGradient>
<linearGradient id="paint10_linear_246_5043" x1="64.6812" y1="52.7312" x2="77.7891" y2="52.7379" gradientUnits="userSpaceOnUse">
<stop stop-color="#FFCA77"/>
<stop offset="1" stop-color="#FF6E00"/>
</linearGradient>
<linearGradient id="paint11_linear_246_5043" x1="56.0464" y1="114.009" x2="63.9135" y2="114.012" gradientUnits="userSpaceOnUse">
<stop stop-color="#FFCA77"/>
<stop offset="1" stop-color="#FF6E00"/>
</linearGradient>
<linearGradient id="paint12_linear_246_5043" x1="94.1321" y1="81.9127" x2="101.997" y2="81.9172" gradientUnits="userSpaceOnUse">
<stop stop-color="#FFCA77"/>
<stop offset="1" stop-color="#FF6E00"/>
</linearGradient>
<linearGradient id="paint13_linear_246_5043" x1="101.112" y1="106.493" x2="106.354" y2="106.495" gradientUnits="userSpaceOnUse">
<stop stop-color="#FFCA77"/>
<stop offset="1" stop-color="#FF6E00"/>
</linearGradient>
<clipPath id="clip0_246_5043">
<rect width="250" height="144" fill="white"/>
</clipPath>
</defs>
</svg>
