<svg width="119" height="87" viewBox="0 0 119 87" fill="none" xmlns="http://www.w3.org/2000/svg">
<path d="M67.728 82.0082C66.6638 82.429 65.6113 82.8094 64.573 83.1718C41.5558 91.1836 25.24 85.7176 11.4795 72.445C6.91349 68.0303 3.8573 63.674 2.0511 59.4165V59.4075C1.27932 57.6041 0.707114 55.6735 0.35074 53.6705C-3.7379 29.9601 28.8724 10.1178 48.5548 2.42653C60.8407 -2.37604 75.2703 0.479741 87.9078 6.36952C92.383 8.44988 96.7326 10.945 100.922 13.8347C106.532 17.7103 111.27 21.9483 114.57 25.8674C114.571 25.8664 114.573 25.8659 114.574 25.8659C114.575 25.8659 114.576 25.8664 114.577 25.8674C115.338 26.7659 116.026 27.6644 116.628 28.5225C128.617 45.7366 92.4256 72.3521 67.728 82.0082Z" fill="url(#paint0_linear_246_5085)"/>
<g style="mix-blend-mode:saturation" opacity="0.59">
<path d="M115.182 29.8606C125.041 45.2716 96.9553 67.2404 77.5999 74.8029C58.2444 82.3654 44.5357 77.1136 32.8471 64.5029C6.27981 35.8432 41.3607 12.2781 60.7091 4.71405C80.0575 -2.84996 106.901 16.9144 115.182 29.8606Z" fill="#FFA600"/>
</g>
<path style="mix-blend-mode:multiply" d="M37.6872 77.8379C25.9951 73.1432 15.4119 60.0757 17.1782 53.4043C17.8437 50.8899 20.1309 49.7832 32.3944 46.6654C56.5499 40.5255 59.3427 41.8463 63.4902 37.3972C72.5447 27.6827 66.7662 13.287 74.7377 7.90783C84.7941 1.12702 101.627 18.8997 103.186 20.5455C108.452 26.1043 109.392 29.1922 109.802 34.0232C111.213 50.6233 84.4355 68.5068 76.0606 72.7808C61.9133 80.0034 49.8602 82.7259 37.6872 77.8379Z" fill="url(#paint1_linear_246_5085)"/>
<g style="mix-blend-mode:multiply" opacity="0.35">
<path d="M67.7316 82.0084C66.6674 82.4292 65.6149 82.8095 64.5766 83.172C41.5594 91.1837 25.2436 85.7177 11.4831 72.4452C6.91707 68.0304 3.86088 63.6741 2.05469 59.4167C9.22773 67.9855 20.3542 78.4757 37.0274 82.0473C72.8656 89.7146 116.796 57.1674 116.42 32.3294C116.386 30.2403 115.871 28.1917 114.587 25.875C115.348 26.7735 116.036 27.672 116.638 28.5301C128.62 45.7367 92.4292 72.3523 67.7316 82.0084Z" fill="#AB0C1B"/>
</g>
<defs>
<linearGradient id="paint0_linear_246_5085" x1="16.9452" y1="16.978" x2="118.6" y2="59.6577" gradientUnits="userSpaceOnUse">
<stop stop-color="#FFCA77"/>
<stop offset="1" stop-color="#FF6E00"/>
</linearGradient>
<linearGradient id="paint1_linear_246_5085" x1="33.6362" y1="23.6124" x2="109.013" y2="55.2593" gradientUnits="userSpaceOnUse">
<stop offset="0.54" stop-color="#FFC976"/>
<stop offset="0.6" stop-color="#FFAD52"/>
<stop offset="0.67" stop-color="#FF9734"/>
<stop offset="0.74" stop-color="#FF851D"/>
<stop offset="0.81" stop-color="#FF780D"/>
<stop offset="0.89" stop-color="#FF7003"/>
<stop offset="1" stop-color="#FF6E00"/>
</linearGradient>
</defs>
</svg>
