<svg width="74" height="64" viewBox="0 0 74 64" fill="none" xmlns="http://www.w3.org/2000/svg">
<path d="M45.8317 46.9801C45.4159 47.3972 44.9996 47.7942 44.5872 48.1802C35.4421 56.728 27.4207 57.9337 19.4594 55.1783C16.8162 54.2594 14.8535 53.034 13.4612 51.577L13.46 51.5731C12.8673 50.9574 12.3458 50.2425 11.9106 49.4485C6.81573 40.022 18.6 24.214 26.3041 16.5388C31.1129 11.7471 37.9338 9.81929 44.3755 9.60655C46.6559 9.52888 48.9377 9.65943 51.2023 9.99715C54.2362 10.4518 56.9314 11.256 58.9426 12.2372C58.943 12.2365 58.9434 12.236 58.944 12.2357C58.9446 12.2355 58.9452 12.2354 58.9458 12.2356C59.4087 12.4597 59.8391 12.6997 60.2258 12.9411C67.942 17.8024 55.4983 37.3469 45.8317 46.9801Z" fill="url(#paint0_linear_246_5080)"/>
<g style="mix-blend-mode:saturation" opacity="0.59">
<path d="M59.766 13.8412C66.2848 18.3854 56.8095 34.1249 49.2332 41.6722C41.6569 49.2195 34.8261 49.9455 27.8791 47.023C12.0893 40.3817 24.4599 22.4095 32.0328 14.8631C39.6058 7.31667 54.2904 10.0236 59.766 13.8412Z" fill="#FFA600"/>
</g>
<path style="mix-blend-mode:multiply" d="M31.8774 51.7677C26.0217 52.2931 19.5039 48.9286 19.3694 45.6352C19.3186 44.394 20.1845 43.4094 25.2159 39.3563C35.1265 31.3735 36.5527 31.3349 37.7856 28.4859C40.4769 22.2655 35.9156 17.2666 38.7233 13.1721C42.2659 8.00902 52.217 12.0488 53.1387 12.4227C56.2515 13.6861 57.0963 14.8243 57.9461 16.8378C60.8667 23.7565 51.4097 37.4296 48.2698 41.1315C42.9662 47.3861 37.9739 51.2208 31.8774 51.7677Z" fill="url(#paint1_linear_246_5080)"/>
<g style="mix-blend-mode:multiply" opacity="0.35">
<path d="M45.8299 46.9806C45.414 47.3977 44.9978 47.7947 44.5854 48.1807C35.4402 56.7285 27.4188 57.9342 19.4576 55.1788C16.8144 54.2599 14.8517 53.0345 13.4594 51.5775C17.8373 53.7325 24.2412 55.8552 32.1603 53.7459C49.1805 49.208 64.2524 25.3793 60.6553 14.6458C60.3516 13.7436 59.8394 12.9647 58.9476 12.2381C59.4105 12.4621 59.841 12.7022 60.2276 12.9436C67.9402 17.8029 55.4964 37.3475 45.8299 46.9806Z" fill="#AB0C1B"/>
</g>
<defs>
<linearGradient id="paint0_linear_246_5080" x1="14.235" y1="29.8229" x2="64.6219" y2="34.4932" gradientUnits="userSpaceOnUse">
<stop stop-color="#FFCA77"/>
<stop offset="1" stop-color="#FF6E00"/>
</linearGradient>
<linearGradient id="paint1_linear_246_5080" x1="22.5859" y1="29.0446" x2="59.9477" y2="32.5076" gradientUnits="userSpaceOnUse">
<stop offset="0.54" stop-color="#FFC976"/>
<stop offset="0.6" stop-color="#FFAD52"/>
<stop offset="0.67" stop-color="#FF9734"/>
<stop offset="0.74" stop-color="#FF851D"/>
<stop offset="0.81" stop-color="#FF780D"/>
<stop offset="0.89" stop-color="#FF7003"/>
<stop offset="1" stop-color="#FF6E00"/>
</linearGradient>
</defs>
</svg>
