<svg width="99" height="108" viewBox="0 0 99 108" fill="none" xmlns="http://www.w3.org/2000/svg">
<g clip-path="url(#clip0_246_5202)">
<path d="M98.0532 16.3595C97.813 15.4309 97.4964 14.5238 97.1068 13.6475C97.1057 13.6296 97.0976 13.6129 97.0844 13.6008C96.2333 11.5984 94.9469 9.81168 93.3191 8.37117C90.8784 6.24942 87.8006 5.10077 84.7786 4.49562C81.7566 3.89047 78.6657 3.77281 75.6494 3.86619C72.6507 3.9811 69.6604 4.25856 66.6916 4.69734C63.7478 5.11571 60.829 5.60256 57.9349 6.1579L53.592 6.92181C52.1593 7.1945 50.7247 7.45038 49.292 7.6689C46.4321 8.08727 43.5648 8.50004 40.7981 8.36743C39.4343 8.28152 38.0798 8.0798 36.9712 7.52882C36.4144 7.26864 35.9187 6.89334 35.5166 6.42757C35.1146 5.9618 34.8154 5.41608 34.6386 4.82621C34.4225 4.19678 34.2828 3.49638 34.0797 2.73621C33.9746 2.32413 33.824 1.92507 33.6307 1.54646C33.4129 1.1097 33.0878 0.735646 32.6861 0.459442C32.2936 0.224877 31.857 0.0741028 31.4037 0.0165732C30.9504 -0.0409563 30.4901 -0.00400879 30.0516 0.12511C29.2846 0.334061 28.5548 0.661747 27.8886 1.09634C25.3156 2.7773 23.255 4.92706 21.3025 7.16274C19.3455 9.38602 17.5487 11.7459 15.9256 14.2247C14.3143 16.7193 12.949 19.3653 11.8491 22.1252C10.7298 24.8821 9.80291 27.7135 9.07493 30.5991C7.63288 36.3891 6.86713 42.377 7.06089 48.4285C7.13661 51.4687 7.49147 54.4953 8.12099 57.4702C8.26818 58.2173 8.45451 58.9644 8.65573 59.7115C8.85694 60.4586 9.06747 61.1945 9.30781 61.9248C9.54816 62.6551 9.8183 63.3779 10.0978 64.0988C10.3772 64.8198 10.694 65.5295 11.02 66.2355C11.2995 66.85 11.6013 67.4552 11.918 68.0528C14.5264 72.9556 18.4128 77.2981 23.2699 80.2267C28.7344 83.4971 35.1417 84.8643 41.3179 84.6776C47.5332 84.5225 53.538 82.9686 59.172 80.731C70.4117 76.1548 80.1905 68.5869 87.4522 58.8449C89.2385 56.423 90.8297 53.8623 92.2105 51.1872C92.9074 49.8517 93.5277 48.4845 94.0941 47.1006C94.6605 45.7166 95.1934 44.3195 95.6666 42.9056C97.5297 37.2426 98.8041 31.363 98.9904 25.3582C99.0519 22.3717 98.8823 19.3255 98.0532 16.3595ZM14.4426 64.5471C11.9087 59.5434 10.3679 53.9589 9.66179 48.2343C8.99153 42.6566 9.117 37.0117 10.0344 31.4695C10.0642 31.2603 10.1034 31.0418 10.1425 30.8326C10.6519 27.9425 11.4086 25.1017 12.4043 22.3418C13.4158 19.5822 14.7088 16.9347 16.2628 14.4413C17.8948 11.9979 19.7163 9.68719 21.7105 7.53069C22.7259 6.45861 23.773 5.43322 24.8778 4.47693C25.9531 3.51164 27.1367 2.67489 28.4047 1.98351C29.0004 1.65374 29.6432 1.41812 30.3106 1.28498C30.5838 1.21537 30.8685 1.20434 31.1463 1.25261C31.424 1.30089 31.6884 1.40739 31.9222 1.56514C32.2948 1.85277 32.4812 2.40375 32.5892 3.08734C32.6973 3.77093 32.7979 4.5311 32.9916 5.31742C33.1783 6.15335 33.5313 6.94297 34.0294 7.63902C34.5417 8.34838 35.1927 8.94573 35.9428 9.39469C37.4165 10.2968 39.0281 10.661 40.5782 10.8889C43.6933 11.2774 46.7265 11.1055 49.7074 10.803C51.1979 10.6554 52.6884 10.4761 54.1547 10.2744L58.533 9.5908C61.0594 9.19484 63.5783 8.76713 66.0805 8.37864C69.3428 7.85941 72.5901 7.40742 75.8357 7.15901C78.6955 6.94983 81.5554 6.89566 84.3296 7.25987C87.1038 7.62408 89.7922 8.44214 91.9385 10.0801C93.6973 11.4081 95.0313 13.2721 95.9442 15.3789C96.1587 15.8513 96.3453 16.3359 96.5032 16.8301C97.4012 19.5272 97.6955 22.4464 97.7123 25.3452C97.649 31.1632 96.3951 36.9737 94.4034 42.4574C92.4584 47.9877 89.4215 53.0063 85.7474 57.4889C82.0044 61.9054 77.7035 65.8144 72.9534 69.1174C71.7927 69.9654 70.5668 70.7255 69.367 71.5175C68.1261 72.2478 66.9021 73.0117 65.624 73.6616C63.1062 75.0298 60.4994 76.2266 57.8213 77.244C52.4816 79.2312 46.8569 80.5293 41.262 80.5293C38.4876 80.5511 35.7202 80.2483 33.0159 79.6272C30.3547 78.9909 27.8015 77.965 25.4386 76.5828C23.0716 75.2037 20.9374 73.4575 19.1152 71.4091C17.3837 69.4482 15.8932 67.2861 14.6754 64.9692C14.5897 64.831 14.5134 64.6928 14.4426 64.5527V64.5471Z" fill="#9A6C3E"/>
<g style="mix-blend-mode:screen">
<path d="M98.0567 16.3594C97.8164 15.4308 97.4999 14.5237 97.1103 13.6474C97.1092 13.6296 97.1011 13.6128 97.0879 13.6007C96.3078 12.2117 95.2964 10.9667 94.0976 9.91943C91.6551 7.79768 88.5791 6.64902 85.5571 6.04201C83.2953 5.59188 73.283 6.78911 66.069 8.38042C69.3313 7.86119 72.5787 7.4092 75.8243 7.16079C78.6841 6.95161 81.544 6.89744 84.3182 7.26165C87.0923 7.62585 89.7808 8.44392 91.9271 10.0819C93.6859 11.4099 95.0199 13.2739 95.9328 15.3807C96.4797 16.3346 96.9291 17.3415 97.2742 18.3859C98.1722 21.081 98.4666 24.0022 98.4834 26.899C98.42 32.7189 97.1662 38.5294 95.1745 44.0131C93.2294 49.5435 90.1907 54.5621 86.5185 59.0446C82.775 63.4607 78.4743 67.3697 73.7245 70.6732C72.562 71.5192 71.3379 72.2813 70.1381 73.0732C68.8972 73.8035 67.6731 74.5674 66.3951 75.2174C63.8776 76.5857 61.2707 77.7819 58.5924 78.7978C53.2527 80.787 47.6261 82.0851 42.0331 82.0851C39.2587 82.1068 36.4913 81.8041 33.7869 81.1829C31.1258 80.5466 28.5726 79.5208 26.2097 78.1385C23.8423 76.7599 21.7081 75.0137 19.8863 72.9649C18.0555 70.8809 16.4909 68.5765 15.2285 66.1047C15.0422 65.7311 14.8559 65.3576 14.6696 64.971C14.5913 64.8309 14.515 64.6927 14.4442 64.5526C11.9103 59.5489 10.3695 53.9644 9.6634 48.2398C8.99315 42.6621 9.11861 37.0172 10.036 31.475C9.98013 31.701 9.91865 31.9344 9.84971 32.1586C8.40767 37.9486 7.64192 43.9253 7.83382 49.9861C7.91109 53.0269 8.26661 56.0541 8.89583 59.0297C9.04301 59.7768 9.2293 60.5239 9.43051 61.271C9.63173 62.0181 9.84226 62.7652 10.0826 63.4861C10.3229 64.2071 10.5931 64.9374 10.8726 65.6602C11.152 66.383 11.4688 67.0909 11.8041 67.7969C11.8432 67.8828 11.8898 67.9836 11.9271 68.0602C14.5355 72.963 18.4219 77.3055 23.279 80.2341C28.7435 83.5045 35.1507 84.8717 41.3269 84.6849C47.5423 84.5299 53.5471 82.976 59.1811 80.7384C70.4196 76.1592 80.1965 68.5888 87.4556 58.8448C89.242 56.4229 90.8332 53.8622 92.214 51.1871C92.9108 49.8516 93.5312 48.4845 94.0976 47.1005C94.664 45.7165 95.1969 44.3194 95.6701 42.9055C97.5332 37.2425 98.8075 31.3629 98.9939 25.3582C99.0553 22.3716 98.8858 19.3254 98.0567 16.3594Z" fill="#9A6C3E"/>
</g>
<path d="M15.6476 72.2495C15.6122 72.2775 15.5693 72.3037 15.5339 72.3317C15.1806 72.5844 14.8066 72.8068 14.4161 72.9966C12.3163 74.0071 11.0811 73.2581 8.96461 74.7672C8.65553 74.9821 8.37286 75.2329 8.12249 75.5143C7.19093 76.5584 6.50902 78.3477 4.0609 83.7212C3.50197 84.9688 3.00827 86.0316 2.59839 86.9075C2.27607 87.6154 1.99661 88.2 1.77118 88.6632C1.32217 89.5821 1.05012 90.0378 0.947652 90.0248C0.16142 89.9202 -0.209309 86.1716 0.139092 81.3062V81.2819C0.526618 75.7852 1.81589 68.8652 4.42424 64.1977C4.96326 63.1975 5.62004 62.2657 6.38051 61.4223C7.93061 59.7413 9.4602 59.1418 10.2203 58.9307C10.2742 58.9145 10.329 58.9014 10.3843 58.8915L10.6191 58.8373C13.0635 58.348 16.0705 59.1978 17.9001 61.4951C18.3584 62.0685 19.6104 63.8223 19.4856 66.2074C19.3105 69.5936 16.4879 71.6388 15.6476 72.2495Z" fill="url(#paint0_linear_246_5202)"/>
<path d="M15.3846 63.886L11.9416 64.2838L10.0859 69.3921L16.7056 69.3286L15.3846 63.886Z" fill="#772A1C"/>
<path style="mix-blend-mode:soft-light" d="M3.19762 79.278L0.743918 88.3029L0.132812 81.3101V81.2859C0.520339 75.7891 1.80961 68.8691 4.41796 64.2017L6.84 62.4236L9.75389 63.4863L7.76223 73.5067L3.19762 79.278Z" fill="url(#paint1_linear_246_5202)"/>
<path d="M11.9424 64.2837L9.09375 69.857L9.82223 70.1222L16.7064 69.3284L10.4259 69.3901L11.9424 64.2837Z" fill="url(#paint2_linear_246_5202)"/>
<path d="M15.6446 72.2497C15.6092 72.2777 15.5664 72.3039 15.531 72.3319C15.1776 72.5846 14.8037 72.807 14.4131 72.9968C14.9573 72.551 15.4599 72.0565 15.9148 71.5194C16.9656 70.283 19.2684 67.5673 18.566 64.2203C17.9623 61.3216 15.4974 59.8423 15.259 59.706C13.778 58.881 12.0581 58.5946 10.3906 58.8954L10.6254 58.8412C13.0698 58.3519 16.0768 59.2017 17.9064 61.499C18.3647 62.0724 19.6168 63.8262 19.4919 66.2113C19.3075 69.5938 16.4849 71.639 15.6446 72.2497Z" fill="#E17E4B"/>
<path d="M15.534 72.3318C12.6927 74.3209 11.4221 73.0042 8.95906 74.7598C7.44435 75.845 7.16492 76.8835 4.05539 83.725C3.03441 85.9663 2.27798 87.623 1.76562 88.667L3.19834 79.2779L7.76856 73.5066L15.534 72.3318Z" fill="#EEA45F"/>
<path d="M6.70937 76.4258C7.13479 76.0594 7.60877 75.754 8.11785 75.5181C7.18629 76.5621 6.50443 78.3514 4.05631 83.7249C3.49738 84.9725 3.00363 86.0353 2.59375 86.9113C3.1199 84.5015 3.80835 82.1303 4.65436 79.8139C5.12759 78.5102 5.60455 77.3783 6.70937 76.4258Z" fill="#E17E4B"/>
<path d="M22.9414 77.8156C22.9172 77.8548 22.8855 77.8922 22.8613 77.9314C22.6075 78.2863 22.3239 78.6187 22.0136 78.925C20.3554 80.5649 18.9431 80.2567 17.4303 82.3729C17.2048 82.677 17.0171 83.0076 16.8714 83.3572C16.3348 84.644 16.2603 86.5622 15.6846 92.44C15.5504 93.8053 15.4349 94.9689 15.3306 95.9308C15.2542 96.7059 15.1797 97.3484 15.1163 97.8602C14.9878 98.8762 14.8778 99.3936 14.7772 99.416C13.9985 99.571 12.4353 96.1474 11.1926 91.4295V91.4071C9.78224 86.0822 8.7706 79.1155 9.72637 73.8504C9.91307 72.7296 10.2333 71.6354 10.6803 70.5912C11.6025 68.4937 12.8564 67.431 13.5066 66.9846C13.5551 66.9472 13.6016 66.9248 13.6482 66.8949L13.8531 66.7661C16.0069 65.5091 19.1257 65.3354 21.6 66.9136C22.2204 67.3058 23.9717 68.5591 24.6256 70.8564C25.546 74.1138 23.5394 76.962 22.9414 77.8156Z" fill="url(#paint3_linear_246_5202)"/>
<path d="M19.9884 69.9897L16.8603 71.4858L16.7578 76.9209L22.9992 74.7095L19.9884 69.9897Z" fill="#772A1C"/>
<path style="mix-blend-mode:soft-light" d="M13.4418 88.5119L14.0398 97.8506L11.2004 91.433V91.4106C9.79005 86.0857 8.77841 79.1191 9.73418 73.8539L11.4482 71.3848L14.5466 71.4445L15.9048 81.5714L13.4418 88.5119Z" fill="url(#paint4_linear_246_5202)"/>
<path d="M16.8612 71.4858L15.9688 77.683L16.7438 77.6979L23.0001 74.7096L17.0792 76.8089L16.8612 71.4858Z" fill="url(#paint5_linear_246_5202)"/>
<path d="M22.9435 77.8156C22.9192 77.8548 22.8876 77.8922 22.8634 77.9314C22.6096 78.2863 22.326 78.6187 22.0156 78.925C22.3856 78.3265 22.7011 77.6957 22.9584 77.0405C23.5527 75.5276 24.8476 72.2124 23.1056 69.2726C21.5965 66.7268 18.7869 66.1292 18.5167 66.0769C16.8484 65.7788 15.1286 66.0678 13.6484 66.8949L13.8534 66.7661C16.0071 65.5091 19.126 65.3354 21.6002 66.9136C22.2206 67.3058 23.9719 68.5591 24.6259 70.8564C25.5481 74.1138 23.5415 76.962 22.9435 77.8156Z" fill="#E17E4B"/>
<path d="M22.8615 77.9312C20.8121 80.7328 19.1893 79.9054 17.4305 82.3726C16.348 83.8911 16.4207 84.9651 15.6904 92.4397C15.45 94.8977 15.2674 96.7057 15.1221 97.8562L13.4453 88.5081L15.9009 81.5639L22.8615 77.9312Z" fill="#EEA45F"/>
<path d="M15.8375 84.6739C16.1215 84.1916 16.4714 83.7515 16.8771 83.3665C16.3405 84.6533 16.266 86.5715 15.6903 92.4493C15.5561 93.8146 15.4406 94.9782 15.3363 95.94C15.0541 93.4878 14.9377 91.0193 14.9879 88.5513C15.014 87.1598 15.0997 85.9271 15.8375 84.6739Z" fill="#E17E4B"/>
<path d="M29.6803 78.0827C29.34 78.8908 29.0003 79.7001 28.6612 80.5107L27.8619 82.4084C26.1254 81.8378 24.4702 81.0436 22.9377 80.0457C21.0657 78.8281 19.4253 77.2854 18.0937 75.4903C18.0414 74.8175 18.2556 74.1512 18.6898 73.6356C18.7848 73.5237 18.8896 73.4206 19.0029 73.3274C19.4914 72.9452 20.0793 72.7118 20.6964 72.655C21.6043 73.8347 22.6958 74.8602 23.9289 75.692C25.6708 76.8598 27.6252 77.6722 29.6803 78.0827Z" fill="#9A6C3E"/>
<g style="mix-blend-mode:screen">
<path d="M28.6612 80.5106L27.8619 82.4083C26.1254 81.8377 24.4702 81.0435 22.9377 80.0456C21.0657 78.828 19.4253 77.2853 18.0937 75.4902C18.0414 74.8174 18.2556 74.1511 18.6898 73.6355C19.0142 74.2099 19.3817 74.7588 19.7891 75.2772C22.6154 78.8932 26.6341 80.0923 28.6612 80.5106Z" fill="#9A6C3E"/>
</g>
<path d="M38.6614 85.5404C38.6409 85.5815 38.6148 85.6226 38.5962 85.6637C38.3876 86.0476 38.147 86.4131 37.877 86.7563C36.435 88.5886 34.9948 88.4597 33.7558 90.7477C33.5721 91.0774 33.4283 91.4279 33.3273 91.7917C32.9547 93.1365 33.1186 95.0491 33.2733 100.944C33.3087 102.315 33.3385 103.484 33.3534 104.449C33.3739 105.228 33.3795 105.876 33.3795 106.392C33.3795 107.415 33.3329 107.944 33.236 107.978C32.4908 108.23 30.5085 105.025 28.6901 100.507L28.6807 100.484C26.6313 95.3759 24.7552 88.5904 25.0551 83.2469C25.1021 82.1085 25.2847 80.9798 25.5992 79.8849C26.255 77.6903 27.3672 76.4782 27.9578 75.9627C27.9988 75.925 28.0418 75.8894 28.0864 75.8562C28.1665 75.7927 28.2299 75.7385 28.2727 75.7031C30.2569 74.1883 33.3292 73.628 35.9785 74.8869C36.6437 75.1988 38.5366 76.2241 39.4681 78.4225C40.7872 81.5416 39.1476 84.6196 38.6614 85.5404Z" fill="url(#paint6_linear_246_5202)"/>
<path d="M34.7692 78.1423L31.8516 80.0138L32.4217 85.4209L38.3408 82.4493L34.7692 78.1423Z" fill="#772A1C"/>
<path style="mix-blend-mode:soft-light" d="M30.5532 97.3352L32.3026 106.525L28.6901 100.509L28.6807 100.486C26.6313 95.3779 24.7552 88.5924 25.0551 83.2488L26.4506 80.5854L29.5321 80.2585L32.1405 90.137L30.5532 97.3352Z" fill="url(#paint7_linear_246_5202)"/>
<path d="M31.8477 80.0139L31.7266 86.2746L32.4979 86.1943L38.3369 82.4494L32.7215 85.2679L31.8477 80.0139Z" fill="url(#paint8_linear_246_5202)"/>
<path d="M38.6609 85.5405C38.6404 85.5816 38.6143 85.6227 38.5957 85.6638C38.3872 86.0477 38.1466 86.4132 37.8765 86.7564C38.1703 86.1161 38.4054 85.4503 38.5789 84.7673C38.9814 83.1946 39.857 79.7431 37.7648 77.0423C35.952 74.7039 33.0902 74.4611 32.8145 74.4424C31.1226 74.3539 29.4523 74.854 28.0859 75.8582C28.1661 75.7947 28.2294 75.7405 28.2722 75.705C30.2565 74.1903 33.3287 73.63 35.978 74.8888C36.6432 75.2007 38.5361 76.2261 39.4676 78.4244C40.7867 81.5417 39.1472 84.6197 38.6609 85.5405Z" fill="#E17E4B"/>
<path d="M38.6014 85.6638C36.9246 88.7008 35.2013 88.0788 33.7574 90.7478C32.8705 92.3877 33.0754 93.4429 33.2748 100.953C33.34 103.422 33.3829 105.238 33.381 106.401L30.5547 97.3353L32.1346 90.1371L38.6014 85.6638Z" fill="#EEA45F"/>
<path d="M32.4642 93.228C32.6847 92.7107 32.977 92.2272 33.3324 91.7917C32.9597 93.1365 33.1237 95.0491 33.2783 100.944C33.3137 102.315 33.3435 103.484 33.3584 104.449C32.7756 102.053 32.3554 99.619 32.1008 97.1652C31.9555 95.7962 31.8885 94.5691 32.4642 93.228Z" fill="#E17E4B"/>
<path d="M45.3654 83.9865C43.6783 84.4211 41.9381 84.6129 40.1971 84.5561H40.0481C37.8912 84.4672 35.7667 83.9994 33.7713 83.174C33.4782 82.8069 33.2724 82.3777 33.1695 81.9189C33.0893 81.5497 33.0893 81.1675 33.1695 80.7982C33.2985 80.219 33.6078 79.6958 34.0526 79.3041C37.3036 80.5826 40.9206 80.5585 44.1544 79.2368C44.5543 80.8182 44.958 82.4014 45.3654 83.9865Z" fill="#9A6C3E"/>
<g style="mix-blend-mode:screen">
<path d="M40.2513 84.1302C40.2175 84.2855 40.1458 84.4299 40.0426 84.5505C37.8858 84.4615 35.7613 83.9937 33.7658 83.1683C33.4727 82.8012 33.2669 82.372 33.1641 81.9132C33.8665 81.3791 35.3048 81.2035 36.8716 81.5397C38.9471 81.973 40.46 83.1347 40.2513 84.1302Z" fill="#9A6C3E"/>
</g>
<path d="M53.7248 84.2872C53.7248 84.3321 53.7044 84.3806 53.6988 84.4254C53.6097 84.8535 53.485 85.2734 53.3261 85.6806C52.4784 87.8546 51.0643 88.1534 50.5464 90.7048C50.4669 91.0728 50.4319 91.449 50.4421 91.8254C50.4775 93.2187 51.1873 95.0006 53.0504 100.604C53.4845 101.911 53.8534 103.013 54.1515 103.934C54.3974 104.681 54.5912 105.29 54.7402 105.785C55.0383 106.764 55.1482 107.279 55.0644 107.343C54.4179 107.804 51.5971 105.318 48.5435 101.521L48.5268 101.502C45.0707 97.2194 41.3053 91.2763 40.0366 86.0784C39.7512 84.98 39.5974 83.8514 39.5783 82.7165C39.5671 80.4266 40.2769 78.9418 40.6961 78.2675C40.7242 78.2193 40.7546 78.1726 40.7874 78.1274C40.8452 78.0434 40.8917 77.9743 40.9215 77.9276C42.3766 75.8974 45.1545 74.463 48.0535 74.8907C48.7801 74.9934 50.8892 75.4211 52.4225 77.2496C54.593 79.842 53.9223 83.2674 53.7248 84.2872Z" fill="url(#paint9_linear_246_5202)"/>
<path d="M47.8407 78.3535L45.5938 80.9982L47.714 86.0038L52.5096 81.4278L47.8407 78.3535Z" fill="#772A1C"/>
<path style="mix-blend-mode:soft-light" d="M49.4109 97.9423L53.7593 106.218L48.5538 101.523L48.5371 101.504C45.081 97.2214 41.3157 91.2782 40.0469 86.0803L40.6058 83.1237L43.4582 81.9097L48.824 90.5965L49.4109 97.9423Z" fill="url(#paint10_linear_246_5202)"/>
<path d="M45.5938 80.998L47.3041 87.0215L48.0177 86.7171L52.5096 81.4276L47.9599 85.7682L45.5938 80.998Z" fill="url(#paint11_linear_246_5202)"/>
<path d="M53.7205 84.2871C53.7205 84.3319 53.7001 84.3805 53.6945 84.4253C53.6054 84.8533 53.4807 85.2732 53.3218 85.6804C53.415 84.9823 53.4456 84.2772 53.4131 83.5736C53.3405 81.9505 53.1709 78.3925 50.3837 76.4239C47.9617 74.7168 45.167 75.3219 44.8931 75.3854C43.2489 75.7962 41.7964 76.7634 40.7812 78.1235C40.839 78.0395 40.8856 77.9704 40.9154 77.9237C42.3705 75.8935 45.1484 74.459 48.0474 74.8868C48.774 74.9895 50.883 75.4172 52.4164 77.2457C54.5887 79.8419 53.918 83.2673 53.7205 84.2871Z" fill="#E17E4B"/>
<path d="M53.698 84.4329C52.9732 87.8303 51.1492 87.7388 50.5493 90.7122C50.1767 92.5407 50.6834 93.4895 53.0607 100.611C53.8433 102.953 54.4134 104.677 54.7506 105.792L49.4072 97.9478L48.8203 90.602L53.698 84.4329Z" fill="#EEA45F"/>
<path d="M50.0284 93.4559C50.0896 92.8969 50.2288 92.3493 50.442 91.8291C50.4774 93.2224 51.1872 95.0043 53.0504 100.607C53.4845 101.915 53.8533 103.017 54.1514 103.938C52.8932 101.816 51.7808 99.6106 50.822 97.3371C50.2911 96.0614 49.8625 94.909 50.0284 93.4559Z" fill="#E17E4B"/>
<path d="M58.7147 80.9084C57.6788 81.4799 56.4622 81.9544 54.6159 82.3653C52.1827 82.9069 49.8594 82.9685 48.5086 82.778C48.3838 82.6865 46.8672 82.3652 46.8672 80.8094C46.8672 80.1165 47.6348 79.6365 47.8472 79.4142C47.8609 79.4004 47.8734 79.3854 47.8845 79.3694C49.1883 79.5308 50.5095 79.4797 51.797 79.2181C54.0737 78.753 55.3947 78.4803 56.9448 77.7034C57.2373 78.2375 57.472 78.6597 57.69 79.065C58.0105 79.6309 58.3048 80.1613 58.7147 80.9084Z" fill="#9A6C3E"/>
<g style="mix-blend-mode:screen">
<path d="M58.7147 80.9085C57.6788 81.4801 56.4622 81.9545 54.6159 82.3654C52.1827 82.907 49.8594 82.9687 48.5086 82.7781C48.3838 82.6866 46.8672 82.3654 46.8672 80.8095C46.8672 80.1166 47.6348 79.6366 47.8472 79.4144C48.993 79.674 50.5077 80.2586 52.2255 80.1446C54.0903 80.0202 55.9345 79.6805 57.7217 79.1323C58.0403 79.7001 58.3048 80.1614 58.7147 80.9085Z" fill="#9A6C3E"/>
</g>
</g>
<defs>
<linearGradient id="paint0_linear_246_5202" x1="1.81" y1="71.3358" x2="16.3017" y2="76.5644" gradientUnits="userSpaceOnUse">
<stop stop-color="#FDDC94"/>
<stop offset="1" stop-color="#F7AD6B"/>
</linearGradient>
<linearGradient id="paint1_linear_246_5202" x1="1.10301" y1="73.2935" x2="7.32025" y2="75.5368" gradientUnits="userSpaceOnUse">
<stop stop-color="#FDE3C0"/>
<stop offset="1" stop-color="#FDCC90"/>
</linearGradient>
<linearGradient id="paint2_linear_246_5202" x1="10.743" y1="66.0536" x2="17.3038" y2="68.4207" gradientUnits="userSpaceOnUse">
<stop stop-color="#FDE3C0"/>
<stop offset="1" stop-color="#FDCC90"/>
</linearGradient>
<linearGradient id="paint3_linear_246_5202" x1="9.26926" y1="82.4799" x2="24.6744" y2="82.7723" gradientUnits="userSpaceOnUse">
<stop stop-color="#FDDC94"/>
<stop offset="1" stop-color="#F7AD6B"/>
</linearGradient>
<linearGradient id="paint4_linear_246_5202" x1="9.23196" y1="84.5619" x2="15.8411" y2="84.6873" gradientUnits="userSpaceOnUse">
<stop stop-color="#FDE3C0"/>
<stop offset="1" stop-color="#FDCC90"/>
</linearGradient>
<linearGradient id="paint5_linear_246_5202" x1="16.0315" y1="74.5911" x2="23.0057" y2="74.7235" gradientUnits="userSpaceOnUse">
<stop stop-color="#FDE3C0"/>
<stop offset="1" stop-color="#FDCC90"/>
</linearGradient>
<linearGradient id="paint6_linear_246_5202" x1="25.642" y1="91.8698" x2="40.9636" y2="90.2553" gradientUnits="userSpaceOnUse">
<stop stop-color="#FDDC94"/>
<stop offset="1" stop-color="#F7AD6B"/>
</linearGradient>
<linearGradient id="paint7_linear_246_5202" x1="25.8602" y1="93.9408" x2="32.4343" y2="93.2481" gradientUnits="userSpaceOnUse">
<stop stop-color="#FDE3C0"/>
<stop offset="1" stop-color="#FDCC90"/>
</linearGradient>
<linearGradient id="paint8_linear_246_5202" x1="31.3772" y1="83.2018" x2="38.3126" y2="82.471" gradientUnits="userSpaceOnUse">
<stop stop-color="#FDE3C0"/>
<stop offset="1" stop-color="#FDCC90"/>
</linearGradient>
<linearGradient id="paint9_linear_246_5202" x1="42.7805" y1="94.5277" x2="56.9664" y2="88.529" gradientUnits="userSpaceOnUse">
<stop stop-color="#FDDC94"/>
<stop offset="1" stop-color="#F7AD6B"/>
</linearGradient>
<linearGradient id="paint10_linear_246_5202" x1="43.5928" y1="96.442" x2="49.6806" y2="93.8677" gradientUnits="userSpaceOnUse">
<stop stop-color="#FDE3C0"/>
<stop offset="1" stop-color="#FDCC90"/>
</linearGradient>
<linearGradient id="paint11_linear_246_5202" x1="45.742" y1="84.5657" x2="52.1626" y2="81.8507" gradientUnits="userSpaceOnUse">
<stop stop-color="#FDE3C0"/>
<stop offset="1" stop-color="#FDCC90"/>
</linearGradient>
<clipPath id="clip0_246_5202">
<rect width="99" height="108" fill="white"/>
</clipPath>
</defs>
</svg>
