<svg width="207" height="72" viewBox="0 0 207 72" fill="none" xmlns="http://www.w3.org/2000/svg">
<path d="M103.567 46.1882C55.989 57.2526 7.0863 77.0026 3.5046 69.4938C2.18853 66.7256 7.95266 62.1341 6.29508 53.954C4.92903 47.2076 0.0728113 45.7738 0.372675 43.1299C0.522607 41.8287 1.87191 40.7762 4.2375 39.9059C17.6314 34.9332 63.5107 35.8118 105.175 28.4853C129.337 24.2207 152.903 17.1122 175.377 7.30968C184.731 2.15461 190.253 0.273227 193.51 0.02459C195.493 -0.116304 196.642 0.339607 197.325 1.03579C199.557 3.33154 196.384 7.8318 198.899 14.2301C201.456 20.7526 207.229 21.5566 206.996 23.8689C205.863 34.9912 161.883 32.6292 103.567 46.1882Z" fill="url(#paint0_linear_265_824)"/>
<path d="M103.567 46.1882C55.989 57.2526 7.0863 77.0026 3.50459 69.4938C2.18853 66.7256 7.95266 62.1341 6.29508 53.954C4.92903 47.2076 0.0728114 45.7738 0.372675 43.1299C0.522607 41.8287 1.8719 40.7762 4.2375 39.9059C4.69506 41.5537 5.25136 43.1728 5.90341 44.7544C6.79467 46.901 11.9507 58.8439 20.3219 62.8967C30.0592 67.5876 42.2954 60.692 48.7591 57.3437C76.3466 43.0222 103.268 38.8866 132.429 34.4029C166.339 29.2064 198.999 33.1182 200.015 26.4464C200.548 22.9655 192.111 18.8796 193.535 12.9538C194.31 9.76295 197.558 7.59982 196.759 4.0526C196.516 3.01385 195.995 2.05994 195.251 1.29266C194.747 0.770772 194.155 0.341467 193.502 0.02459C195.484 -0.116304 196.634 0.339607 197.317 1.03579C199.549 3.33154 196.375 7.8318 198.891 14.2301C201.448 20.7526 207.22 21.5566 206.987 23.8689C205.863 34.9912 161.883 32.6292 103.567 46.1882Z" fill="#E17E4B"/>
<defs>
<linearGradient id="paint0_linear_265_824" x1="80.0332" y1="-1.03617" x2="120.361" y2="73.4561" gradientUnits="userSpaceOnUse">
<stop stop-color="#FDDC94"/>
<stop offset="1" stop-color="#F7AD6B"/>
</linearGradient>
</defs>
</svg>
