<svg width="87" height="125" viewBox="0 0 87 125" fill="none" xmlns="http://www.w3.org/2000/svg">
<path d="M38.0455 64.8669C43.5333 92.2585 44.8114 122.393 49.5684 122.483C51.321 122.514 52.3491 118.427 57.0006 117.356C60.8366 116.472 62.7315 118.662 64.0373 117.88C64.6794 117.495 64.9085 116.543 64.8023 115.106C64.2249 106.955 52.9198 83.2722 46.8838 59.8441C43.3918 46.2542 41.5214 32.302 41.3121 18.2813C41.7848 12.1915 41.4588 8.87095 40.8182 7.11622C40.4229 6.05059 39.9137 5.55989 39.3897 5.36883C37.6664 4.7492 36.0733 7.46575 32.1468 7.66864C28.1457 7.87924 26.3622 5.06349 25.2133 5.73165C19.6894 8.95132 31.318 31.2946 38.0455 64.8669Z" fill="url(#paint0_linear_265_825)"/>
<path d="M38.0455 64.8669C43.5333 92.2585 44.8114 122.393 49.5684 122.483C51.321 122.514 52.3491 118.427 57.0006 117.356C60.8366 116.472 62.7315 118.662 64.0373 117.88C64.6794 117.495 64.9085 116.543 64.8023 115.106C63.8361 115.257 62.8615 115.35 61.8837 115.384C60.5552 115.428 53.1171 115.567 49.0274 112.166C44.2824 108.205 44.98 100.202 45.1953 96.0448C46.1302 78.293 41.9185 63.2966 37.3583 47.0511C32.0467 28.1647 22.2876 12.0826 25.5215 9.97592C27.2081 8.8753 31.3307 12.3031 34.0797 10.1603C35.5581 9.00245 35.9164 6.79935 37.9527 6.37704C38.5509 6.25762 39.1708 6.30344 39.7463 6.50959C40.1371 6.64836 40.5006 6.85515 40.8202 7.12056C40.4248 6.05494 39.9157 5.56423 39.3917 5.37317C37.6684 4.75354 36.0753 7.47009 32.1488 7.67299C28.1477 7.88358 26.3642 5.06783 25.2153 5.736C19.6894 8.95132 31.318 31.2946 38.0455 64.8669Z" fill="#E17E4B"/>
<defs>
<linearGradient id="paint0_linear_265_825" x1="68.201" y1="65.9562" x2="19.8757" y2="62.5694" gradientUnits="userSpaceOnUse">
<stop stop-color="#FDDC94"/>
<stop offset="1" stop-color="#F7AD6B"/>
</linearGradient>
</defs>
</svg>
