<svg width="77" height="74" viewBox="0 0 77 74" fill="none" xmlns="http://www.w3.org/2000/svg">
<path d="M37.9439 42.1562C51.7787 43.6574 66.3 47.5683 67.0456 45.3242C67.317 44.4934 65.5276 43.388 65.6941 41.0139C65.8512 39.0343 67.1633 38.4879 67.0008 37.7539C66.9103 37.3908 66.4919 37.1414 65.7987 36.9759C61.8376 36.0264 48.8981 37.8611 36.8711 37.2019C29.8922 36.8255 22.9802 35.6216 16.2815 33.6161C13.4517 32.4818 11.8311 32.1335 10.9012 32.1744C10.3355 32.203 10.0272 32.3704 9.86032 32.5946C9.30857 33.3181 10.3661 34.4824 9.88361 36.3775C9.40111 38.2726 7.78735 38.739 7.93827 39.3868C8.64505 42.4888 20.9858 40.317 37.9439 42.1562Z" fill="url(#paint0_linear_265_826)"/>
<path d="M37.9439 42.1562C51.7787 43.6574 66.3 47.5683 67.0456 45.3242C67.317 44.4934 65.5276 43.388 65.6941 41.0139C65.8512 39.0343 67.1633 38.4879 67.0008 37.7539C66.9103 37.3908 66.4919 37.1414 65.7987 36.9759C65.7269 37.4521 65.6271 37.9236 65.4996 38.3879C65.327 39.0234 64.2937 42.587 62.0737 44.0155C59.4872 45.68 55.7862 44.1454 53.8407 43.4167C45.5389 40.3137 37.7933 40.0482 29.3847 39.7977C19.621 39.4841 10.5316 41.7131 10.0073 39.8587C9.73317 38.8909 11.9708 37.444 11.3601 35.8052C11.0295 34.9271 10.0345 34.4262 10.1351 33.3942C10.1689 33.0919 10.2841 32.8045 10.4684 32.5626C10.5931 32.3988 10.7451 32.2577 10.918 32.1454C10.3522 32.1739 10.0439 32.3414 9.8771 32.5655C9.32535 33.2891 10.3828 34.4534 9.90035 36.3486C9.41785 38.2437 7.80413 38.71 7.95506 39.3577C8.64507 42.4888 20.9858 40.317 37.9439 42.1562Z" fill="#E17E4B"/>
<defs>
<linearGradient id="paint0_linear_265_826" x1="42.9078" y1="28.0872" x2="34.0653" y2="50.5186" gradientUnits="userSpaceOnUse">
<stop stop-color="#FDDC94"/>
<stop offset="1" stop-color="#F7AD6B"/>
</linearGradient>
</defs>
</svg>
