<svg width="102" height="43" viewBox="0 0 102 43" fill="none" xmlns="http://www.w3.org/2000/svg">
<path d="M49.296 26.9378C25.865 20.3738 -0.248107 17.2742 0.00177955 13.1468C0.101734 11.6218 3.72509 10.9919 4.99951 7.03025C6.03238 3.71509 4.25818 1.97471 4.99951 0.888991C5.38267 0.358566 6.22391 0.225996 7.45669 0.408329C14.5035 1.44432 34.3111 12.8402 54.2604 19.5948C65.8324 23.5241 77.834 26.067 90.011 27.1699C95.3419 27.1699 98.1988 27.659 99.6815 28.3303C100.581 28.7447 100.973 29.217 101.097 29.6894C101.522 31.2227 99.0484 32.4243 98.5986 35.8141C98.1488 39.2038 100.465 41.0107 99.7982 41.9639C96.633 46.5388 78.0163 34.9853 49.296 26.9378Z" fill="url(#paint0_linear_265_823)"/>
<path d="M49.296 26.9378C25.865 20.3738 -0.248107 17.2742 0.00177955 13.1468C0.101734 11.6218 3.72509 10.9919 4.99951 7.03025C6.03237 3.71509 4.25818 1.97471 4.99951 0.888991C5.38267 0.358566 6.22391 0.225996 7.45669 0.408329C7.26337 1.22794 7.11873 2.05817 7.02353 2.8947C6.89026 4.03843 6.24891 10.4946 8.9227 14.2573C12.0379 18.6416 19.0431 18.5587 22.6748 18.6416C38.1678 19.0063 50.912 23.6144 64.7224 28.6783C80.7734 34.5213 94.0757 44.0524 96.1331 41.3837C97.2076 39.9914 94.5172 36.1872 96.5746 33.9246C97.6824 32.7146 99.6232 32.5488 100.131 30.8084C100.273 30.2958 100.273 29.7544 100.131 29.2418C100.036 28.8949 99.8805 28.567 99.6731 28.2722C100.573 28.6866 100.964 29.1589 101.089 29.6314C101.514 31.1646 99.04 32.3665 98.5902 35.7562C98.1404 39.146 100.456 40.9527 99.7898 41.9058C96.6329 46.5387 78.0163 34.9853 49.296 26.9378Z" fill="#E17E4B"/>
<defs>
<linearGradient id="paint0_linear_265_823" x1="50.3924" y1="0.873873" x2="50.1508" y2="43.0337" gradientUnits="userSpaceOnUse">
<stop stop-color="#FDDC94"/>
<stop offset="1" stop-color="#F7AD6B"/>
</linearGradient>
</defs>
</svg>
