<svg width="260" height="87" viewBox="0 0 260 87" fill="none" xmlns="http://www.w3.org/2000/svg">
<path d="M251.048 55.68L260 50.46L255.524 45.24L246.572 46.98L233.144 24.36L208.526 19.14L173.004 13.92L94.6741 0L40.9623 10.44L14.1064 27.84L-14.9874 24.36L-32.8913 31.9L-46.3193 41.76L-22.2424 50.46L-49.0983 46.98H-69.2402L-75.9542 60.9L-82.6682 71.34H-102.81L-114 81.78H-96.0961H-82.6682L-60.2882 87L-49.0983 81.78L-22.2424 87H0.137451L31.4693 81.78L53.8492 87L65.0392 81.78L101.388 72.9143L126.006 77.4714H173.004L219.716 50.46L251.048 55.68Z" fill="white" fill-opacity="0.4"/>
<path d="M123.046 14.6264L232 23.7391L96.3539 0L40.7828 10.6374L13.6536 27.0367L-15.2259 23.7391L-34.0413 31.469L-47 42L4.90224 37.6741H45.5961L65.7242 12.4103L96.3539 7.0916L123.046 14.6264Z" fill="white" fill-opacity="0.4"/>
</svg>
