<svg width="352" height="87" viewBox="0 0 352 87" fill="none" xmlns="http://www.w3.org/2000/svg">
<path d="M8.40143 53.2389L0 48.3189L4.20072 43.3989L12.6022 45.0389L25.2043 23.7189L48.3082 18.7989L81.6463 13.8789L155.159 0.758881L205.567 10.5989L230.772 26.9989L243.5 17.7056H265.5L275.618 26.1389L271.504 35.1989L286.708 48.9189H305.611L311.912 62.0389L318.213 71.8789L341.301 62.0389L351.803 71.8789H335L318.213 81.7189L297.21 86.6389L286.708 81.7189L271.504 69.6389H250.5L205.567 56.7589L184.564 61.6789L174.062 56.7589L139.949 48.4027L116.845 52.6979L81.6463 73.7779L37.8065 48.3189L8.40143 53.2389Z" fill="white" fill-opacity="0.4"/>
<path d="M36.2733 27.8358L13 44.7589L25.6945 22.7589L48.9678 17.682L81.7817 14.2973L155.833 0.758881L206.611 10.9127L232 27.8358L191.801 17.682L155.833 14.2973L113.518 27.8358L61.6623 22.7589L36.2733 27.8358Z" fill="white" fill-opacity="0.4"/>
</svg>
