<svg width="297" height="71" viewBox="0 0 297 71" fill="none" xmlns="http://www.w3.org/2000/svg">
<path d="M6.67416 71L0 67.1273L3.33708 63.2545L10.0112 64.5454L20.0225 47.7636L38.3764 43.8909L65.073 10.3273L123.472 0L163.517 7.74545L183.539 20.6545L205.23 18.0727L218.579 23.6667L228.59 30.9818V43.8909L248.612 41.3091H263.629L268.635 51.6364L273.64 59.3818H288.657L297 67.1273H283.652H273.64L256.955 71L248.612 67.1273L228.59 71H211.904L188.545 67.1273L171.86 71L163.517 67.1273L118.466 54.0952L100.112 57.4762H65.073L30.0337 67.1273L6.67416 71Z" fill="white" fill-opacity="0.4"/>
<path d="M28.4038 53.6L10 67L20.0385 49.58L38.4423 45.56L65.2115 10.72L123.769 0L163.923 8.04L184 21.44L152.212 13.4L123.769 10.72L90.3077 21.44L48.4808 49.58L28.4038 53.6Z" fill="white" fill-opacity="0.4"/>
</svg>
