<svg width="375" height="88" viewBox="0 0 375 88" fill="none" xmlns="http://www.w3.org/2000/svg">
<path d="M366.001 56.0134L374.953 50.7934L370.477 45.5734L361.525 47.3134L348.097 24.6934L323.479 19.4734L287.957 14.2534L209.627 0.333374L155.915 10.7734L129.06 28.1734L99.9657 24.6934L82.0618 32.2334L68.6339 42.0934L92.7107 50.7934L65.8548 47.3134H45.7129L38.9989 61.2334L32.285 71.6734H12.1431L0.953125 82.1134H18.857H32.285L54.6649 87.3334L65.8548 82.1134L92.7107 87.3334H115.091L146.422 82.1134L168.802 87.3334L179.992 82.1134L216.341 73.2477L240.959 77.8048H287.957L334.669 50.7934L366.001 56.0134Z" fill="white" fill-opacity="0.4"/>
<path d="M237.999 14.9598L346.953 24.0725L211.307 0.333374L155.736 10.9708L128.607 27.3701L99.7272 24.0725L80.9118 31.8023L67.9531 42.3334L119.855 38.0075H160.549L180.677 12.7437L211.307 7.42497L237.999 14.9598Z" fill="white" fill-opacity="0.4"/>
</svg>
