<svg width="244" height="67" viewBox="0 0 244 67" fill="none" xmlns="http://www.w3.org/2000/svg">
<path d="M5.48315 58.7589L0 55.5952L2.74157 52.4316L8.22472 53.4861L16.4494 39.7771L31.5281 36.6134L53.4607 9.19524L101.438 0.758881L134.337 7.08615L150.787 17.6316L168.607 15.5225L179.573 20.0922L187.798 26.068V36.6134L204.247 34.5043H216.584L220.697 42.9407L224.809 49.268H237.146L244 55.5952H233.034H224.809L211.101 58.7589L204.247 55.5952L187.798 58.7589H174.09L154.899 55.5952L141.191 58.7589L134.337 55.5952L101.438 63.7589L86.3596 66.5208H47L24.6742 55.5952L5.48315 58.7589Z" fill="white" fill-opacity="0.4"/>
<path d="M23.125 44.7589L8 55.7589L16.25 41.4589L31.375 38.1589L53.375 9.55888L101.5 0.758881L134.5 7.35888L151 18.3589L124.875 11.7589L101.5 9.55888L74 18.3589L39.625 41.4589L23.125 44.7589Z" fill="white" fill-opacity="0.4"/>
</svg>
