<svg width="103" height="596" viewBox="0 0 103 596" fill="none" xmlns="http://www.w3.org/2000/svg">
<path fill-rule="evenodd" clip-rule="evenodd" d="M45.5167 579.856C46.6096 580.407 47.8127 580.809 49.0899 581.031L50.2669 583.548L52.4757 583.374L52.8485 581.153C54.2437 581.004 55.5639 580.643 56.7653 580.107L59.0149 581.747L62.1539 579.277L61.2146 576.759L61.0624 576.85C62.3472 575.26 63.1315 573.337 63.2149 571.259C74.8925 567.332 83.1626 557.57 83.1626 546.149C83.1626 531.262 69.1099 519.193 51.775 519.193C34.4401 519.193 20.3874 531.262 20.3874 546.149C20.3874 557.326 28.3072 566.913 39.5899 570.999C39.6166 573.26 40.4729 575.348 41.9052 577.039L40.6867 579.488L43.0695 581.522L45.5167 579.856Z" fill="url(#paint0_linear_2065_1303)"/>
<path fill-rule="evenodd" clip-rule="evenodd" d="M60.3795 578.314C59.3622 578.431 57.2182 576.939 55.2208 574.652C53.2234 572.364 52.0351 570.038 52.2875 569.046L52.205 568.951L51.4851 560.266L68.9707 580.294L60.4621 578.409L60.3795 578.314Z" fill="url(#paint1_linear_2065_1303)"/>
<path fill-rule="evenodd" clip-rule="evenodd" d="M70.0537 579.839C70.0519 579.841 70.05 579.842 70.0481 579.844C68.3582 581.319 62.9653 577.907 58.0026 572.223C53.04 566.539 50.3869 560.735 52.0768 559.259L52.0768 559.259L54.0239 557.559L56.0778 559.912C58.4055 561.206 61.3319 563.684 64.1223 566.88C66.9127 570.076 68.9729 573.31 69.9415 575.791L71.9953 578.144L70.0537 579.839Z" fill="url(#paint2_linear_2065_1303)"/>
<ellipse cx="62.7314" cy="568.094" rx="13.6628" ry="4.06193" transform="rotate(-131.123 62.7314 568.094)" fill="url(#paint3_linear_2065_1303)"/>
<path fill-rule="evenodd" clip-rule="evenodd" d="M76.3006 578.448C73.3187 578.349 67.6957 574.342 62.4531 568.337C57.0181 562.112 53.7663 555.771 54.3516 552.938L55.1141 545.333L63.8028 555.285C65.8739 556.944 68.0899 559.073 70.2418 561.537C72.3938 564.002 74.2034 566.485 75.5681 568.761L85.2282 579.826L76.3006 578.448Z" fill="url(#paint4_linear_2065_1303)"/>
<path fill-rule="evenodd" clip-rule="evenodd" d="M87.6259 579.203C87.6259 579.203 87.6259 579.203 87.6259 579.203C84.5533 581.886 74.7775 575.716 65.7911 565.423C56.8047 555.13 52.0106 544.611 55.0832 541.929C55.0857 541.926 55.0883 541.924 55.0908 541.922L60.0903 537.557L69.2609 548.061C71.763 550.208 74.3722 552.793 76.9179 555.709C79.4637 558.625 81.673 561.559 83.4623 564.328L92.633 574.832L87.6259 579.203L87.6259 579.203Z" fill="url(#paint5_linear_2065_1303)"/>
<path fill-rule="evenodd" clip-rule="evenodd" d="M62.5043 536.953C61.4935 536.859 60.672 537.049 60.0905 537.557C57.0179 540.24 61.812 550.758 70.7985 561.052C79.7849 571.345 89.5606 577.514 92.6332 574.832C93.2147 574.324 93.5144 573.536 93.5573 572.522L93.5736 572.54L93.5605 572.429C93.5786 571.75 93.485 570.973 93.2869 570.114L92.5756 564.098L86.7422 557.416C85.32 555.423 83.7048 553.376 81.9252 551.337C80.1457 549.299 78.3351 547.422 76.5518 545.744L70.7185 539.063L64.8533 537.546C64.0287 537.234 63.2714 537.036 62.5961 536.962L62.4881 536.934L62.5043 536.953Z" fill="url(#paint6_linear_2065_1303)"/>
<ellipse cx="79.9779" cy="553.037" rx="18.094" ry="5.53899" transform="rotate(-131.123 79.9779 553.037)" fill="url(#paint7_linear_2065_1303)"/>
<path d="M90.964 576.289L91.516 579.729L89.847 581.186C89.3495 580.803 88.1117 579.76 87.1403 578.647C86.8365 576.951 89.5629 576.369 90.964 576.289Z" fill="#9B5823"/>
<path d="M84.7823 574.823C84.7541 575.24 84.5145 576.201 84.3982 576.629L82.451 578.329L80.4376 577.146C80.0446 576.509 79.641 574.998 81.1705 574.055C83.0823 572.876 84.8177 574.302 84.7823 574.823Z" fill="#9B5823"/>
<path d="M75.6201 567.136C76.5915 568.249 76.069 569.522 75.6864 570.019L73.7392 571.719C73.4036 571.522 72.4896 570.85 71.5182 569.737C70.5468 568.624 71.4166 567.375 71.9729 566.889C72.7839 566.508 74.6487 566.023 75.6201 567.136Z" fill="#9B5823"/>
<path d="M65.7956 561.498C64.6829 562.469 63.4568 561.252 62.9829 560.522C61.8172 559.187 63.1712 557.743 63.994 557.188C64.4576 556.783 65.572 556.301 66.3209 557.608C67.257 559.241 67.1864 560.283 65.7956 561.498Z" fill="#9B5823"/>
<path d="M60.5983 549.369C60.8059 550.168 60.4924 550.932 59.1015 552.146C58.6688 552.549 57.8792 552.243 57.5385 552.04L56.3948 549.607L57.5428 548.115C57.9019 547.964 58.78 547.623 59.4194 547.457C60.2186 547.249 60.3908 548.569 60.5983 549.369Z" fill="#9B5823"/>
<path d="M55.4674 540.123L58.4876 541.898C58.5689 543.787 56.6199 544.999 55.6353 545.368L53.5202 541.823L55.4674 540.123Z" fill="#9B5823"/>
<path d="M81.8904 582.74L82.1376 579.093C80.5268 578.146 78.3402 578.487 77.4483 578.775L79.0071 582.806L81.8904 582.74Z" fill="#9B5823"/>
<path d="M73.7658 579.049L75.819 575.786C73.2933 572.893 71.1783 573.465 70.4365 574.113L71.9599 578.665L73.7658 579.049Z" fill="#9B5823"/>
<path d="M63.875 570.527L66.7936 569.94C67.6872 566.023 64.5755 565.341 62.9079 565.489L62.175 568.58L63.875 570.527Z" fill="#9B5823"/>
<path d="M55.4104 560.27L58.7794 560.76C60.3654 558.984 58.9809 556.5 58.0905 555.48L55.0659 557.63L55.4104 560.27Z" fill="#9B5823"/>
<path d="M54.867 548.98C55.1426 551.092 54.6081 552.801 54.3064 553.391L51.2508 552.137L51.7056 549.289C52.0529 549.313 53.1715 549.284 54.867 548.98Z" fill="#9B5823"/>
<path d="M63.0981 581.99L65.637 579.283C62.6379 577.196 60.6607 576.765 60.0469 576.811L59.7644 580.979L63.0981 581.99Z" fill="#9B5823"/>
<path d="M54.1787 574.581L58.1394 574.064C57.281 571.284 55.5386 569.962 54.7747 569.649L53.7658 571.02L52.7569 572.391L54.1787 574.581Z" fill="#9B5823"/>
<path d="M49.4629 566.933L52.5184 568.187C54.2422 567.467 52.9393 564.552 52.0723 563.185L48.8402 564.536L49.4629 566.933Z" fill="#9B5823"/>
<path fill-rule="evenodd" clip-rule="evenodd" d="M41.985 578.314C43.0024 578.431 45.1463 576.939 47.1437 574.652C49.141 572.364 50.3293 570.038 50.077 569.046L50.1596 568.951L50.8795 560.266L33.3938 580.294L41.9025 578.409L41.985 578.314Z" fill="url(#paint8_linear_2065_1303)"/>
<path fill-rule="evenodd" clip-rule="evenodd" d="M32.3115 579.839C32.3131 579.841 32.3147 579.842 32.3164 579.844C34.0063 581.319 39.3992 577.907 44.3619 572.223C49.3245 566.539 51.9776 560.735 50.2877 559.259L50.2877 559.259L48.3406 557.559L46.2867 559.912C43.959 561.206 41.0326 563.684 38.2422 566.88C35.4518 570.076 33.3916 573.31 32.423 575.791L30.3692 578.144L32.3115 579.839Z" fill="url(#paint9_linear_2065_1303)"/>
<ellipse cx="13.6628" cy="4.06193" rx="13.6628" ry="4.06193" transform="matrix(0.657673 -0.753304 -0.753304 -0.657673 33.7073 581.058)" fill="url(#paint10_linear_2065_1303)"/>
<path fill-rule="evenodd" clip-rule="evenodd" d="M26.0639 578.448C29.0458 578.349 34.6688 574.342 39.9114 568.337C45.3464 562.112 48.5982 555.771 48.0129 552.938L47.2504 545.333L38.5617 555.285C36.4906 556.944 34.2746 559.072 32.1227 561.537C29.9707 564.002 28.1611 566.485 26.7964 568.761L17.1363 579.826L26.0639 578.448Z" fill="url(#paint11_linear_2065_1303)"/>
<path fill-rule="evenodd" clip-rule="evenodd" d="M14.7262 579.193C14.7303 579.196 14.7343 579.2 14.7384 579.203C17.8109 581.886 27.5867 575.716 36.5731 565.423C45.5595 555.13 50.3537 544.611 47.2811 541.929L47.2811 541.928L42.2741 537.557L33.1038 548.061C30.6015 550.207 27.9923 552.793 25.4463 555.709C22.9004 558.625 20.691 561.559 18.9016 564.328L9.73136 574.832L14.7262 579.193Z" fill="url(#paint12_linear_2065_1303)"/>
<path fill-rule="evenodd" clip-rule="evenodd" d="M39.8601 536.953C40.871 536.859 41.6925 537.049 42.274 537.557C45.3466 540.24 40.5525 550.758 31.566 561.052C22.5796 571.345 12.8039 577.514 9.73129 574.832C9.1498 574.324 8.85006 573.536 8.80718 572.521L8.79084 572.54L8.80399 572.429C8.7859 571.75 8.87949 570.973 9.0776 570.115L9.78891 564.098L15.6226 557.416C17.0447 555.423 18.6598 553.375 20.4393 551.337C22.2187 549.299 24.0291 547.423 25.8123 545.744L31.646 539.063L37.5118 537.546C38.336 537.234 39.0929 537.036 39.768 536.962L39.8764 536.934L39.8601 536.953Z" fill="url(#paint13_linear_2065_1303)"/>
<ellipse cx="18.094" cy="5.53899" rx="18.094" ry="5.53899" transform="matrix(0.657673 -0.753304 -0.753304 -0.657673 14.6592 570.31)" fill="url(#paint14_linear_2065_1303)"/>
<path d="M11.4005 576.289L10.8485 579.729L12.5175 581.186C13.015 580.803 14.2528 579.76 15.2242 578.647C15.528 576.951 12.8017 576.368 11.4005 576.289Z" fill="#9B5823"/>
<path d="M17.5822 574.823C17.6104 575.24 17.85 576.201 17.9663 576.629L19.9135 578.329L21.9269 577.146C22.3199 576.508 22.7235 574.998 21.194 574.055C19.2822 572.876 17.5469 574.302 17.5822 574.823Z" fill="#9B5823"/>
<path d="M26.7444 567.136C25.773 568.249 26.2955 569.522 26.6781 570.019L28.6253 571.719C28.9609 571.522 29.8749 570.849 30.8463 569.737C31.8178 568.624 30.9479 567.374 30.3916 566.889C29.5806 566.508 27.7158 566.023 26.7444 567.136Z" fill="#9B5823"/>
<path d="M36.5689 561.498C37.6816 562.469 38.9077 561.252 39.3816 560.522C40.5473 559.187 39.1933 557.743 38.3705 557.188C37.9069 556.783 36.7925 556.301 36.0436 557.608C35.1075 559.241 35.1781 560.283 36.5689 561.498Z" fill="#9B5823"/>
<path d="M41.7662 549.368C41.5586 550.168 41.8721 550.932 43.263 552.146C43.6957 552.549 44.4853 552.243 44.826 552.04L45.9697 549.607L44.8217 548.115C44.4626 547.964 43.5845 547.623 42.9451 547.457C42.146 547.249 41.9737 548.569 41.7662 549.368Z" fill="#9B5823"/>
<path d="M46.8971 540.123L43.8769 541.898C43.7956 543.787 45.7446 544.999 46.7292 545.368L48.8443 541.823L46.8971 540.123Z" fill="#9B5823"/>
<path d="M20.4741 582.74L20.2269 579.093C21.8377 578.146 24.0243 578.487 24.9162 578.775L23.3574 582.806L20.4741 582.74Z" fill="#9B5823"/>
<path d="M28.5987 579.049L26.5455 575.786C29.0712 572.893 31.1862 573.465 31.928 574.113L30.4046 578.665L28.5987 579.049Z" fill="#9B5823"/>
<path d="M38.4895 570.527L35.5709 569.94C34.6773 566.023 37.789 565.341 39.4566 565.489L40.1895 568.58L38.4895 570.527Z" fill="#9B5823"/>
<path d="M46.9541 560.27L43.5851 560.76C41.9991 558.984 43.3836 556.499 44.274 555.479L47.2986 557.63L46.9541 560.27Z" fill="#9B5823"/>
<path d="M47.4975 548.98C47.2219 551.092 47.7564 552.801 48.0581 553.391L51.1137 552.137L50.6589 549.289C50.3116 549.313 49.193 549.284 47.4975 548.98Z" fill="#9B5823"/>
<path d="M39.2664 581.99L36.7275 579.283C39.7266 577.196 41.7038 576.765 42.3176 576.811L42.6001 580.979L39.2664 581.99Z" fill="#9B5823"/>
<path d="M48.1858 574.581L44.2251 574.064C45.0835 571.284 46.8259 569.962 47.5898 569.649L48.5987 571.02L49.6076 572.391L48.1858 574.581Z" fill="#9B5823"/>
<path d="M52.9016 566.933L49.8461 568.187C48.1223 567.467 49.4252 564.552 50.2922 563.185L53.5243 564.536L52.9016 566.933Z" fill="#9B5823"/>
<ellipse cx="52" cy="491" rx="30" ry="3" transform="rotate(-180 52 491)" fill="url(#paint15_linear_2065_1303)"/>
<path d="M22 524L22 491C22 491 23 494 52 494C81 494 82 491 82 491L82 524C82 525.657 80.6569 527 79 527L25 527C23.3431 527 22 525.657 22 524Z" fill="url(#paint16_linear_2065_1303)"/>
<path d="M90.9173 519.562L93.4458 560.378C93.4832 560.983 93.4572 561.6 93.2808 562.179C90.66 570.791 78.5775 557.885 72.2863 548.248C71.4102 546.906 71.1291 545.283 71.256 543.685C71.8747 535.895 69.753 530.388 67.6288 527.236C66.4484 525.485 65.438 523.504 65.438 521.392L65.438 502.19C65.438 498.324 68.572 495.19 72.438 495.19L75.6185 495.19C77.1584 495.19 78.6554 495.698 79.8775 496.635L86.7192 501.88C88.2225 503.033 89.1945 504.746 89.4133 506.627L90.9173 519.562Z" fill="url(#paint17_linear_2065_1303)"/>
<path d="M13.0021 519.562L10.4737 560.378C10.4362 560.983 10.4622 561.6 10.6386 562.179C13.2594 570.791 25.342 557.885 31.6331 548.248C32.5092 546.906 32.7903 545.283 32.6634 543.685C32.0447 535.895 34.1664 530.388 36.2906 527.236C37.4711 525.485 38.4815 523.504 38.4815 521.392L38.4815 502.19C38.4815 498.324 35.3475 495.19 31.4815 495.19L28.301 495.19C26.761 495.19 25.2641 495.698 24.042 496.635L17.2003 501.88C15.697 503.033 14.7249 504.746 14.5061 506.627L13.0021 519.562Z" fill="url(#paint18_linear_2065_1303)"/>
<ellipse cx="51.6971" cy="527.686" rx="13.2936" ry="2.58486" transform="rotate(-180 51.6971 527.686)" fill="url(#paint19_linear_2065_1303)"/>
<ellipse cx="7.38532" cy="1.1078" rx="7.38532" ry="1.1078" transform="matrix(-1 -5.82818e-08 -1.31134e-07 1 59.0825 526.578)" fill="url(#paint20_linear_2065_1303)"/>
<path d="M37.5 435L67.5 435L73.8675 489.859C73.9496 490.565 73.6061 491.194 72.9129 491.354C70.9905 491.798 65.8406 492.5 52.5 492.5C39.1594 492.5 34.0095 491.798 32.0871 491.354C31.3939 491.194 31.0504 490.565 31.1325 489.859L37.5 435Z" fill="url(#paint21_linear_2065_1303)"/>
<rect x="28" y="9" width="47" height="461" fill="url(#paint22_linear_2065_1303)"/>
<path fill-rule="evenodd" clip-rule="evenodd" d="M32.1549 328.155H70.8451V366.845H32.1549V334.372C35.9642 334.204 45.353 336.363 54.8428 345.147C64.464 354.052 65.9559 362.759 65.4992 366C66.6663 361.209 66.3674 349.175 58.2077 341.623C48.855 332.967 37.8349 333.708 32.1549 334.362V328.155ZM31 368V327H72V368H31ZM36.5749 347.683V353.601H39.6195V347.683H42.0553V345.147H34.1391V347.683H36.5749ZM40.5329 358.391V349.937H44.6432L45.8611 354.587L46.7745 349.937H50.8848V358.391H48.2968V352.192L46.9267 358.391H44.6432L43.1209 352.192V358.391H40.5329ZM52.1026 363.182V355.01H54.8428V358.25L56.5174 355.01H60.0188L57.2786 358.814L60.0188 363.182H56.8219L54.8428 359.8V363.182H52.1026Z" fill="white"/>
<path d="M24 479.566C24 480.984 24.9903 482.198 26.3928 482.412C30.2302 482.997 38.6101 484 51 484C63.5412 484 72.4873 482.973 76.5504 482.391C77.9762 482.186 79 480.958 79 479.517V465.625C79 463.743 77.2822 462.3 75.4166 462.547C70.9498 463.139 62.4815 464 51 464C39.8164 464 31.9 463.183 27.6423 462.594C25.7548 462.332 24 463.792 24 465.697V479.566Z" fill="url(#paint23_linear_2065_1303)"/>
<path d="M24 248.566C24 249.984 24.9903 251.198 26.3928 251.412C30.2302 251.997 38.6101 253 51 253C63.5412 253 72.4873 251.973 76.5504 251.391C77.9762 251.186 79 249.958 79 248.517V234.625C79 232.743 77.2822 231.3 75.4166 231.547C70.9498 232.139 62.4815 233 51 233C39.8164 233 31.9 232.183 27.6423 231.594C25.7548 231.332 24 232.792 24 234.697V248.566Z" fill="url(#paint24_linear_2065_1303)"/>
<path d="M24 17.5658C24 18.9845 24.9903 20.198 26.3928 20.412C30.2302 20.9975 38.6101 22 51 22C63.5412 22 72.4873 20.9729 76.5504 20.3908C77.9762 20.1865 79 18.9579 79 17.5175V3.62537C79 1.74344 77.2822 0.299641 75.4166 0.546959C70.9498 1.13911 62.4815 2 51 2C39.8164 2 31.9 1.18319 27.6423 0.593565C25.7548 0.332172 24 1.79182 24 3.69734V17.5658Z" fill="url(#paint25_linear_2065_1303)"/>
<defs>
<linearGradient id="paint0_linear_2065_1303" x1="83.1626" y1="551.37" x2="20.3874" y2="551.37" gradientUnits="userSpaceOnUse">
<stop stop-color="#271507"/>
<stop offset="1" stop-color="#7F370F"/>
</linearGradient>
<linearGradient id="paint1_linear_2065_1303" x1="51.841" y1="569.71" x2="67.4153" y2="581.65" gradientUnits="userSpaceOnUse">
<stop offset="0.124999" stop-color="#76370A"/>
<stop offset="1" stop-color="#D48D4F"/>
</linearGradient>
<linearGradient id="paint2_linear_2065_1303" x1="52.0875" y1="560.365" x2="67.5852" y2="578.31" gradientUnits="userSpaceOnUse">
<stop offset="0.124999" stop-color="#76370A"/>
<stop offset="0.592505" stop-color="#FFA65E"/>
<stop offset="1" stop-color="#D48D4F"/>
</linearGradient>
<linearGradient id="paint3_linear_2065_1303" x1="49.0686" y1="568.094" x2="76.3943" y2="568.094" gradientUnits="userSpaceOnUse">
<stop stop-color="#271507"/>
<stop offset="1" stop-color="#7F370F"/>
</linearGradient>
<linearGradient id="paint4_linear_2065_1303" x1="52.0122" y1="549.909" x2="77.9298" y2="580.024" gradientUnits="userSpaceOnUse">
<stop offset="0.124999" stop-color="#76370A"/>
<stop offset="0.592505" stop-color="#FFA65E"/>
<stop offset="1" stop-color="#D48D4F"/>
</linearGradient>
<linearGradient id="paint5_linear_2065_1303" x1="55.0985" y1="543.934" x2="83.1627" y2="576.429" gradientUnits="userSpaceOnUse">
<stop offset="0.124999" stop-color="#76370A"/>
<stop offset="0.592505" stop-color="#FFA65E"/>
<stop offset="1" stop-color="#D48D4F"/>
</linearGradient>
<linearGradient id="paint6_linear_2065_1303" x1="64.6997" y1="551.688" x2="93.1331" y2="574.952" gradientUnits="userSpaceOnUse">
<stop offset="0.124999" stop-color="#76370A"/>
<stop offset="1" stop-color="#D48D4F"/>
</linearGradient>
<linearGradient id="paint7_linear_2065_1303" x1="61.8839" y1="553.037" x2="98.072" y2="553.037" gradientUnits="userSpaceOnUse">
<stop stop-color="#271507"/>
<stop offset="1" stop-color="#7F370F"/>
</linearGradient>
<linearGradient id="paint8_linear_2065_1303" x1="50.5235" y1="569.71" x2="34.9492" y2="581.65" gradientUnits="userSpaceOnUse">
<stop offset="0.124999" stop-color="#76370A"/>
<stop offset="1" stop-color="#D48D4F"/>
</linearGradient>
<linearGradient id="paint9_linear_2065_1303" x1="50.277" y1="560.365" x2="34.7793" y2="578.31" gradientUnits="userSpaceOnUse">
<stop offset="0.124999" stop-color="#76370A"/>
<stop offset="0.592505" stop-color="#FFA65E"/>
<stop offset="1" stop-color="#D48D4F"/>
</linearGradient>
<linearGradient id="paint10_linear_2065_1303" x1="0" y1="4.06193" x2="27.3257" y2="4.06193" gradientUnits="userSpaceOnUse">
<stop stop-color="#271507"/>
<stop offset="1" stop-color="#7F370F"/>
</linearGradient>
<linearGradient id="paint11_linear_2065_1303" x1="50.3523" y1="549.909" x2="24.4347" y2="580.024" gradientUnits="userSpaceOnUse">
<stop offset="0.124999" stop-color="#76370A"/>
<stop offset="0.592505" stop-color="#FFA65E"/>
<stop offset="1" stop-color="#D48D4F"/>
</linearGradient>
<linearGradient id="paint12_linear_2065_1303" x1="47.2658" y1="543.934" x2="19.2015" y2="576.429" gradientUnits="userSpaceOnUse">
<stop offset="0.124999" stop-color="#76370A"/>
<stop offset="0.592505" stop-color="#FFA65E"/>
<stop offset="1" stop-color="#D48D4F"/>
</linearGradient>
<linearGradient id="paint13_linear_2065_1303" x1="37.6648" y1="551.688" x2="9.23136" y2="574.952" gradientUnits="userSpaceOnUse">
<stop offset="0.124999" stop-color="#76370A"/>
<stop offset="1" stop-color="#D48D4F"/>
</linearGradient>
<linearGradient id="paint14_linear_2065_1303" x1="0" y1="5.53899" x2="36.1881" y2="5.53899" gradientUnits="userSpaceOnUse">
<stop stop-color="#271507"/>
<stop offset="1" stop-color="#7F370F"/>
</linearGradient>
<linearGradient id="paint15_linear_2065_1303" x1="65.4166" y1="488.635" x2="29.3967" y2="506.798" gradientUnits="userSpaceOnUse">
<stop offset="0.124999" stop-color="#76370A"/>
<stop offset="1" stop-color="#D48D4F"/>
</linearGradient>
<linearGradient id="paint16_linear_2065_1303" x1="81.9452" y1="505.702" x2="-0.293834" y2="505.702" gradientUnits="userSpaceOnUse">
<stop offset="0.124999" stop-color="#76370A"/>
<stop offset="1" stop-color="#D48D4F"/>
</linearGradient>
<linearGradient id="paint17_linear_2065_1303" x1="79.4701" y1="495.19" x2="79.4701" y2="565.008" gradientUnits="userSpaceOnUse">
<stop offset="0.124999" stop-color="#76370A"/>
<stop offset="1" stop-color="#D48D4F"/>
</linearGradient>
<linearGradient id="paint18_linear_2065_1303" x1="24.4494" y1="495.19" x2="24.4493" y2="565.008" gradientUnits="userSpaceOnUse">
<stop offset="0.124999" stop-color="#76370A"/>
<stop offset="1" stop-color="#D48D4F"/>
</linearGradient>
<linearGradient id="paint19_linear_2065_1303" x1="57.6423" y1="525.648" x2="38.8844" y2="530.513" gradientUnits="userSpaceOnUse">
<stop offset="0.124999" stop-color="#76370A"/>
<stop offset="1" stop-color="#D48D4F"/>
</linearGradient>
<linearGradient id="paint20_linear_2065_1303" x1="0" y1="1.1078" x2="14.7706" y2="1.1078" gradientUnits="userSpaceOnUse">
<stop stop-color="#271507"/>
<stop offset="1" stop-color="#7F370F"/>
</linearGradient>
<linearGradient id="paint21_linear_2065_1303" x1="75.4147" y1="491" x2="25.146" y2="491" gradientUnits="userSpaceOnUse">
<stop offset="0.124999" stop-color="#76370A"/>
<stop offset="1" stop-color="#D48D4F"/>
</linearGradient>
<linearGradient id="paint22_linear_2065_1303" x1="28" y1="31.8423" x2="75" y2="31.8423" gradientUnits="userSpaceOnUse">
<stop stop-color="#EF6C00"/>
<stop offset="0.166784" stop-color="#E47B24"/>
<stop offset="0.423791" stop-color="#AE4F00"/>
<stop offset="0.74182" stop-color="#893E00"/>
<stop offset="0.892003" stop-color="#964401"/>
<stop offset="1" stop-color="#DA6403"/>
</linearGradient>
<linearGradient id="paint23_linear_2065_1303" x1="24" y1="481.009" x2="79" y2="481.009" gradientUnits="userSpaceOnUse">
<stop stop-color="#EF6C00"/>
<stop offset="0.166784" stop-color="#E47B24"/>
<stop offset="0.423791" stop-color="#AE4F00"/>
<stop offset="0.74182" stop-color="#893E00"/>
<stop offset="0.892003" stop-color="#964401"/>
<stop offset="1" stop-color="#DA6403"/>
</linearGradient>
<linearGradient id="paint24_linear_2065_1303" x1="24" y1="250.009" x2="79" y2="250.009" gradientUnits="userSpaceOnUse">
<stop stop-color="#EF6C00"/>
<stop offset="0.166784" stop-color="#E47B24"/>
<stop offset="0.423791" stop-color="#AE4F00"/>
<stop offset="0.74182" stop-color="#893E00"/>
<stop offset="0.892003" stop-color="#964401"/>
<stop offset="1" stop-color="#DA6403"/>
</linearGradient>
<linearGradient id="paint25_linear_2065_1303" x1="24" y1="19.009" x2="79" y2="19.009" gradientUnits="userSpaceOnUse">
<stop stop-color="#EF6C00"/>
<stop offset="0.166784" stop-color="#E47B24"/>
<stop offset="0.423791" stop-color="#AE4F00"/>
<stop offset="0.74182" stop-color="#893E00"/>
<stop offset="0.892003" stop-color="#964401"/>
<stop offset="1" stop-color="#DA6403"/>
</linearGradient>
</defs>
</svg>
