<svg width="1440" height="757" viewBox="0 0 1440 757" fill="none" xmlns="http://www.w3.org/2000/svg">
<rect width="1440" height="716" fill="url(#paint0_linear_278_374)"/>
<path d="M251.048 110.68L260 105.46L255.524 100.24L246.572 101.98L233.144 79.36L208.526 74.14L173.004 68.92L94.6741 55L40.9623 65.44L14.1064 82.84L-14.9874 79.36L-32.8913 86.9L-46.3193 96.76L-22.2424 105.46L-49.0983 101.98H-69.2402L-75.9542 115.9L-82.6682 126.34H-102.81L-114 136.78H-96.0961H-82.6682L-60.2882 142L-49.0983 136.78L-22.2424 142H0.137451L31.4693 136.78L53.8492 142L65.0392 136.78L101.388 127.914L126.006 132.471H173.004L219.716 105.46L251.048 110.68Z" fill="white" fill-opacity="0.4"/>
<path d="M123.046 69.6264L232 78.7391L96.3539 55L40.7828 65.6374L13.6536 82.0367L-15.2259 78.7391L-34.0413 86.469L-47 97L4.90224 92.6741H45.5961L65.7242 67.4103L96.3539 62.0916L123.046 69.6264Z" fill="white" fill-opacity="0.4"/>
<path d="M300.674 479L294 475.127L297.337 471.255L304.011 472.545L314.022 455.764L332.376 451.891L359.073 418.327L417.472 408L457.517 415.745L477.539 428.655L499.23 426.073L512.579 431.667L522.59 438.982V451.891L542.612 449.309H557.629L562.635 459.636L567.64 467.382H582.657L591 475.127H577.652H567.64L550.955 479L542.612 475.127L522.59 479H505.904L482.545 475.127L465.86 479L457.517 475.127L412.466 462.095L394.112 465.476H359.073L324.034 475.127L300.674 479Z" fill="white" fill-opacity="0.4"/>
<path d="M322.404 461.6L304 475L314.038 457.58L332.442 453.56L359.212 418.72L417.769 408L457.923 416.04L478 429.44L446.212 421.4L417.769 418.72L384.308 429.44L342.481 457.58L322.404 461.6Z" fill="white" fill-opacity="0.4"/>
<path d="M833.401 122.48L825 117.56L829.201 112.64L837.602 114.28L850.204 92.96L873.308 88.04L906.646 83.12L980.159 70L1030.57 79.84L1055.77 96.24L1068.5 86.9467H1090.5L1100.62 95.38L1096.5 104.44L1111.71 118.16H1130.61L1136.91 131.28L1143.21 141.12L1166.3 131.28L1176.8 141.12H1160L1143.21 150.96L1122.21 155.88L1111.71 150.96L1096.5 138.88H1075.5L1030.57 126L1009.56 130.92L999.062 126L964.949 117.644L941.845 121.939L906.646 143.019L862.806 117.56L833.401 122.48Z" fill="white" fill-opacity="0.4"/>
<path d="M861.273 97.0769L838 114L850.695 92L873.968 86.9231L906.782 83.5385L980.833 70L1031.61 80.1538L1057 97.0769L1016.8 86.9231L980.833 83.5385L938.518 97.0769L886.662 92L861.273 97.0769Z" fill="white" fill-opacity="0.4"/>
<path d="M1210.48 260L1205 256.836L1207.74 253.673L1213.22 254.727L1221.45 241.018L1236.53 237.855L1258.46 210.436L1306.44 202L1339.34 208.327L1355.79 218.873L1373.61 216.764L1384.57 221.333L1392.8 227.309V237.855L1409.25 235.745H1421.58L1425.7 244.182L1429.81 250.509H1442.15L1449 256.836H1438.03H1429.81L1416.1 260L1409.25 256.836L1392.8 260H1379.09L1359.9 256.836L1346.19 260L1339.34 256.836L1306.44 265L1291.36 267.762H1252L1229.67 256.836L1210.48 260Z" fill="white" fill-opacity="0.4"/>
<path d="M1228.12 246L1213 257L1221.25 242.7L1236.38 239.4L1258.38 210.8L1306.5 202L1339.5 208.6L1356 219.6L1329.88 213L1306.5 210.8L1279 219.6L1244.62 242.7L1228.12 246Z" fill="white" fill-opacity="0.4"/>
<path d="M196.5 717.5L0 677.286V737H178H619.214L1169.5 717.5H1449L1449 652.143L1363.5 601.857L1300.45 677.286L1220 601.857L773.767 664.714L714.5 618.5L644 677.286L196.5 717.5Z" fill="#769B76"/>
<path d="M-5.5 756.5V726L0.5 720L271 731L691.5 715.5H1243.5H1303.5L1446 723.5L1457 756.5L1321 741.5L1182 756.5L1146.5 731L1071.5 741.5L1063 748.5H1033L1016.5 731L973 741.5L950.5 748.5L934 731L915.5 748.5L807 731L771 756.5L757.5 741.5L748 756.5L738 741.5H691.5L665.5 748.5L497.5 741.5L482 748.5L465.5 741.5L443.5 756.5L424 741.5L375.5 748.5L226 741.5L190 756.5L149.5 741.5L62 756.5L39 741.5L-5.5 756.5Z" fill="#23231E"/>
<path d="M327.646 139.511L335.258 135.116L342.87 139.511V148.301L335.258 152.696L327.646 148.301V139.511Z" stroke="#DBF7FF"/>
<circle cx="335.254" cy="143.906" r="4.18349" stroke="#DBF7FF"/>
<path d="M327.646 139.511L335.258 135.116L342.87 139.511V148.301L335.258 152.696L327.646 148.301V139.511Z" stroke="#DBF7FF"/>
<circle cx="335.254" cy="143.906" r="4.18349" stroke="#DBF7FF"/>
<path d="M327.646 358.698L335.258 354.304L342.87 358.698V367.488L335.258 371.883L327.646 367.488V358.698Z" stroke="#DBF7FF"/>
<circle cx="335.254" cy="363.093" r="4.18349" stroke="#DBF7FF"/>
<path d="M410.475 167.515L418.965 169.79L421.24 178.28L415.025 184.495L406.535 182.221L404.26 173.73L410.475 167.515Z" stroke="#DBF7FF"/>
<circle cx="412.75" cy="176.005" r="4.18349" transform="rotate(45 412.75 176.005)" stroke="#DBF7FF"/>
<path d="M255.491 322.504L263.981 324.779L266.256 333.269L260.041 339.484L251.55 337.209L249.275 328.719L255.491 322.504Z" stroke="#DBF7FF"/>
<circle cx="257.766" cy="330.994" r="4.18349" transform="rotate(45 257.766 330.994)" stroke="#DBF7FF"/>
<path d="M449.247 245.888L453.641 253.5L449.247 261.112H440.457L436.062 253.5L440.457 245.888H449.247Z" stroke="#DBF7FF"/>
<circle cx="444.856" cy="253.5" r="4.18349" transform="rotate(90 444.856 253.5)" stroke="#DBF7FF"/>
<path d="M230.059 245.888L234.454 253.5L230.059 261.112H221.269L216.875 253.5L221.269 245.888H230.059Z" stroke="#DBF7FF"/>
<circle cx="225.66" cy="253.5" r="4.18349" transform="rotate(90 225.66 253.5)" stroke="#DBF7FF"/>
<path d="M421.243 328.719L418.968 337.209L410.478 339.484L404.263 333.269L406.538 324.779L415.028 322.504L421.243 328.719Z" stroke="#DBF7FF"/>
<circle cx="412.752" cy="330.994" r="4.18349" transform="rotate(135 412.752 330.994)" stroke="#DBF7FF"/>
<path d="M266.251 173.73L263.976 182.221L255.486 184.496L249.271 178.28L251.546 169.79L260.036 167.515L266.251 173.73Z" stroke="#DBF7FF"/>
<circle cx="257.759" cy="176.005" r="4.18349" transform="rotate(135 257.759 176.005)" stroke="#DBF7FF"/>
<circle cx="334.317" cy="253.5" r="94.1065" stroke="#DBF7FF"/>
<circle cx="334.324" cy="253.5" r="123.144" stroke="#DBF7FF"/>
<path d="M335.258 158.893V25.8821" stroke="#DBF7FF"/>
<path d="M335.258 481.117V348.106" stroke="#DBF7FF"/>
<path d="M429.864 253.5L562.875 253.5" stroke="#DBF7FF"/>
<path d="M107.637 253.5L240.648 253.5" stroke="#DBF7FF"/>
<path d="M378.972 209.785L440.57 148.187" stroke="#DBF7FF"/>
<path d="M229.949 358.813L291.547 297.215" stroke="#DBF7FF"/>
<path d="M378.972 297.214L440.57 358.812" stroke="#DBF7FF"/>
<path d="M229.949 148.187L291.547 209.785" stroke="#DBF7FF"/>
<path d="M516.447 183.877L771.758 85.7722" stroke="#DBF7FF"/>
<path d="M-101.241 421.228L154.07 323.123" stroke="#DBF7FF"/>
<path d="M404.879 434.689L502.984 690" stroke="#DBF7FF"/>
<path d="M167.528 -183L265.633 72.3113" stroke="#DBF7FF"/>
<path d="M265.636 434.689L167.531 690" stroke="#DBF7FF"/>
<path d="M502.988 -183L404.883 72.3113" stroke="#DBF7FF"/>
<path d="M516.447 323.123L771.758 421.228" stroke="#DBF7FF"/>
<path d="M-101.241 85.7722L154.07 183.877" stroke="#DBF7FF"/>
<rect x="99" y="620" width="170" height="96" fill="#FBE8A2"/>
<rect x="423" y="651" width="170" height="65" fill="#FBE8A2"/>
<rect x="-166" y="664" width="320" height="52" fill="#FBE8A2"/>
<rect x="228" y="620" width="41" height="96" fill="url(#paint1_linear_278_374)"/>
<rect x="552" y="651" width="41" height="65" fill="url(#paint2_linear_278_374)"/>
<path d="M-121 651H101.5L154 664H-166L-121 651Z" fill="#306578"/>
<path d="M446.906 637H565.109L593 651H423L446.906 637Z" fill="#306578"/>
<rect x="63" y="664" width="91" height="52" fill="url(#paint3_linear_278_374)"/>
<path d="M403.422 317.595V709H266.667V317.595L301.049 275.743V246.86L340.135 239.501L373.986 246.86V275.559L403.422 317.595Z" fill="#FBE8A2"/>
<rect x="296.711" y="339.582" width="17.6614" height="100.081" fill="#105163"/>
<rect x="286.758" y="439.753" width="38.1768" height="10.0465" fill="url(#paint4_linear_278_374)"/>
<rect x="286.758" y="592.46" width="38.1768" height="10.0465" fill="url(#paint5_linear_278_374)"/>
<rect x="296.711" y="491.176" width="17.6614" height="101.553" fill="#105163"/>
<path d="M355.075 317.595V709H403.298V317.595L373.984 275.559V246.86L340.133 239.501L355.075 246.86V317.595Z" fill="url(#paint6_linear_278_374)"/>
<path d="M199.569 737L0 725.5V709H190.5H619.214H1261.94L1449 714V722.5L1312.45 730.5L1300.45 718.5L1279.44 730.5L773.767 720.5L738.755 729L674.733 725.5L199.569 737Z" fill="#9DCA9D"/>
<defs>
<linearGradient id="paint0_linear_278_374" x1="720" y1="0" x2="720" y2="716" gradientUnits="userSpaceOnUse">
<stop stop-color="#4EA1B7"/>
<stop offset="1" stop-color="#BDDEE5"/>
</linearGradient>
<linearGradient id="paint1_linear_278_374" x1="248.5" y1="620" x2="248.5" y2="716" gradientUnits="userSpaceOnUse">
<stop stop-color="#306578"/>
<stop offset="1" stop-color="#306578" stop-opacity="0.41"/>
</linearGradient>
<linearGradient id="paint2_linear_278_374" x1="572.5" y1="651" x2="572.5" y2="716" gradientUnits="userSpaceOnUse">
<stop stop-color="#306578"/>
<stop offset="1" stop-color="#306578" stop-opacity="0.41"/>
</linearGradient>
<linearGradient id="paint3_linear_278_374" x1="108.5" y1="664" x2="108.5" y2="716" gradientUnits="userSpaceOnUse">
<stop stop-color="#306578"/>
<stop offset="1" stop-color="#306578" stop-opacity="0.41"/>
</linearGradient>
<linearGradient id="paint4_linear_278_374" x1="305.846" y1="439.753" x2="305.846" y2="449.8" gradientUnits="userSpaceOnUse">
<stop stop-color="#306578"/>
<stop offset="1" stop-color="#306578" stop-opacity="0.41"/>
</linearGradient>
<linearGradient id="paint5_linear_278_374" x1="305.846" y1="592.46" x2="305.846" y2="602.507" gradientUnits="userSpaceOnUse">
<stop stop-color="#306578"/>
<stop offset="1" stop-color="#306578" stop-opacity="0.41"/>
</linearGradient>
<linearGradient id="paint6_linear_278_374" x1="371.715" y1="239.501" x2="371.715" y2="709" gradientUnits="userSpaceOnUse">
<stop stop-color="#306578"/>
<stop offset="1" stop-color="#306578" stop-opacity="0.41"/>
</linearGradient>
</defs>
</svg>
