<svg width="1440" height="757" viewBox="0 0 1440 757" fill="none" xmlns="http://www.w3.org/2000/svg">
<rect width="1440" height="716" fill="url(#paint0_linear_285_393)"/>
<path d="M196.5 717.5L0 677.286V737H178H619.214L1169.5 717.5H1449L1449 652.143L1363.5 601.857L1300.45 677.286L1220 601.857L773.767 664.714L714.5 618.5L644 677.286L196.5 717.5Z" fill="#769B76"/>
<path d="M-5.5 756.5V726L0.5 720L271 731L691.5 715.5H1243.5H1303.5L1446 723.5L1457 756.5L1321 741.5L1182 756.5L1146.5 731L1071.5 741.5L1063 748.5H1033L1016.5 731L973 741.5L950.5 748.5L934 731L915.5 748.5L807 731L771 756.5L757.5 741.5L748 756.5L738 741.5H691.5L665.5 748.5L497.5 741.5L482 748.5L465.5 741.5L443.5 756.5L424 741.5L375.5 748.5L226 741.5L190 756.5L149.5 741.5L62 756.5L39 741.5L-5.5 756.5Z" fill="#23231E"/>
<path d="M327.646 139.511L335.258 135.116L342.87 139.511V148.301L335.258 152.696L327.646 148.301V139.511Z" stroke="#DBF7FF"/>
<circle cx="335.254" cy="143.906" r="4.18349" stroke="#DBF7FF"/>
<path d="M327.646 139.511L335.258 135.116L342.87 139.511V148.301L335.258 152.696L327.646 148.301V139.511Z" stroke="#DBF7FF"/>
<circle cx="335.254" cy="143.906" r="4.18349" stroke="#DBF7FF"/>
<path d="M327.646 358.698L335.258 354.304L342.87 358.698V367.488L335.258 371.883L327.646 367.488V358.698Z" stroke="#DBF7FF"/>
<circle cx="335.254" cy="363.093" r="4.18349" stroke="#DBF7FF"/>
<path d="M410.475 167.515L418.965 169.79L421.24 178.28L415.025 184.495L406.535 182.221L404.26 173.73L410.475 167.515Z" stroke="#DBF7FF"/>
<circle cx="412.75" cy="176.005" r="4.18349" transform="rotate(45 412.75 176.005)" stroke="#DBF7FF"/>
<path d="M255.491 322.504L263.981 324.779L266.256 333.269L260.041 339.484L251.55 337.209L249.275 328.719L255.491 322.504Z" stroke="#DBF7FF"/>
<circle cx="257.766" cy="330.994" r="4.18349" transform="rotate(45 257.766 330.994)" stroke="#DBF7FF"/>
<path d="M449.247 245.888L453.641 253.5L449.247 261.112H440.457L436.062 253.5L440.457 245.888H449.247Z" stroke="#DBF7FF"/>
<circle cx="444.856" cy="253.5" r="4.18349" transform="rotate(90 444.856 253.5)" stroke="#DBF7FF"/>
<path d="M230.059 245.888L234.454 253.5L230.059 261.112H221.269L216.875 253.5L221.269 245.888H230.059Z" stroke="#DBF7FF"/>
<circle cx="225.66" cy="253.5" r="4.18349" transform="rotate(90 225.66 253.5)" stroke="#DBF7FF"/>
<path d="M421.243 328.719L418.968 337.209L410.478 339.484L404.263 333.269L406.538 324.779L415.028 322.504L421.243 328.719Z" stroke="#DBF7FF"/>
<circle cx="412.752" cy="330.994" r="4.18349" transform="rotate(135 412.752 330.994)" stroke="#DBF7FF"/>
<path d="M266.251 173.73L263.976 182.221L255.486 184.496L249.271 178.28L251.546 169.79L260.036 167.515L266.251 173.73Z" stroke="#DBF7FF"/>
<circle cx="257.759" cy="176.005" r="4.18349" transform="rotate(135 257.759 176.005)" stroke="#DBF7FF"/>
<circle cx="334.317" cy="253.5" r="94.1065" stroke="#DBF7FF"/>
<circle cx="334.324" cy="253.5" r="123.144" stroke="#DBF7FF"/>
<path d="M335.258 158.893V25.8821" stroke="#DBF7FF"/>
<path d="M335.258 481.117V348.106" stroke="#DBF7FF"/>
<path d="M429.864 253.5L562.875 253.5" stroke="#DBF7FF"/>
<path d="M107.637 253.5L240.648 253.5" stroke="#DBF7FF"/>
<path d="M378.972 209.785L440.57 148.187" stroke="#DBF7FF"/>
<path d="M229.949 358.813L291.547 297.215" stroke="#DBF7FF"/>
<path d="M378.972 297.214L440.57 358.812" stroke="#DBF7FF"/>
<path d="M229.949 148.187L291.547 209.785" stroke="#DBF7FF"/>
<path d="M516.447 183.877L771.758 85.7722" stroke="#DBF7FF"/>
<path d="M-101.241 421.228L154.07 323.123" stroke="#DBF7FF"/>
<path d="M404.879 434.689L502.984 690" stroke="#DBF7FF"/>
<path d="M167.528 -183L265.633 72.3113" stroke="#DBF7FF"/>
<path d="M265.636 434.689L167.531 690" stroke="#DBF7FF"/>
<path d="M502.988 -183L404.883 72.3113" stroke="#DBF7FF"/>
<path d="M516.447 323.123L771.758 421.228" stroke="#DBF7FF"/>
<path d="M-101.241 85.7722L154.07 183.877" stroke="#DBF7FF"/>
<rect x="99" y="620" width="170" height="96" fill="#FBE8A2"/>
<rect x="423" y="651" width="170" height="65" fill="#FBE8A2"/>
<rect x="-166" y="664" width="320" height="52" fill="#FBE8A2"/>
<rect x="228" y="620" width="41" height="96" fill="url(#paint1_linear_285_393)"/>
<rect x="552" y="651" width="41" height="65" fill="url(#paint2_linear_285_393)"/>
<path d="M-121 651H101.5L154 664H-166L-121 651Z" fill="#306578"/>
<path d="M446.906 637H565.109L593 651H423L446.906 637Z" fill="#306578"/>
<rect x="63" y="664" width="91" height="52" fill="url(#paint3_linear_285_393)"/>
<path d="M403.422 317.595V709H266.667V317.595L301.049 275.743V246.86L340.135 239.501L373.986 246.86V275.559L403.422 317.595Z" fill="#FBE8A2"/>
<rect x="296.711" y="339.582" width="17.6614" height="100.081" fill="#105163"/>
<rect x="286.758" y="439.753" width="38.1768" height="10.0465" fill="url(#paint4_linear_285_393)"/>
<rect x="286.758" y="592.46" width="38.1768" height="10.0465" fill="url(#paint5_linear_285_393)"/>
<rect x="296.711" y="491.176" width="17.6614" height="101.553" fill="#105163"/>
<path d="M355.075 317.595V709H403.298V317.595L373.984 275.559V246.86L340.133 239.501L355.075 246.86V317.595Z" fill="url(#paint6_linear_285_393)"/>
<path d="M199.569 737L0 725.5V709H190.5H619.214H1261.94L1449 714V722.5L1312.45 730.5L1300.45 718.5L1279.44 730.5L773.767 720.5L738.755 729L674.733 725.5L199.569 737Z" fill="#9DCA9D"/>
<defs>
<linearGradient id="paint0_linear_285_393" x1="720" y1="0" x2="720" y2="716" gradientUnits="userSpaceOnUse">
<stop stop-color="#4EA1B7"/>
<stop offset="1" stop-color="#BDDEE5"/>
</linearGradient>
<linearGradient id="paint1_linear_285_393" x1="248.5" y1="620" x2="248.5" y2="716" gradientUnits="userSpaceOnUse">
<stop stop-color="#306578"/>
<stop offset="1" stop-color="#306578" stop-opacity="0.41"/>
</linearGradient>
<linearGradient id="paint2_linear_285_393" x1="572.5" y1="651" x2="572.5" y2="716" gradientUnits="userSpaceOnUse">
<stop stop-color="#306578"/>
<stop offset="1" stop-color="#306578" stop-opacity="0.41"/>
</linearGradient>
<linearGradient id="paint3_linear_285_393" x1="108.5" y1="664" x2="108.5" y2="716" gradientUnits="userSpaceOnUse">
<stop stop-color="#306578"/>
<stop offset="1" stop-color="#306578" stop-opacity="0.41"/>
</linearGradient>
<linearGradient id="paint4_linear_285_393" x1="305.846" y1="439.753" x2="305.846" y2="449.8" gradientUnits="userSpaceOnUse">
<stop stop-color="#306578"/>
<stop offset="1" stop-color="#306578" stop-opacity="0.41"/>
</linearGradient>
<linearGradient id="paint5_linear_285_393" x1="305.846" y1="592.46" x2="305.846" y2="602.507" gradientUnits="userSpaceOnUse">
<stop stop-color="#306578"/>
<stop offset="1" stop-color="#306578" stop-opacity="0.41"/>
</linearGradient>
<linearGradient id="paint6_linear_285_393" x1="371.715" y1="239.501" x2="371.715" y2="709" gradientUnits="userSpaceOnUse">
<stop stop-color="#306578"/>
<stop offset="1" stop-color="#306578" stop-opacity="0.41"/>
</linearGradient>
</defs>
</svg>
