<svg width="1440" height="15213" viewBox="0 0 1440 15213" fill="none" xmlns="http://www.w3.org/2000/svg" preserveAspectRatio="none" vector-effect="non-scaling-stroke">
<g clip-path="url(#clip0_246_6001)">
<rect width="1440" height="15213" fill="url(#paint0_linear_246_6001)"/>
<rect y="5225" width="1472" height="74" fill="url(#paint1_linear_246_6001)"/>
<path d="M825 5245.5L819.5 5222.5H838V5251H828.5L832 5271.5L819.5 5245.5H825Z" fill="#86786C"/>
<path d="M-6 13719V12922L-0.00205231 12918.2L96.465 12908L270.405 12925.2L464.839 12908L566.304 12918.2L664.771 12908L737.246 12915.3L1206.59 12908L1302.55 12915.3L1441.51 12908L1456 13719L1320.05 13709.5L1181.09 13719L1145.61 13700.9L1070.63 13709.5L1062.13 13713.9H1032.14L1015.65 13700.9L972.165 13709.5L949.673 13713.9L933.179 13700.9L914.685 13713.9L806.222 13700.9L770.234 13719L756.739 13709.5L747.242 13719L737.246 13709.5H690.762L664.771 13713.9L496.828 13709.5L481.333 13713.9L464.839 13709.5L442.846 13719L423.353 13709.5L374.87 13713.9L225.421 13709.5L189.433 13719L148.947 13709.5L61.4769 13719L38.4848 13709.5L-6 13719Z" fill="#435561"/>
<path d="M-6 14998V14142.9L-0.00205231 14138L96.465 14125L270.405 14147L464.839 14125L566.304 14138L664.771 14125L737.246 14134.4L1206.59 14125L1302.55 14134.4L1441.51 14125L1456 14998L1320.05 14985.8L1181.09 14998L1145.61 14974.8L1070.63 14985.8L1062.13 14991.5H1032.14L1015.65 14974.8L972.165 14985.8L949.673 14991.5L933.179 14974.8L914.685 14991.5L806.222 14974.8L770.234 14998L756.739 14985.8L747.242 14998L737.246 14985.8H690.762L664.771 14991.5L496.828 14985.8L481.333 14991.5L464.839 14985.8L442.846 14998L423.353 14985.8L374.87 14991.5L225.421 14985.8L189.433 14998L148.947 14985.8L61.4769 14998L38.4848 14985.8L-6 14998Z" fill="#435561"/>
<path d="M-6 12631.8V11871.9L-0.00205231 11867.6L96.465 11856L270.405 11875.6L464.839 11856L566.304 11867.6L664.771 11856L737.246 11864.3L1206.59 11856L1302.55 11864.3L1441.51 11856L1456 12631.8L1320.05 12620.9L1181.09 12631.8L1145.61 12611.1L1070.63 12620.9L1062.13 12626H1032.14L1015.65 12611.1L972.165 12620.9L949.673 12626L933.179 12611.1L914.685 12626L806.222 12611.1L770.234 12631.8L756.739 12620.9L747.242 12631.8L737.246 12620.9H690.762L664.771 12626L496.828 12670.9L481.333 12676L464.839 12670.9L442.846 12681.8L423.353 12670.9L374.87 12676L225.421 12620.9L189.433 12631.8L148.947 12620.9L61.4769 12631.8L38.4848 12620.9L-6 12631.8Z" fill="#435561"/>
<path d="M-6 10866.3V9180.19L-0.00205231 9174.68L96.465 9160L270.405 9184.78L464.839 9160L566.304 9174.68L664.771 9160L737.246 9170.55L1206.59 9160L1302.55 9170.55L1441.51 9160L1456 10866.3L1320.05 10852.6L1181.09 10866.3L1145.61 10840.2L1070.63 10852.6L1062.13 10859H1032.14L1015.65 10840.2L972.165 10852.6L949.673 10859L933.179 10840.2L914.685 10859L806.222 10840.2L770.234 10866.3L756.739 10852.6L747.242 10866.3L737.246 10852.6H690.762L664.771 10859L496.828 10852.6L481.333 10859L464.839 10852.6L442.846 10866.3L423.353 10852.6L374.87 10859L225.421 10852.6L189.433 10866.3L148.947 10852.6L61.4769 10866.3L38.4848 10852.6L-6 10866.3Z" fill="#5A797A"/>
<path d="M-6 12005V11407.9L-0.00205231 11401.9L96.465 11386L270.405 11412.9L464.839 11386L566.304 11401.9L664.771 11386L737.246 11397.5L1206.59 11386L1302.55 11397.5L1441.51 11386L1456 11925L1320.05 11910.1L1181.09 11925L1145.61 11896.6L1070.63 11910.1L1062.13 11917H1032.14L1015.65 11896.6L972.165 11910.1L949.673 11917L933.179 11896.6L914.685 11917L806.222 11896.6L770.234 11925L756.739 11910.1L747.242 11925L737.246 11910.1H690.762L664.771 11917L496.828 11910.1L481.333 11917L464.839 11910.1L442.846 11925L423.353 11910.1L374.87 11917L225.421 11990.1L189.433 12005L148.947 11990.1L61.4769 12005L38.4848 11990.1L-6 12005Z" fill="#5A797A"/>
<path d="M-6 12433V12950.1L-0.00205231 12956.1L96.465 12972L270.405 13045.2L464.839 13072L566.304 13056.1L664.771 13072L737.246 13060.6L1206.59 12972L1302.55 12960.6L1441.51 12972L1456 12433L1320.05 12448L1181.09 12433L1145.61 12461.4L1070.63 12448L1062.13 12441L1032.14 12381L1015.65 12401.4L972.165 12388L949.673 12381L933.179 12401.4L914.685 12381L806.222 12461.4L770.234 12433L756.739 12448L747.242 12433L737.246 12448H690.762L664.771 12441L496.828 12518L481.333 12511L464.839 12518L442.846 12503L423.353 12518L374.87 12511L225.421 12448L189.433 12433L148.947 12448L61.4769 12433L38.4848 12448L-6 12433Z" fill="#5A797A"/>
<path d="M-6 13643V14160.1L-0.00205231 14166.1L96.465 14182L270.405 14155.1L464.839 14252L566.304 14236.1L664.771 14282L737.246 14270.5L1206.59 14182L1302.55 14170.5L1441.51 14182L1456 13643L1320.05 13657.9L1181.09 13643L1145.61 13671.4L1070.63 13657.9L1062.13 13651H1032.14L1015.65 13671.4L972.165 13657.9L949.673 13651L933.179 13671.4L914.685 13651L806.222 13701.4L770.234 13673L756.739 13687.9L747.242 13673L737.246 13687.9H690.762L664.771 13681L496.828 13657.9L481.333 13651L464.839 13657.9L442.846 13643L423.353 13657.9L374.87 13651L225.421 13657.9L189.433 13643L148.947 13657.9L61.4769 13643L38.4848 13657.9L-6 13643Z" fill="#5A797A"/>
<path d="M-6 9209V8242.04L-0.00205231 8234.94L96.465 8216L270.405 8247.96L464.839 8216L566.304 8234.94L664.771 8216L737.246 8229.61L1206.59 8216L1302.55 8229.61L1441.51 8216L1456 9209L1320.05 9191.24L1181.09 9209L1145.61 9175.26L1070.63 9191.24L1062.13 9199.53H1032.14L1015.65 9175.26L972.165 9191.24L949.673 9199.53L933.179 9175.26L914.685 9199.53L806.222 9175.26L770.234 9209L756.739 9191.24L747.242 9209L737.246 9191.24H690.762L664.771 9199.53L496.828 9271.24L481.333 9279.53L464.839 9271.24L392.846 9349L373.353 9331.24L324.87 9339.53L225.421 9271.24L189.433 9289L148.947 9271.24L61.4769 9209L38.4848 9191.24L-6 9209Z" fill="#435561"/>
<path d="M-6 11513V10840.9L-0.00205231 10836.6L96.465 10825L270.405 10844.6L464.839 10794.5L566.304 10836.6L664.771 10825L737.246 10833.3L1145.61 10730.5L1241.57 10738.8L1441.51 10825L1456 11433L1320.05 11422.1L1181.09 11433L1145.61 11412.3L1070.63 11422.1L1062.13 11427.2H1032.14L1015.65 11412.3L972.165 11422.1L949.673 11427.2L933.179 11412.3L914.685 11427.2L806.222 11412.3L770.234 11433L756.739 11422.1L747.242 11433L737.246 11422.1H690.762L664.771 11427.2L496.828 11492.1L477 11535L464.839 11492.1L442.846 11503L423.353 11492.1L374.87 11497.2L270.405 11562L189.433 11533L148.947 11502.1L61.4769 11513L38.4848 11502.1L-6 11513Z" fill="#435561"/>
<path d="M-1 2805.1V3487.01L5.00205 3498.19L101.535 3528L275.595 3477.7L470.161 3528L571.696 3498.19L670.229 3528L742.754 3506.57L1212.41 3528L1308.45 3506.57L1447.5 3528L1462 2805.1L1325.95 2833.05L1247.93 2727.78L1212.41 2780.88L1118.38 2629.03L1109.88 2615.99H1079.87L1059.36 2575L1019.85 2629.03L997.341 2615.99L976.834 2575L962.329 2615.99L806.776 2780.88L775.766 2805.1L762.261 2833.05L752.758 2805.1L742.754 2833.05H696.238L670.229 2820L502.172 2833.05L486.667 2820L470.161 2833.05L448.154 2805.1L428.647 2833.05L380.13 2820L230.579 2833.05L194.567 2805.1L154.053 2833.05L66.5231 2805.1L43.5152 2833.05L-1 2805.1Z" fill="#A08863"/>
<path d="M1457 3464V3727.02L1451 3730.18L1354.46 3738.61L1180.41 3724.39L985.839 3738.61L884.304 3730.18L785.771 3738.61L713.246 3732.55L243.585 3786L147.552 3779.94L8.50488 3738.61L-6 3464L130.047 3471.9L269.094 3464L304.606 3479.01L379.632 3471.9L388.135 3468.21H418.145L434.651 3479.01L486.487 3499.89L508.994 3496.21L525.5 3507L544.006 3496.21L644.222 3479.01L680.234 3464L693.739 3471.9L703.242 3464L713.246 3471.9H759.762L785.771 3468.21L876.5 3439L892.005 3435.31L985.839 3444.5L1024.49 3405.1L1044 3413L1092.52 3409.31L1225.42 3471.9L1261.43 3464L1301.95 3471.9L1389.48 3464L1412.48 3471.9L1457 3464Z" fill="url(#paint2_linear_246_6001)"/>
<path d="M-6 3860.5V3670L0 3664L96.5 3720L270.5 3747L465 3720L566.5 3664L665 3648L737.5 3659.5L1207 3648L1303 3659.5L1442 3648L1456.5 3860.5L1320.5 3845.5L1181.5 3860.5L1146 3832L1071 3845.5L1062.5 3852.5H1032.5L1016 3832L972.5 3845.5L950 3852.5L933.5 3832L915 3852.5L806.5 3832L770.5 3860.5L757 3845.5L747.5 3860.5L737.5 3845.5H691L665 3852.5L497 3917.5L481.5 3924.5L465 3917.5L443 3932.5L423.5 3917.5L375 3975.5L225.5 3968.5L189.5 3983.5L149 3968.5L61.5 3932.5L38.5 3917.5L-6 3860.5Z" fill="#675444"/>
<path d="M-6 6320V5992.79L-0.00205135 5982.48L96.465 5955L270.405 6001.38L464.839 5955L566.304 5982.48L664.771 5955L737.246 5974.75L972.165 5879L1302.55 5974.75L1441.5 5955L1456 6320L1320.05 6294.24L1181.09 6400L1145.61 6351.05L1070.63 6424.24L1062.13 6436.26H1032.14L1015.65 6401.05L972.165 6424.24L949.673 6436.26L933.179 6401.05L914.685 6436.26L806.222 6351.05L770.234 6400L756.739 6374.24L747.242 6400L737.246 6374.24H690.762L664.771 6386.26L496.828 6294.24L481.333 6306.26L464.839 6294.24L442.846 6320L423.353 6294.24L374.87 6306.26L225.421 6294.24L189.433 6320L148.947 6294.24L61.4769 6320L38.4848 6294.24L-6 6320Z" fill="#675444"/>
<path d="M1445 7137V7464.21L1439 7474.52L1342.54 7502L1168.59 7455.62L974.161 7592L862.5 7502L774.229 7592L701.754 7572.25L232.415 7502L136.448 7482.25L-2.50488 7502L-17 7137L118.953 7162.76L257.906 7137L293.394 7185.95L368.368 7162.76L376.865 7150.74H406.855L423.349 7185.95L466.835 7162.76L489.327 7150.74L505.821 7185.95L524.315 7150.74L632.778 7185.95L668.766 7137L682.261 7162.76L691.758 7137L701.754 7162.76H748.238L774.229 7150.74L942.172 7162.76L957.667 7150.74L974.161 7162.76L996.154 7137L1015.65 7162.76L1064.13 7150.74L1213.58 7162.76L1249.57 7137L1290.05 7162.76L1377.52 7137L1400.52 7162.76L1445 7137Z" fill="#675444"/>
<path d="M-22 8258V8083.19L-16.0021 8077.68L80.465 8063L254.405 8087.78L448.839 8063L550.304 8077.68L648.771 8063L721.246 8073.55L1190.59 8020L1286.55 8073.55L1425.5 8063L1440 8258L1304.05 8244.24L1165.09 8258L1129.61 8231.85L1054.63 8244.24L1046.13 8250.66H1016.14L999.651 8231.85L956.165 8244.24L933.673 8250.66L917.179 8231.85L898.685 8250.66L790.222 8231.85L754.234 8258L740.739 8244.24L731.242 8258L721.246 8244.24H674.762L648.771 8250.66L480.828 8300.24L465.333 8306.66L448.839 8300.24L426.846 8314L407.353 8300.24L358.87 8306.66L209.421 8244.24L173.433 8258L132.947 8244.24L45.4769 8258L22.4848 8244.24L-22 8258Z" fill="#675444"/>
<path d="M1457 2877V1961L1451 1955L1354.5 1939L1180.5 1966L986 1939L884.5 1955L786 1939L713.5 1950.5L388.5 2020.5L157 2116L-134.5 2172L-5.5 2877L130.5 2862L269.5 2877L305 2848.5L380 2862L388.5 2869H418.5L435 2848.5L478.5 2862L501 2869L517.5 2848.5L536 2869L644.5 2848.5L680.5 2877L694 2862L703.5 2877L713.5 2862H760L786 2869L979.5 2751.5L995 2758.5L1011.5 2751.5L1033.5 2766.5L1053 2751.5L1101.5 2758.5L1225.5 2862L1261.5 2877L1302 2862L1389.5 2877L1412.5 2862L1457 2877Z" fill="#675444"/>
<path d="M864 9687L709.5 9821L571.5 9896H644.5C662.833 9888.5 701.5 9872.7 709.5 9869.5C717.5 9866.3 833.167 9868.17 890 9869.5L947 9821L1131.5 9784.5L1304 9640.5L1336.5 9598L1279.5 9579.5H1172H1095L1077 9549H926.5V9492.5C905.667 9544.5 860.3 9650.5 845.5 9658.5C830.7 9666.5 851.667 9680.83 864 9687Z" fill="#435561"/>
<g style="mix-blend-mode:multiply">
<path d="M278.987 716H389.519L386.532 755.625L389.519 795.25L386.532 815.796L389.519 834.875L394 855.822L389.519 874.5V953.75V1033L394 1074.09L389.519 1112.25L394 1152.01L389.519 1191.5L386.532 1270.75L389.519 1350H278.987V1310.38V1270.75L282.97 1191.5L278.987 1112.25L280.979 1033L276 953.75L278.987 914.125L280.979 894.312L278.987 874.5V795.25L280.979 755.625L278.987 716Z" fill="url(#paint3_linear_246_6001)"/>
</g>
<g style="mix-blend-mode:multiply">
<path d="M278.987 1350H389.519L386.532 1389.62L389.519 1429.25L386.532 1449.8L389.519 1468.87L394 1489.82L389.519 1508.5V1587.75V1667L394 1708.09L389.519 1746.25L394 1786.01L389.519 1825.5L386.532 1904.75L389.519 1984H278.987V1944.38V1904.75L282.97 1825.5L278.987 1746.25L280.979 1667L276 1587.75L278.987 1548.12L280.979 1528.31L278.987 1508.5V1429.25L280.979 1389.62L278.987 1350Z" fill="url(#paint4_linear_246_6001)"/>
</g>
<g style="mix-blend-mode:multiply">
<path d="M278.987 1984H389.519L386.532 2023.62L389.519 2063.25L386.532 2083.8L389.519 2102.87L394 2123.82L389.519 2142.5V2221.75V2301L394 2342.09L389.519 2380.25L394 2420.01L389.519 2459.5L386.532 2538.75L389.519 2618H278.987V2578.38V2538.75L282.97 2459.5L278.987 2380.25L280.979 2301L276 2221.75L278.987 2182.12L280.979 2162.31L278.987 2142.5V2063.25L280.979 2023.62L278.987 1984Z" fill="url(#paint5_linear_246_6001)"/>
</g>
<g style="mix-blend-mode:multiply">
<path d="M278.987 2618H389.519L386.532 2657.62L389.519 2697.25L386.532 2717.8L389.519 2736.87L394 2757.82L389.519 2776.5V2855.75V2935L394 2976.09L389.519 3014.25L394 3054.01L389.519 3093.5L386.532 3172.75L389.519 3252H278.987V3212.38V3172.75L282.97 3093.5L278.987 3014.25L280.979 2935L276 2855.75L278.987 2816.12L280.979 2796.31L278.987 2776.5V2697.25L280.979 2657.62L278.987 2618Z" fill="url(#paint6_linear_246_6001)"/>
</g>
<g style="mix-blend-mode:multiply">
<path d="M278.987 3252H389.519L386.532 3291.62L389.519 3331.25L386.532 3351.8L389.519 3370.87L394 3391.82L389.519 3410.5V3489.75V3569L394 3610.09L389.519 3648.25L394 3688.01L389.519 3727.5L386.532 3806.75L389.519 3886H278.987V3846.38V3806.75L282.97 3727.5L278.987 3648.25L280.979 3569L276 3489.75L278.987 3450.12L280.979 3430.31L278.987 3410.5V3331.25L280.979 3291.62L278.987 3252Z" fill="url(#paint7_linear_246_6001)"/>
</g>
<g style="mix-blend-mode:multiply">
<path d="M278.987 3886H389.519L386.532 3925.62L389.519 3965.25L386.532 3985.8L389.519 4004.87L394 4025.82L389.519 4044.5V4123.75V4203L394 4244.09L389.519 4282.25L394 4322.01L389.519 4361.5L386.532 4440.75L389.519 4520H278.987V4480.38V4440.75L282.97 4361.5L278.987 4282.25L280.979 4203L276 4123.75L278.987 4084.12L280.979 4064.31L278.987 4044.5V3965.25L280.979 3925.62L278.987 3886Z" fill="url(#paint8_linear_246_6001)"/>
</g>
<g style="mix-blend-mode:multiply">
<path d="M278.987 4520H389.519L386.532 4559.62L389.519 4599.25L386.532 4619.8L389.519 4638.87L394 4659.82L389.519 4678.5V4757.75V4837L394 4878.09L389.519 4916.25L394 4956.01L389.519 4995.5L386.532 5074.75L389.519 5154H278.987V5114.38V5074.75L282.97 4995.5L278.987 4916.25L280.979 4837L276 4757.75L278.987 4718.12L280.979 4698.31L278.987 4678.5V4599.25L280.979 4559.62L278.987 4520Z" fill="url(#paint9_linear_246_6001)"/>
</g>
<g style="mix-blend-mode:multiply">
<path d="M278.987 5154H389.519L386.532 5193.62L389.519 5233.25L386.532 5253.8L389.519 5272.87L394 5293.82L389.519 5312.5V5391.75V5471L394 5512.09L389.519 5550.25L394 5590.01L389.519 5629.5L386.532 5708.75L389.519 5788H278.987V5748.38V5708.75L282.97 5629.5L278.987 5550.25L280.979 5471L276 5391.75L278.987 5352.12L280.979 5332.31L278.987 5312.5V5233.25L280.979 5193.62L278.987 5154Z" fill="url(#paint10_linear_246_6001)"/>
</g>
<g style="mix-blend-mode:multiply">
<path d="M278.987 5788H389.519L386.532 5827.62L389.519 5867.25L386.532 5887.8L389.519 5906.87L394 5927.82L389.519 5946.5V6025.75V6105L394 6146.09L389.519 6184.25L394 6224.01L389.519 6263.5L386.532 6342.75L389.519 6422H278.987V6382.38V6342.75L282.97 6263.5L278.987 6184.25L280.979 6105L276 6025.75L278.987 5986.12L280.979 5966.31L278.987 5946.5V5867.25L280.979 5827.62L278.987 5788Z" fill="url(#paint11_linear_246_6001)"/>
</g>
<g style="mix-blend-mode:multiply">
<path d="M278.987 6422H389.519L386.532 6461.62L389.519 6501.25L386.532 6521.8L389.519 6540.87L394 6561.82L389.519 6580.5V6659.75V6739L394 6780.09L389.519 6818.25L394 6858.01L389.519 6897.5L386.532 6976.75L389.519 7056H278.987V7016.38V6976.75L282.97 6897.5L278.987 6818.25L280.979 6739L276 6659.75L278.987 6620.12L280.979 6600.31L278.987 6580.5V6501.25L280.979 6461.62L278.987 6422Z" fill="url(#paint12_linear_246_6001)"/>
</g>
<g style="mix-blend-mode:multiply">
<path d="M278.987 7056H389.519L386.532 7095.62L389.519 7135.25L386.532 7155.8L389.519 7174.87L394 7195.82L389.519 7214.5V7293.75V7373L394 7414.09L389.519 7452.25L394 7492.01L389.519 7531.5L386.532 7610.75L389.519 7690H278.987V7650.38V7610.75L282.97 7531.5L278.987 7452.25L280.979 7373L276 7293.75L278.987 7254.12L280.979 7234.31L278.987 7214.5V7135.25L280.979 7095.62L278.987 7056Z" fill="url(#paint13_linear_246_6001)"/>
</g>
<g style="mix-blend-mode:multiply">
<path d="M278.987 7690H389.519L386.532 7729.62L389.519 7769.25L386.532 7789.8L389.519 7808.87L394 7829.82L389.519 7848.5V7927.75V8007L394 8048.09L389.519 8086.25L394 8126.01L389.519 8165.5L386.532 8244.75L389.519 8324H278.987V8284.38V8244.75L282.97 8165.5L278.987 8086.25L280.979 8007L276 7927.75L278.987 7888.12L280.979 7868.31L278.987 7848.5V7769.25L280.979 7729.62L278.987 7690Z" fill="url(#paint14_linear_246_6001)"/>
</g>
<g style="mix-blend-mode:multiply">
<path d="M278.987 8324H389.519L386.532 8363.62L389.519 8403.25L386.532 8423.8L389.519 8442.87L394 8463.82L389.519 8482.5V8561.75V8641L394 8682.09L389.519 8720.25L394 8760.01L389.519 8799.5L386.532 8878.75L389.519 8958H278.987V8918.38V8878.75L282.97 8799.5L278.987 8720.25L280.979 8641L276 8561.75L278.987 8522.12L280.979 8502.31L278.987 8482.5V8403.25L280.979 8363.62L278.987 8324Z" fill="url(#paint15_linear_246_6001)"/>
</g>
<g style="mix-blend-mode:multiply">
<path d="M278.987 8958H389.519L386.532 8997.62L389.519 9037.25L386.532 9057.8L389.519 9076.87L394 9097.82L389.519 9116.5V9195.75V9275L394 9316.09L389.519 9354.25L394 9394.01L389.519 9433.5L386.532 9512.75L389.519 9592H278.987V9552.38V9512.75L282.97 9433.5L278.987 9354.25L280.979 9275L276 9195.75L278.987 9156.12L280.979 9136.31L278.987 9116.5V9037.25L280.979 8997.62L278.987 8958Z" fill="url(#paint16_linear_246_6001)"/>
</g>
<g style="mix-blend-mode:multiply">
<path d="M278.987 9592H389.519L386.532 9631.62L389.519 9671.25L386.532 9691.8L389.519 9710.87L394 9731.82L389.519 9750.5V9829.75V9909L394 9950.09L389.519 9988.25L394 10028L389.519 10067.5L386.532 10146.8L389.519 10226H278.987V10186.4V10146.8L282.97 10067.5L278.987 9988.25L280.979 9909L276 9829.75L278.987 9790.12L280.979 9770.31L278.987 9750.5V9671.25L280.979 9631.62L278.987 9592Z" fill="url(#paint17_linear_246_6001)"/>
</g>
<g style="mix-blend-mode:multiply">
<path d="M278.987 10226H389.519L386.532 10265.6L389.519 10305.2L386.532 10325.8L389.519 10344.9L394 10365.8L389.519 10384.5V10463.7V10543L394 10584.1L389.519 10622.2L394 10662L389.519 10701.5L386.532 10780.8L389.519 10860H278.987V10820.4V10780.8L282.97 10701.5L278.987 10622.2L280.979 10543L276 10463.7L278.987 10424.1L280.979 10404.3L278.987 10384.5V10305.2L280.979 10265.6L278.987 10226Z" fill="url(#paint18_linear_246_6001)"/>
</g>
<g style="mix-blend-mode:multiply">
<path d="M278.987 10860H389.519L386.532 10899.6L389.519 10939.2L386.532 10959.8L389.519 10978.9L394 10999.8L389.519 11018.5V11097.7V11177L394 11218.1L389.519 11256.2L394 11296L389.519 11335.5L386.532 11414.8L389.519 11494H278.987V11454.4V11414.8L282.97 11335.5L278.987 11256.2L280.979 11177L276 11097.7L278.987 11058.1L280.979 11038.3L278.987 11018.5V10939.2L280.979 10899.6L278.987 10860Z" fill="url(#paint19_linear_246_6001)"/>
</g>
<g style="mix-blend-mode:multiply">
<path d="M278.987 11494H389.519L386.532 11533.6L389.519 11573.2L386.532 11593.8L389.519 11612.9L394 11633.8L389.519 11652.5V11731.7V11811L394 11852.1L389.519 11890.2L394 11930L389.519 11969.5L386.532 12048.8L389.519 12128H278.987V12088.4V12048.8L282.97 11969.5L278.987 11890.2L280.979 11811L276 11731.7L278.987 11692.1L280.979 11672.3L278.987 11652.5V11573.2L280.979 11533.6L278.987 11494Z" fill="url(#paint20_linear_246_6001)"/>
</g>
<g style="mix-blend-mode:multiply">
<path d="M282 12128H392.532L389.544 12167.6L392.532 12207.2L389.544 12227.8L392.532 12246.9L397.013 12267.8L392.532 12286.5V12365.7V12445L397.013 12486.1L392.532 12524.2L397.013 12564L392.532 12603.5L389.544 12682.8L392.532 12762H282V12722.4V12682.8L285.983 12603.5L282 12524.2L276 12387.5L279.013 12365.7L276 12342.1L282 12303.5L278 12283.5L280.5 12243.5L277 12204.2L283.992 12167.6L282 12128Z" fill="url(#paint21_linear_246_6001)"/>
</g>
<g style="mix-blend-mode:multiply">
<path d="M278.987 12762H389.519L386.532 12801.6L389.519 12841.2L386.532 12861.8L389.519 12880.9L394 12901.8L389.519 12920.5V12999.7V13079L394 13120.1L389.519 13158.2L394 13198L389.519 13237.5L386.532 13316.8L389.519 13396H278.987V13356.4V13316.8L282.97 13237.5L278.987 13158.2L280.979 13079L276 12999.7L278.987 12960.1L280.979 12940.3L278.987 12920.5V12841.2L280.979 12801.6L278.987 12762Z" fill="url(#paint22_linear_246_6001)"/>
</g>
<g style="mix-blend-mode:multiply">
<path d="M278.987 13396H389.519L386.532 13435.6L389.519 13475.2L386.532 13495.8L389.519 13514.9L394 13535.8L389.519 13554.5V13633.7V13713L394 13754.1L389.519 13792.2L394 13832L389.519 13871.5L386.532 13950.8L389.519 14030H278.987V13990.4V13950.8L282.97 13871.5L278.987 13792.2L280.979 13713L276 13633.7L278.987 13594.1L280.979 13574.3L278.987 13554.5V13475.2L280.979 13435.6L278.987 13396Z" fill="url(#paint23_linear_246_6001)"/>
</g>
<g style="mix-blend-mode:multiply">
<path d="M278.999 14030H389.975L386.976 14081.6L389.975 14133.3L386.976 14160L389.975 14184.9L394.474 14212.2L389.975 14236.5V14339.8V14443L394.474 14496.6L389.975 14546.3L394.474 14598.1L389.975 14649.5L386.976 14752.8L401 14850.2L361.843 14871.7L333.731 14901L296.08 14871.7L282.998 14850.2L278.999 14804.4V14752.8L282.998 14649.5L278.999 14546.3L280.999 14443L276 14339.8L278.999 14288.1L280.999 14262.3L278.999 14236.5V14133.3L280.999 14081.6L278.999 14030Z" fill="url(#paint24_linear_246_6001)"/>
</g>
<g opacity="0.3">
<g style="mix-blend-mode:multiply">
<path d="M729.987 8831H840.519L837.532 8870.62L840.519 8910.25L837.532 8930.8L840.519 8949.87L845 8970.82L840.519 8989.5V9068.75V9148L845 9189.09L840.519 9227.25L845 9267.01L840.519 9306.5L837.532 9385.75L840.519 9465H729.987V9425.38V9385.75L733.97 9306.5L729.987 9227.25L731.979 9148L727 9068.75L729.987 9029.12L731.979 9009.31L729.987 8989.5V8910.25L731.979 8870.62L729.987 8831Z" fill="url(#paint25_linear_246_6001)"/>
</g>
<g style="mix-blend-mode:multiply">
<path d="M729.987 9465H840.519L837.532 9504.62L840.519 9544.25L837.532 9564.8L840.519 9583.87L845 9604.82L840.519 9623.5V9702.75V9782L845 9823.09L840.519 9861.25L845 9901.01L840.519 9940.5L837.532 10019.8L840.519 10099H729.987V10059.4V10019.8L733.97 9940.5L729.987 9861.25L731.979 9782L727 9702.75L729.987 9663.12L731.979 9643.31L729.987 9623.5V9544.25L731.979 9504.62L729.987 9465Z" fill="url(#paint26_linear_246_6001)"/>
</g>
<g style="mix-blend-mode:multiply">
<path d="M729.987 10099H840.519L837.532 10138.6L840.519 10178.2L837.532 10198.8L840.519 10217.9L845 10238.8L840.519 10257.5V10336.7V10416L845 10457.1L840.519 10495.2L845 10535L840.519 10574.5L837.532 10653.8L840.519 10733H729.987V10693.4V10653.8L733.97 10574.5L729.987 10495.2L731.979 10416L727 10336.7L729.987 10297.1L731.979 10277.3L729.987 10257.5V10178.2L731.979 10138.6L729.987 10099Z" fill="url(#paint27_linear_246_6001)"/>
</g>
<g style="mix-blend-mode:multiply">
<path d="M729.987 10733H840.519L837.532 10772.6L840.519 10812.2L837.532 10832.8L840.519 10851.9L845 10872.8L840.519 10891.5V10970.7V11050L845 11091.1L840.519 11129.2L845 11169L840.519 11208.5L837.532 11287.8L840.519 11367H729.987V11327.4V11287.8L733.97 11208.5L729.987 11129.2L731.979 11050L727 10970.7L729.987 10931.1L731.979 10911.3L729.987 10891.5V10812.2L731.979 10772.6L729.987 10733Z" fill="url(#paint28_linear_246_6001)"/>
</g>
<g style="mix-blend-mode:multiply">
<path d="M729.987 11367H840.519L837.532 11406.6L840.519 11446.2L837.532 11466.8L840.519 11485.9L845 11506.8L840.519 11525.5V11604.7V11684L845 11725.1L840.519 11763.2L845 11803L840.519 11842.5L837.532 11921.8L840.519 12001H729.987V11961.4V11921.8L733.97 11842.5L729.987 11763.2L731.979 11684L727 11604.7L729.987 11565.1L731.979 11545.3L729.987 11525.5V11446.2L731.979 11406.6L729.987 11367Z" fill="url(#paint29_linear_246_6001)"/>
</g>
<g style="mix-blend-mode:multiply">
<path d="M729.987 12001H840.519L837.532 12040.6L840.519 12080.2L837.532 12100.8L840.519 12119.9L845 12140.8L840.519 12159.5V12238.7V12318L845 12359.1L840.519 12397.2L845 12437L840.519 12476.5L837.532 12555.8L840.519 12635H729.987V12595.4V12555.8L733.97 12476.5L729.987 12397.2L731.979 12318L727 12238.7L729.987 12199.1L731.979 12179.3L729.987 12159.5V12080.2L731.979 12040.6L729.987 12001Z" fill="url(#paint30_linear_246_6001)"/>
</g>
<g style="mix-blend-mode:multiply">
<path d="M729.987 12635H840.519L837.532 12674.6L840.519 12714.2L837.532 12734.8L840.519 12753.9L845 12774.8L840.519 12793.5V12872.7V12952L845 12993.1L840.519 13031.2L845 13071L840.519 13110.5L837.532 13189.8L840.519 13269H729.987V13229.4V13189.8L733.97 13110.5L729.987 13031.2L731.979 12952L727 12872.7L729.987 12833.1L731.979 12813.3L729.987 12793.5V12714.2L731.979 12674.6L729.987 12635Z" fill="url(#paint31_linear_246_6001)"/>
</g>
<g style="mix-blend-mode:multiply">
<path d="M729.987 13269H840.519L837.532 13304.2L840.519 13339.4L837.532 13357.6L840.519 13374.6L845 13393.2L840.519 13409.8V13480.1V13550.5L845 13587L840.519 13620.9L845 13656.2L840.519 13691.2L837.532 13761.6L840.519 13832H729.987V13796.8V13761.6L733.97 13691.2L729.987 13620.9L731.979 13550.5L727 13480.1L729.987 13444.9L731.979 13427.3L729.987 13409.8V13339.4L731.979 13304.2L729.987 13269Z" fill="url(#paint32_linear_246_6001)"/>
</g>
<g style="mix-blend-mode:multiply">
<path d="M729.987 13832H840.519L837.532 13871.6L840.519 13911.2L837.532 13931.8L840.519 13950.9L845 13971.8L840.519 13990.5V14069.7V14149L845 14190.1L840.519 14228.2L845 14268L840.519 14307.5L837.532 14386.8L851.5 14461.5L812.5 14478L784.5 14500.5L747 14478L733.97 14461.5L729.987 14426.4V14386.8L733.97 14307.5L729.987 14228.2L731.979 14149L727 14069.7L729.987 14030.1L731.979 14010.3L729.987 13990.5V13911.2L731.979 13871.6L729.987 13832Z" fill="url(#paint33_linear_246_6001)"/>
</g>
<g style="mix-blend-mode:multiply">
<path d="M149.513 12705H38.981L41.9684 12729.3L38.981 12753.6L41.9684 12766.2L38.981 12777.9L34.5 12790.8L38.981 12802.2V12850.9V12899.5L34.5 12924.7L38.981 12948.1L34.5 12972.5L38.981 12996.7L41.9684 13045.4L38.981 13094H149.513V13069.7V13045.4L145.53 12996.7L149.513 12948.1L147.521 12899.5L152.5 12850.9L149.513 12826.6L147.521 12814.4L149.513 12802.2V12753.6L147.521 12729.3L149.513 12705Z" fill="url(#paint34_linear_246_6001)"/>
</g>
<g style="mix-blend-mode:multiply">
<path d="M149.513 13094H38.981L41.9684 13133.6L38.981 13173.2L41.9684 13193.8L38.981 13212.9L34.5 13233.8L38.981 13252.5V13331.7V13411L34.5 13452.1L38.981 13490.2L34.5 13530L38.981 13569.5L41.9684 13648.8L28 13723.5L67 13740L95 13762.5L132.5 13740L145.53 13723.5L149.513 13688.4V13648.8L145.53 13569.5L149.513 13490.2L147.521 13411L152.5 13331.7L149.513 13292.1L147.521 13272.3L149.513 13252.5V13173.2L147.521 13133.6L149.513 13094Z" fill="url(#paint35_linear_246_6001)"/>
</g>
<g style="mix-blend-mode:multiply">
<path d="M1088.99 11530.5H1199.52L1196.53 11574.1L1199.52 11617.8L1196.53 11640.4L1199.52 11661.4L1204 11684.4L1199.52 11705V11792.2V11879.5L1204 11924.7L1199.52 11966.8L1204 12010.5L1199.52 12054L1196.53 12141.2L1199.52 12228.5H1088.99V12184.9V12141.2L1092.97 12054L1088.99 11966.8L1090.98 11879.5L1086 11792.2L1088.99 11748.6L1090.98 11726.8L1088.99 11705V11617.8L1090.98 11574.1L1088.99 11530.5Z" fill="url(#paint36_linear_246_6001)"/>
</g>
<g style="mix-blend-mode:multiply">
<path d="M1088.99 12228.5H1199.52L1196.53 12268.1L1199.52 12307.8L1196.53 12328.3L1199.52 12347.4L1204 12368.3L1199.52 12387V12466.2V12545.5L1204 12586.6L1199.52 12624.7L1204 12664.5L1199.52 12704L1196.53 12783.2L1210.5 12858L1171.5 12874.5L1143.5 12897L1106 12874.5L1092.97 12858L1088.99 12822.9V12783.2L1092.97 12704L1088.99 12624.7L1090.98 12545.5L1086 12466.2L1088.99 12426.6L1090.98 12406.8L1088.99 12387V12307.8L1090.98 12268.1L1088.99 12228.5Z" fill="url(#paint37_linear_246_6001)"/>
</g>
<g style="mix-blend-mode:multiply">
<path d="M710.668 8734.27L729.331 8831H840.501L849.001 8762.05L825.358 8696.08V8661.85L799.201 8617.21L779.08 8558.67L729.331 8524.5L679.501 8469.39L570.698 8400.44L575.225 8388.53L509.501 8379.5L389.501 8337.5L386.483 8369.68L389.501 8409.37L385.477 8429.7L395.501 8466.5L389.501 8480.5L436.501 8501L509.501 8511L651.501 8617.21L710.668 8734.27Z" fill="url(#paint38_radial_246_6001)"/>
</g>
<g style="mix-blend-mode:multiply">
<path d="M168.833 12608.3L150.17 12705H39L30.5 12636.1L54.1424 12570.1V12535.9L80.3 12491.2L100.421 12432.7L114.506 12394L121.045 12361.2L173.361 12327L168.833 12315.1L206.058 12296.3L277 12203.5L281 12242.5L278.494 12283L282.5 12303.5L276.5 12343L279.5 12365L275.476 12388.5L206.058 12481.8L173.361 12551.2L168.833 12608.3Z" fill="url(#paint39_radial_246_6001)"/>
</g>
<g style="mix-blend-mode:multiply">
<path d="M1064.15 11433.4L1092 11530H1197.32L1210 11461.1L1174.72 11395.2V11361L1135.7 11316.4L1105.67 11257.9L1084.66 11219.3L1046 11198L1016 11152L1003.6 11140.5L948.057 11121.7L842.206 11029L836.238 11068L839.977 11108.4L834 11128.9L842.952 11168.4V11183L841.5 11192L961.5 11257.9L1057.4 11376.4L1064.15 11433.4Z" fill="url(#paint40_radial_246_6001)"/>
</g>
</g>
<rect width="1440" height="716" fill="url(#paint41_linear_246_6001)"/>
<path d="M251.048 110.68L260 105.46L255.524 100.24L246.572 101.98L233.144 79.36L208.526 74.14L173.004 68.92L94.6741 55L40.9623 65.44L14.1064 82.84L-14.9874 79.36L-32.8913 86.9L-46.3193 96.76L-22.2424 105.46L-49.0983 101.98H-69.2402L-75.9542 115.9L-82.6682 126.34H-102.81L-114 136.78H-96.0961H-82.6682L-60.2882 142L-49.0983 136.78L-22.2424 142H0.137451L31.4693 136.78L53.8492 142L65.0392 136.78L101.388 127.914L126.006 132.471H173.004L219.716 105.46L251.048 110.68Z" fill="white" fill-opacity="0.4"/>
<path d="M123.046 69.6264L232 78.7391L96.3539 55L40.7828 65.6374L13.6536 82.0367L-15.2259 78.7391L-34.0413 86.469L-47 97L4.90224 92.6741H45.5961L65.7242 67.4103L96.3539 62.0916L123.046 69.6264Z" fill="white" fill-opacity="0.4"/>
<path d="M300.674 479L294 475.127L297.337 471.255L304.011 472.545L314.022 455.764L332.376 451.891L359.073 418.327L417.472 408L457.517 415.745L477.539 428.655L499.23 426.073L512.579 431.667L522.59 438.982V451.891L542.612 449.309H557.629L562.635 459.636L567.64 467.382H582.657L591 475.127H577.652H567.64L550.955 479L542.612 475.127L522.59 479H505.904L482.545 475.127L465.86 479L457.517 475.127L412.466 462.095L394.112 465.476H359.073L324.034 475.127L300.674 479Z" fill="white" fill-opacity="0.4"/>
<path d="M322.404 461.6L304 475L314.038 457.58L332.442 453.56L359.212 418.72L417.769 408L457.923 416.04L478 429.44L446.212 421.4L417.769 418.72L384.308 429.44L342.481 457.58L322.404 461.6Z" fill="white" fill-opacity="0.4"/>
<path d="M833.401 122.48L825 117.56L829.201 112.64L837.602 114.28L850.204 92.96L873.308 88.04L906.646 83.12L980.159 70L1030.57 79.84L1055.77 96.24L1068.5 86.9467H1090.5L1100.62 95.38L1096.5 104.44L1111.71 118.16H1130.61L1136.91 131.28L1143.21 141.12L1166.3 131.28L1176.8 141.12H1160L1143.21 150.96L1122.21 155.88L1111.71 150.96L1096.5 138.88H1075.5L1030.57 126L1009.56 130.92L999.062 126L964.949 117.644L941.845 121.939L906.646 143.019L862.806 117.56L833.401 122.48Z" fill="white" fill-opacity="0.4"/>
<path d="M861.273 97.0769L838 114L850.695 92L873.968 86.9231L906.782 83.5385L980.833 70L1031.61 80.1538L1057 97.0769L1016.8 86.9231L980.833 83.5385L938.518 97.0769L886.662 92L861.273 97.0769Z" fill="white" fill-opacity="0.4"/>
<path d="M1210.48 260L1205 256.836L1207.74 253.673L1213.22 254.727L1221.45 241.018L1236.53 237.855L1258.46 210.436L1306.44 202L1339.34 208.327L1355.79 218.873L1373.61 216.764L1384.57 221.333L1392.8 227.309V237.855L1409.25 235.745H1421.58L1425.7 244.182L1429.81 250.509H1442.15L1449 256.836H1438.03H1429.81L1416.1 260L1409.25 256.836L1392.8 260H1379.09L1359.9 256.836L1346.19 260L1339.34 256.836L1306.44 265L1291.36 267.762H1252L1229.67 256.836L1210.48 260Z" fill="white" fill-opacity="0.4"/>
<path d="M1228.12 246L1213 257L1221.25 242.7L1236.38 239.4L1258.38 210.8L1306.5 202L1339.5 208.6L1356 219.6L1329.88 213L1306.5 210.8L1279 219.6L1244.62 242.7L1228.12 246Z" fill="white" fill-opacity="0.4"/>
<path d="M196.5 717.5L0 677.286V737H178H619.214L1169.5 717.5H1449L1449 652.143L1363.5 601.857L1300.45 677.286L1220 601.857L773.767 664.714L714.5 618.5L644 677.286L196.5 717.5Z" fill="#769B76"/>
<path d="M-5.5 756.5V726L0.5 720L271 731L691.5 715.5H1243.5H1303.5L1446 723.5L1457 756.5L1321 741.5L1182 756.5L1146.5 731L1071.5 741.5L1063 748.5H1033L1016.5 731L973 741.5L950.5 748.5L934 731L915.5 748.5L807 731L771 756.5L757.5 741.5L748 756.5L738 741.5H691.5L665.5 748.5L497.5 741.5L482 748.5L465.5 741.5L443.5 756.5L424 741.5L375.5 748.5L226 741.5L190 756.5L149.5 741.5L62 756.5L39 741.5L-5.5 756.5Z" fill="#23231E"/>
<path d="M327.646 139.511L335.258 135.116L342.87 139.511V148.301L335.258 152.696L327.646 148.301V139.511Z" stroke="#DBF7FF"/>
<circle cx="335.254" cy="143.906" r="4.18349" stroke="#DBF7FF"/>
<path d="M327.646 139.511L335.258 135.116L342.87 139.511V148.301L335.258 152.696L327.646 148.301V139.511Z" stroke="#DBF7FF"/>
<circle cx="335.254" cy="143.906" r="4.18349" stroke="#DBF7FF"/>
<path d="M327.646 358.698L335.258 354.304L342.87 358.698V367.488L335.258 371.883L327.646 367.488V358.698Z" stroke="#DBF7FF"/>
<circle cx="335.254" cy="363.093" r="4.18349" stroke="#DBF7FF"/>
<path d="M410.475 167.515L418.965 169.79L421.24 178.28L415.025 184.495L406.535 182.221L404.26 173.73L410.475 167.515Z" stroke="#DBF7FF"/>
<circle cx="412.75" cy="176.005" r="4.18349" transform="rotate(45 412.75 176.005)" stroke="#DBF7FF"/>
<path d="M255.491 322.504L263.981 324.779L266.256 333.269L260.041 339.484L251.55 337.209L249.275 328.719L255.491 322.504Z" stroke="#DBF7FF"/>
<circle cx="257.766" cy="330.994" r="4.18349" transform="rotate(45 257.766 330.994)" stroke="#DBF7FF"/>
<path d="M449.247 245.888L453.641 253.5L449.247 261.112H440.457L436.062 253.5L440.457 245.888H449.247Z" stroke="#DBF7FF"/>
<circle cx="444.856" cy="253.5" r="4.18349" transform="rotate(90 444.856 253.5)" stroke="#DBF7FF"/>
<path d="M230.059 245.888L234.454 253.5L230.059 261.112H221.269L216.875 253.5L221.269 245.888H230.059Z" stroke="#DBF7FF"/>
<circle cx="225.66" cy="253.5" r="4.18349" transform="rotate(90 225.66 253.5)" stroke="#DBF7FF"/>
<path d="M421.243 328.719L418.968 337.209L410.478 339.484L404.263 333.269L406.538 324.779L415.028 322.504L421.243 328.719Z" stroke="#DBF7FF"/>
<circle cx="412.752" cy="330.994" r="4.18349" transform="rotate(135 412.752 330.994)" stroke="#DBF7FF"/>
<path d="M266.251 173.73L263.976 182.221L255.486 184.496L249.271 178.28L251.546 169.79L260.036 167.515L266.251 173.73Z" stroke="#DBF7FF"/>
<circle cx="257.759" cy="176.005" r="4.18349" transform="rotate(135 257.759 176.005)" stroke="#DBF7FF"/>
<circle cx="334.317" cy="253.5" r="94.1065" stroke="#DBF7FF"/>
<circle cx="334.324" cy="253.5" r="123.144" stroke="#DBF7FF"/>
<path d="M335.258 158.893V25.8821" stroke="#DBF7FF"/>
<path d="M335.258 481.117V348.106" stroke="#DBF7FF"/>
<path d="M429.864 253.5L562.875 253.5" stroke="#DBF7FF"/>
<path d="M107.637 253.5L240.648 253.5" stroke="#DBF7FF"/>
<path d="M378.972 209.785L440.57 148.187" stroke="#DBF7FF"/>
<path d="M229.949 358.813L291.547 297.215" stroke="#DBF7FF"/>
<path d="M378.972 297.214L440.57 358.812" stroke="#DBF7FF"/>
<path d="M229.949 148.187L291.547 209.785" stroke="#DBF7FF"/>
<path d="M516.447 183.877L771.758 85.7722" stroke="#DBF7FF"/>
<path d="M-101.241 421.228L154.07 323.123" stroke="#DBF7FF"/>
<path d="M404.879 434.689L502.984 690" stroke="#DBF7FF"/>
<path d="M167.528 -183L265.633 72.3113" stroke="#DBF7FF"/>
<path d="M265.636 434.689L167.531 690" stroke="#DBF7FF"/>
<path d="M502.988 -183L404.883 72.3113" stroke="#DBF7FF"/>
<path d="M516.447 323.123L771.758 421.228" stroke="#DBF7FF"/>
<path d="M-101.241 85.7722L154.07 183.877" stroke="#DBF7FF"/>
<rect x="99" y="620" width="170" height="96" fill="#FBE8A2"/>
<rect x="423" y="651" width="170" height="65" fill="#FBE8A2"/>
<rect x="-166" y="664" width="320" height="52" fill="#FBE8A2"/>
<rect x="228" y="620" width="41" height="96" fill="url(#paint42_linear_246_6001)"/>
<rect x="552" y="651" width="41" height="65" fill="url(#paint43_linear_246_6001)"/>
<path d="M-121 651H101.5L154 664H-166L-121 651Z" fill="#306578"/>
<path d="M446.906 637H565.109L593 651H423L446.906 637Z" fill="#306578"/>
<rect x="63" y="664" width="91" height="52" fill="url(#paint44_linear_246_6001)"/>
<path d="M403.422 317.595V709H266.667V317.595L301.049 275.743V246.86L340.135 239.501L373.986 246.86V275.559L403.422 317.595Z" fill="#FBE8A2"/>
<rect x="296.711" y="339.582" width="17.6614" height="100.081" fill="#105163"/>
<rect x="286.758" y="439.753" width="38.1768" height="10.0465" fill="url(#paint45_linear_246_6001)"/>
<rect x="286.758" y="592.46" width="38.1768" height="10.0465" fill="url(#paint46_linear_246_6001)"/>
<rect x="296.711" y="491.176" width="17.6614" height="101.553" fill="#105163"/>
<path d="M355.075 317.595V709H403.298V317.595L373.984 275.559V246.86L340.133 239.501L355.075 246.86V317.595Z" fill="url(#paint47_linear_246_6001)"/>
<path d="M199.569 737L0 725.5V709H190.5H619.214H1261.94L1449 714V722.5L1312.45 730.5L1300.45 718.5L1279.44 730.5L773.767 720.5L738.755 729L674.733 725.5L199.569 737Z" fill="#9DCA9D"/>
<path d="M1102 6976.51V7011.56L1133.47 7057.37L1148.75 7078L1255.33 7070.88L1317.9 7037.66L1335 7011.56L1306.26 6990.93L1282.07 6963L1222.96 6971.94L1140.56 6963L1102 6976.51Z" fill="#675444"/>
<path d="M989 8354.91V8398.8L1028.3 8456.17L1047.38 8482L1180.5 8473.09L1258.65 8431.49L1280 8398.8L1244.11 8372.97L1213.89 8338L1140.07 8349.2L1037.16 8338L989 8354.91Z" fill="#5A797A"/>
<path d="M1123 14581V14604.5L1144.07 14635.2L1154.3 14649L1225.66 14644.2L1267.55 14622L1279 14604.5L1259.76 14590.7L1243.56 14572L1203.98 14578L1148.82 14572L1123 14581Z" fill="#5A797A"/>
<path d="M479 14098V14121.5L500.068 14152.2L510.297 14166L581.66 14161.2L623.553 14139L635 14121.5L615.759 14107.7L599.562 14089L559.984 14095L504.817 14089L479 14098Z" fill="#435561"/>
<path d="M1340 12832V12855.5L1361.07 12886.2L1371.3 12900L1442.66 12895.2L1484.55 12873L1496 12855.5L1476.76 12841.7L1460.56 12823L1420.98 12829L1365.82 12823L1340 12832Z" fill="#435561"/>
<path d="M1076.48 10838.1L1082.91 10855.3L1106.61 10871.9L1117.82 10879.2L1168.33 10856.2L1192.66 10828.6L1196.18 10812.7L1178.43 10807.9L1161.54 10798.7L1134.45 10813.8L1092.75 10824.5L1076.48 10838.1Z" fill="#5A797A"/>
<path d="M783.111 6801.55L779.161 6786.22L760.213 6769.73L751.196 6762.44L705.309 6777.58L681.644 6799.18L677.097 6812.52L692.01 6818.3L705.754 6827.78L730.641 6817.2L767.742 6811.81L783.111 6801.55Z" fill="#675444"/>
<rect x="542" y="5210" width="14" height="104" fill="url(#paint48_linear_246_6001)"/>
<rect x="542" y="5210" width="14" height="104" fill="url(#paint49_linear_246_6001)"/>
<rect x="1113" y="5210" width="14" height="104" fill="url(#paint50_linear_246_6001)"/>
<rect x="85" y="5210" width="14" height="104" fill="url(#paint51_linear_246_6001)"/>
<rect x="1396" y="5210" width="14" height="104" fill="url(#paint52_linear_246_6001)"/>
<circle cx="911.5" cy="6753.5" r="7.5" fill="#86786C"/>
</g>
<defs>
<linearGradient id="paint0_linear_246_6001" x1="720" y1="0" x2="720" y2="15213" gradientUnits="userSpaceOnUse">
<stop offset="0.0483582" stop-color="#5E3D25"/>
<stop offset="0.1" stop-color="#85776B"/>
<stop offset="0.927148" stop-color="#85786C"/>
<stop offset="1" stop-color="#141311"/>
</linearGradient>
<linearGradient id="paint1_linear_246_6001" x1="736" y1="5225" x2="736" y2="5299" gradientUnits="userSpaceOnUse">
<stop stop-color="#675444"/>
<stop offset="0.645" stop-color="#67472C"/>
<stop offset="1" stop-color="#675444"/>
</linearGradient>
<linearGradient id="paint2_linear_246_6001" x1="725.5" y1="3464" x2="725.5" y2="3786" gradientUnits="userSpaceOnUse">
<stop stop-color="#E6BE82"/>
<stop offset="1" stop-color="#E6BE82" stop-opacity="0"/>
</linearGradient>
<linearGradient id="paint3_linear_246_6001" x1="283.468" y1="846.475" x2="389.519" y2="846.475" gradientUnits="userSpaceOnUse">
<stop stop-color="#0B0B0B"/>
<stop offset="0.266445" stop-color="#404040"/>
<stop offset="0.714146" stop-color="#ACACAC"/>
<stop offset="0.958337" stop-color="#474545"/>
</linearGradient>
<linearGradient id="paint4_linear_246_6001" x1="283.468" y1="1480.48" x2="389.519" y2="1480.48" gradientUnits="userSpaceOnUse">
<stop stop-color="#0B0B0B"/>
<stop offset="0.266445" stop-color="#404040"/>
<stop offset="0.714146" stop-color="#ACACAC"/>
<stop offset="0.958337" stop-color="#474545"/>
</linearGradient>
<linearGradient id="paint5_linear_246_6001" x1="283.468" y1="2114.48" x2="389.519" y2="2114.48" gradientUnits="userSpaceOnUse">
<stop stop-color="#0B0B0B"/>
<stop offset="0.266445" stop-color="#404040"/>
<stop offset="0.714146" stop-color="#ACACAC"/>
<stop offset="0.958337" stop-color="#474545"/>
</linearGradient>
<linearGradient id="paint6_linear_246_6001" x1="283.468" y1="2748.48" x2="389.519" y2="2748.48" gradientUnits="userSpaceOnUse">
<stop stop-color="#0B0B0B"/>
<stop offset="0.266445" stop-color="#404040"/>
<stop offset="0.714146" stop-color="#ACACAC"/>
<stop offset="0.958337" stop-color="#474545"/>
</linearGradient>
<linearGradient id="paint7_linear_246_6001" x1="283.468" y1="3382.48" x2="389.519" y2="3382.48" gradientUnits="userSpaceOnUse">
<stop stop-color="#0B0B0B"/>
<stop offset="0.266445" stop-color="#404040"/>
<stop offset="0.714146" stop-color="#ACACAC"/>
<stop offset="0.958337" stop-color="#474545"/>
</linearGradient>
<linearGradient id="paint8_linear_246_6001" x1="283.468" y1="4016.48" x2="389.519" y2="4016.48" gradientUnits="userSpaceOnUse">
<stop stop-color="#0B0B0B"/>
<stop offset="0.266445" stop-color="#404040"/>
<stop offset="0.714146" stop-color="#ACACAC"/>
<stop offset="0.958337" stop-color="#474545"/>
</linearGradient>
<linearGradient id="paint9_linear_246_6001" x1="283.468" y1="4650.48" x2="389.519" y2="4650.48" gradientUnits="userSpaceOnUse">
<stop stop-color="#0B0B0B"/>
<stop offset="0.266445" stop-color="#404040"/>
<stop offset="0.714146" stop-color="#ACACAC"/>
<stop offset="0.958337" stop-color="#474545"/>
</linearGradient>
<linearGradient id="paint10_linear_246_6001" x1="283.468" y1="5284.48" x2="389.519" y2="5284.48" gradientUnits="userSpaceOnUse">
<stop stop-color="#0B0B0B"/>
<stop offset="0.266445" stop-color="#404040"/>
<stop offset="0.714146" stop-color="#ACACAC"/>
<stop offset="0.958337" stop-color="#474545"/>
</linearGradient>
<linearGradient id="paint11_linear_246_6001" x1="283.468" y1="5918.48" x2="389.519" y2="5918.48" gradientUnits="userSpaceOnUse">
<stop stop-color="#0B0B0B"/>
<stop offset="0.266445" stop-color="#404040"/>
<stop offset="0.714146" stop-color="#ACACAC"/>
<stop offset="0.958337" stop-color="#474545"/>
</linearGradient>
<linearGradient id="paint12_linear_246_6001" x1="283.468" y1="6552.48" x2="389.519" y2="6552.48" gradientUnits="userSpaceOnUse">
<stop stop-color="#0B0B0B"/>
<stop offset="0.266445" stop-color="#404040"/>
<stop offset="0.714146" stop-color="#ACACAC"/>
<stop offset="0.958337" stop-color="#474545"/>
</linearGradient>
<linearGradient id="paint13_linear_246_6001" x1="283.468" y1="7186.48" x2="389.519" y2="7186.48" gradientUnits="userSpaceOnUse">
<stop stop-color="#0B0B0B"/>
<stop offset="0.266445" stop-color="#404040"/>
<stop offset="0.714146" stop-color="#ACACAC"/>
<stop offset="0.958337" stop-color="#474545"/>
</linearGradient>
<linearGradient id="paint14_linear_246_6001" x1="283.468" y1="7820.48" x2="389.519" y2="7820.48" gradientUnits="userSpaceOnUse">
<stop stop-color="#0B0B0B"/>
<stop offset="0.266445" stop-color="#404040"/>
<stop offset="0.714146" stop-color="#ACACAC"/>
<stop offset="0.958337" stop-color="#474545"/>
</linearGradient>
<linearGradient id="paint15_linear_246_6001" x1="283.468" y1="8454.48" x2="389.519" y2="8454.48" gradientUnits="userSpaceOnUse">
<stop stop-color="#0B0B0B"/>
<stop offset="0.266445" stop-color="#404040"/>
<stop offset="0.714146" stop-color="#ACACAC"/>
<stop offset="0.958337" stop-color="#474545"/>
</linearGradient>
<linearGradient id="paint16_linear_246_6001" x1="283.468" y1="9088.48" x2="389.519" y2="9088.48" gradientUnits="userSpaceOnUse">
<stop stop-color="#0B0B0B"/>
<stop offset="0.266445" stop-color="#404040"/>
<stop offset="0.714146" stop-color="#ACACAC"/>
<stop offset="0.958337" stop-color="#474545"/>
</linearGradient>
<linearGradient id="paint17_linear_246_6001" x1="283.468" y1="9722.48" x2="389.519" y2="9722.48" gradientUnits="userSpaceOnUse">
<stop stop-color="#0B0B0B"/>
<stop offset="0.266445" stop-color="#404040"/>
<stop offset="0.714146" stop-color="#ACACAC"/>
<stop offset="0.958337" stop-color="#474545"/>
</linearGradient>
<linearGradient id="paint18_linear_246_6001" x1="283.468" y1="10356.5" x2="389.519" y2="10356.5" gradientUnits="userSpaceOnUse">
<stop stop-color="#0B0B0B"/>
<stop offset="0.266445" stop-color="#404040"/>
<stop offset="0.714146" stop-color="#ACACAC"/>
<stop offset="0.958337" stop-color="#474545"/>
</linearGradient>
<linearGradient id="paint19_linear_246_6001" x1="283.468" y1="10990.5" x2="389.519" y2="10990.5" gradientUnits="userSpaceOnUse">
<stop stop-color="#0B0B0B"/>
<stop offset="0.266445" stop-color="#404040"/>
<stop offset="0.714146" stop-color="#ACACAC"/>
<stop offset="0.958337" stop-color="#474545"/>
</linearGradient>
<linearGradient id="paint20_linear_246_6001" x1="283.468" y1="11624.5" x2="389.519" y2="11624.5" gradientUnits="userSpaceOnUse">
<stop stop-color="#0B0B0B"/>
<stop offset="0.266445" stop-color="#404040"/>
<stop offset="0.714146" stop-color="#ACACAC"/>
<stop offset="0.958337" stop-color="#474545"/>
</linearGradient>
<linearGradient id="paint21_linear_246_6001" x1="286.481" y1="12258.5" x2="392.532" y2="12258.5" gradientUnits="userSpaceOnUse">
<stop stop-color="#0B0B0B"/>
<stop offset="0.266445" stop-color="#404040"/>
<stop offset="0.714146" stop-color="#ACACAC"/>
<stop offset="0.958337" stop-color="#474545"/>
</linearGradient>
<linearGradient id="paint22_linear_246_6001" x1="283.468" y1="12892.5" x2="389.519" y2="12892.5" gradientUnits="userSpaceOnUse">
<stop stop-color="#0B0B0B"/>
<stop offset="0.266445" stop-color="#404040"/>
<stop offset="0.714146" stop-color="#ACACAC"/>
<stop offset="0.958337" stop-color="#474545"/>
</linearGradient>
<linearGradient id="paint23_linear_246_6001" x1="283.468" y1="13526.5" x2="389.519" y2="13526.5" gradientUnits="userSpaceOnUse">
<stop stop-color="#0B0B0B"/>
<stop offset="0.266445" stop-color="#404040"/>
<stop offset="0.714146" stop-color="#ACACAC"/>
<stop offset="0.958337" stop-color="#474545"/>
</linearGradient>
<linearGradient id="paint24_linear_246_6001" x1="283.498" y1="14200" x2="389.975" y2="14200" gradientUnits="userSpaceOnUse">
<stop stop-color="#0B0B0B"/>
<stop offset="0.266445" stop-color="#404040"/>
<stop offset="0.714146" stop-color="#ACACAC"/>
<stop offset="0.958337" stop-color="#474545"/>
</linearGradient>
<linearGradient id="paint25_linear_246_6001" x1="734.468" y1="8961.48" x2="840.519" y2="8961.48" gradientUnits="userSpaceOnUse">
<stop stop-color="#0B0B0B"/>
<stop offset="0.266445" stop-color="#404040"/>
<stop offset="0.714146" stop-color="#ACACAC"/>
<stop offset="0.958337" stop-color="#474545"/>
</linearGradient>
<linearGradient id="paint26_linear_246_6001" x1="734.468" y1="9595.48" x2="840.519" y2="9595.48" gradientUnits="userSpaceOnUse">
<stop stop-color="#0B0B0B"/>
<stop offset="0.266445" stop-color="#404040"/>
<stop offset="0.714146" stop-color="#ACACAC"/>
<stop offset="0.958337" stop-color="#474545"/>
</linearGradient>
<linearGradient id="paint27_linear_246_6001" x1="734.468" y1="10229.5" x2="840.519" y2="10229.5" gradientUnits="userSpaceOnUse">
<stop stop-color="#0B0B0B"/>
<stop offset="0.266445" stop-color="#404040"/>
<stop offset="0.714146" stop-color="#ACACAC"/>
<stop offset="0.958337" stop-color="#474545"/>
</linearGradient>
<linearGradient id="paint28_linear_246_6001" x1="734.468" y1="10863.5" x2="840.519" y2="10863.5" gradientUnits="userSpaceOnUse">
<stop stop-color="#0B0B0B"/>
<stop offset="0.266445" stop-color="#404040"/>
<stop offset="0.714146" stop-color="#ACACAC"/>
<stop offset="0.958337" stop-color="#474545"/>
</linearGradient>
<linearGradient id="paint29_linear_246_6001" x1="734.468" y1="11497.5" x2="840.519" y2="11497.5" gradientUnits="userSpaceOnUse">
<stop stop-color="#0B0B0B"/>
<stop offset="0.266445" stop-color="#404040"/>
<stop offset="0.714146" stop-color="#ACACAC"/>
<stop offset="0.958337" stop-color="#474545"/>
</linearGradient>
<linearGradient id="paint30_linear_246_6001" x1="734.468" y1="12131.5" x2="840.519" y2="12131.5" gradientUnits="userSpaceOnUse">
<stop stop-color="#0B0B0B"/>
<stop offset="0.266445" stop-color="#404040"/>
<stop offset="0.714146" stop-color="#ACACAC"/>
<stop offset="0.958337" stop-color="#474545"/>
</linearGradient>
<linearGradient id="paint31_linear_246_6001" x1="734.468" y1="12765.5" x2="840.519" y2="12765.5" gradientUnits="userSpaceOnUse">
<stop stop-color="#0B0B0B"/>
<stop offset="0.266445" stop-color="#404040"/>
<stop offset="0.714146" stop-color="#ACACAC"/>
<stop offset="0.958337" stop-color="#474545"/>
</linearGradient>
<linearGradient id="paint32_linear_246_6001" x1="734.468" y1="13384.9" x2="840.519" y2="13384.9" gradientUnits="userSpaceOnUse">
<stop stop-color="#0B0B0B"/>
<stop offset="0.266445" stop-color="#404040"/>
<stop offset="0.714146" stop-color="#ACACAC"/>
<stop offset="0.958337" stop-color="#474545"/>
</linearGradient>
<linearGradient id="paint33_linear_246_6001" x1="734.468" y1="13962.5" x2="840.519" y2="13962.5" gradientUnits="userSpaceOnUse">
<stop stop-color="#0B0B0B"/>
<stop offset="0.266445" stop-color="#404040"/>
<stop offset="0.714146" stop-color="#ACACAC"/>
<stop offset="0.958337" stop-color="#474545"/>
</linearGradient>
<linearGradient id="paint34_linear_246_6001" x1="145.032" y1="12785.1" x2="38.981" y2="12785.1" gradientUnits="userSpaceOnUse">
<stop stop-color="#0B0B0B"/>
<stop offset="0.266445" stop-color="#404040"/>
<stop offset="0.714146" stop-color="#ACACAC"/>
<stop offset="0.958337" stop-color="#474545"/>
</linearGradient>
<linearGradient id="paint35_linear_246_6001" x1="145.032" y1="13224.5" x2="38.981" y2="13224.5" gradientUnits="userSpaceOnUse">
<stop stop-color="#0B0B0B"/>
<stop offset="0.266445" stop-color="#404040"/>
<stop offset="0.714146" stop-color="#ACACAC"/>
<stop offset="0.958337" stop-color="#474545"/>
</linearGradient>
<linearGradient id="paint36_linear_246_6001" x1="1093.47" y1="11674.1" x2="1199.52" y2="11674.1" gradientUnits="userSpaceOnUse">
<stop stop-color="#0B0B0B"/>
<stop offset="0.266445" stop-color="#404040"/>
<stop offset="0.714146" stop-color="#ACACAC"/>
<stop offset="0.958337" stop-color="#474545"/>
</linearGradient>
<linearGradient id="paint37_linear_246_6001" x1="1093.47" y1="12359" x2="1199.52" y2="12359" gradientUnits="userSpaceOnUse">
<stop stop-color="#0B0B0B"/>
<stop offset="0.266445" stop-color="#404040"/>
<stop offset="0.714146" stop-color="#ACACAC"/>
<stop offset="0.958337" stop-color="#474545"/>
</linearGradient>
<radialGradient id="paint38_radial_246_6001" cx="0" cy="0" r="1" gradientUnits="userSpaceOnUse" gradientTransform="translate(548.501 8677) rotate(-34.7473) scale(278.091 428.824)">
<stop offset="0.485344" stop-color="#0B0B0B"/>
<stop offset="0.609654" stop-color="#404040"/>
<stop offset="0.804425" stop-color="#ACACAC"/>
<stop offset="0.958337" stop-color="#474545"/>
</radialGradient>
<radialGradient id="paint39_radial_246_6001" cx="0" cy="0" r="1" gradientUnits="userSpaceOnUse" gradientTransform="translate(331 12551) rotate(-145.253) scale(278.091 428.824)">
<stop offset="0.485344" stop-color="#0B0B0B"/>
<stop offset="0.609654" stop-color="#404040"/>
<stop offset="0.804425" stop-color="#ACACAC"/>
<stop offset="0.958337" stop-color="#474545"/>
</radialGradient>
<radialGradient id="paint40_radial_246_6001" cx="0" cy="0" r="1" gradientUnits="userSpaceOnUse" gradientTransform="translate(761.635 11376.2) rotate(-24.9117) scale(375.912 472.861)">
<stop offset="0.485344" stop-color="#0B0B0B"/>
<stop offset="0.609654" stop-color="#404040"/>
<stop offset="0.804425" stop-color="#ACACAC"/>
<stop offset="0.958337" stop-color="#474545"/>
</radialGradient>
<linearGradient id="paint41_linear_246_6001" x1="720" y1="0" x2="720" y2="716" gradientUnits="userSpaceOnUse">
<stop stop-color="#4EA1B7"/>
<stop offset="1" stop-color="#BDDEE5"/>
</linearGradient>
<linearGradient id="paint42_linear_246_6001" x1="248.5" y1="620" x2="248.5" y2="716" gradientUnits="userSpaceOnUse">
<stop stop-color="#306578"/>
<stop offset="1" stop-color="#306578" stop-opacity="0.41"/>
</linearGradient>
<linearGradient id="paint43_linear_246_6001" x1="572.5" y1="651" x2="572.5" y2="716" gradientUnits="userSpaceOnUse">
<stop stop-color="#306578"/>
<stop offset="1" stop-color="#306578" stop-opacity="0.41"/>
</linearGradient>
<linearGradient id="paint44_linear_246_6001" x1="108.5" y1="664" x2="108.5" y2="716" gradientUnits="userSpaceOnUse">
<stop stop-color="#306578"/>
<stop offset="1" stop-color="#306578" stop-opacity="0.41"/>
</linearGradient>
<linearGradient id="paint45_linear_246_6001" x1="305.846" y1="439.753" x2="305.846" y2="449.8" gradientUnits="userSpaceOnUse">
<stop stop-color="#306578"/>
<stop offset="1" stop-color="#306578" stop-opacity="0.41"/>
</linearGradient>
<linearGradient id="paint46_linear_246_6001" x1="305.846" y1="592.46" x2="305.846" y2="602.507" gradientUnits="userSpaceOnUse">
<stop stop-color="#306578"/>
<stop offset="1" stop-color="#306578" stop-opacity="0.41"/>
</linearGradient>
<linearGradient id="paint47_linear_246_6001" x1="371.715" y1="239.501" x2="371.715" y2="709" gradientUnits="userSpaceOnUse">
<stop stop-color="#306578"/>
<stop offset="1" stop-color="#306578" stop-opacity="0.41"/>
</linearGradient>
<linearGradient id="paint48_linear_246_6001" x1="549" y1="5210" x2="549" y2="5314" gradientUnits="userSpaceOnUse">
<stop stop-color="#675444"/>
<stop offset="0.645" stop-color="#67472C"/>
<stop offset="1" stop-color="#675444"/>
</linearGradient>
<linearGradient id="paint49_linear_246_6001" x1="549" y1="5210" x2="549" y2="5314" gradientUnits="userSpaceOnUse">
<stop stop-color="#675444"/>
<stop offset="0.645" stop-color="#67472C"/>
<stop offset="1" stop-color="#675444"/>
</linearGradient>
<linearGradient id="paint50_linear_246_6001" x1="1120" y1="5210" x2="1120" y2="5314" gradientUnits="userSpaceOnUse">
<stop stop-color="#675444"/>
<stop offset="0.645" stop-color="#67472C"/>
<stop offset="1" stop-color="#675444"/>
</linearGradient>
<linearGradient id="paint51_linear_246_6001" x1="92" y1="5210" x2="92" y2="5314" gradientUnits="userSpaceOnUse">
<stop stop-color="#675444"/>
<stop offset="0.645" stop-color="#67472C"/>
<stop offset="1" stop-color="#675444"/>
</linearGradient>
<linearGradient id="paint52_linear_246_6001" x1="1403" y1="5210" x2="1403" y2="5314" gradientUnits="userSpaceOnUse">
<stop stop-color="#675444"/>
<stop offset="0.645" stop-color="#67472C"/>
<stop offset="1" stop-color="#675444"/>
</linearGradient>
<clipPath id="clip0_246_6001">
<rect width="1440" height="15213" fill="white"/>
</clipPath>
</defs>
</svg>
