<svg width="102" height="99" viewBox="0 0 102 99" fill="none" xmlns="http://www.w3.org/2000/svg">
<rect width="101.339" height="99" fill="#EF6C00"/>
<path d="M12.6926 64.7638V48.4238H6.34632V41.4209H26.9719V48.4238H20.6255V64.7638H12.6926Z" fill="#FCFCFC"/>
<path d="M23.0054 54.6485V77.9914H29.7484V60.8733L33.7148 77.9914H39.6645L43.2343 60.8733V77.9914H49.9773V54.6485H39.2679L36.888 67.4871L33.7148 54.6485H23.0054Z" fill="#FCFCFC"/>
<path d="M53.1504 91.219V68.6543H60.29V77.6023L64.6531 68.6543H73.776L66.6364 79.1585L73.776 91.219H65.4464L60.29 81.8819V91.219H53.1504Z" fill="#FCFCFC"/>
<path d="M60.29 41.4209C35.2221 16.8331 9.6517 11.983 0 12.6314C14.6759 10.8158 46.0108 9.13014 70.6028 33.2509C91.8631 54.1038 91.0961 85.7723 88.0552 99C89.2451 90.0519 85.358 66.0087 60.29 41.4209Z" fill="#FCFCFC"/>
</svg>
