<svg width="194" height="161" viewBox="0 0 194 161" fill="none" xmlns="http://www.w3.org/2000/svg">
<path fill-rule="evenodd" clip-rule="evenodd" d="M11 -4.02145e-06C4.92487 -3.75589e-06 5.91847e-07 4.92486 5.91847e-07 11L-4.80825e-07 150C-2.15273e-07 156.075 4.92487 161 11 161L81 161C87.0751 161 92 156.075 92 150L92 11C92 4.92486 87.0751 -7.3468e-06 81 -7.08124e-06L11 -4.02145e-06ZM4 150C4 153.866 7.13401 157 11 157L81 157C84.866 157 88 153.866 88 150L88 11C88 7.134 84.866 3.99999 81 3.99999L11 4C7.134 4 3.99999 7.134 3.99999 11L4 150Z" fill="#FBE8A2"/>
<rect x="29" width="34" height="11" rx="3" fill="#FBE8A2"/>
<rect x="45" y="72" width="90" height="86" fill="#675444"/>
<path fill-rule="evenodd" clip-rule="evenodd" d="M194 80C194 73.9249 189.075 69 183 69L44 69C37.9249 69 33 73.9249 33 80L33 150C33 156.075 37.9249 161 44 161L183 161C189.075 161 194 156.075 194 150V80ZM44 73C40.134 73 37 76.134 37 80V150C37 153.866 40.134 157 44 157H183C186.866 157 190 153.866 190 150V80C190 76.134 186.866 73 183 73H44Z" fill="white"/>
<rect width="37.3386" height="36.4769" transform="translate(95 97)" fill="#EF6C00"/>
<path d="M99.6767 120.863V114.842H97.3383V112.262H104.938V114.842H102.6V120.863H99.6767Z" fill="#FCFCFC"/>
<path d="M103.476 117.136V125.737H105.961V119.429L107.422 125.737H109.615L110.93 119.429V125.737H113.414V117.136H109.468L108.592 121.866L107.422 117.136H103.476Z" fill="#FCFCFC"/>
<path d="M114.583 130.61V122.296H117.214V125.593L118.822 122.296H122.183L119.552 126.167L122.183 130.61H119.114L117.214 127.17V130.61H114.583Z" fill="#FCFCFC"/>
<path d="M117.214 112.262C107.978 103.203 98.5562 101.415 95 101.654C100.407 100.985 111.953 100.364 121.014 109.252C128.847 116.935 128.565 128.603 127.444 133.477C127.883 130.18 126.45 121.321 117.214 112.262Z" fill="#FCFCFC"/>
<rect x="194" y="98" width="34" height="11" rx="3" transform="rotate(90 194 98)" fill="white"/>
<path d="M143 59L147.559 48.391L136.092 49.7475L143 59ZM105 22C122.435 22 137.055 34.06 140.97 50.2942L142.914 49.8253C138.788 32.7137 123.38 20 105 20V22Z" fill="white"/>
</svg>
