<svg width="267" height="56" viewBox="0 0 267 56" fill="none" xmlns="http://www.w3.org/2000/svg">
<circle cx="3" cy="3" r="3" transform="matrix(-1 0 0 1 266 25)" stroke="white"/>
<path d="M260 28L180 28" stroke="white"/>
<path d="M0.5 28C0.5 29.1397 1.0448 30.3023 2.1875 31.4812C3.33205 32.662 5.04553 33.8251 7.29594 34.9483C11.795 37.1939 18.3377 39.2303 26.4637 40.9458C42.7074 44.375 65.1711 46.5 90 46.5C114.829 46.5 137.293 44.375 153.536 40.9458C161.662 39.2303 168.205 37.1939 172.704 34.9483C174.954 33.8251 176.668 32.662 177.812 31.4812C178.955 30.3023 179.5 29.1397 179.5 28C179.5 26.8603 178.955 25.6977 177.812 24.5188C176.668 23.338 174.954 22.1749 172.704 21.0517C168.205 18.8061 161.662 16.7697 153.536 15.0542C137.293 11.625 114.829 9.5 90 9.5C65.1711 9.5 42.7074 11.625 26.4637 15.0542C18.3377 16.7697 11.795 18.8061 7.29594 21.0517C5.04553 22.1749 3.33205 23.338 2.1875 24.5188C1.0448 25.6977 0.5 26.8603 0.5 28Z" stroke="url(#paint0_linear_250_212)"/>
<defs>
<linearGradient id="paint0_linear_250_212" x1="92.5" y1="28" x2="92.5" y2="14" gradientUnits="userSpaceOnUse">
<stop stop-color="white"/>
<stop offset="1" stop-color="white" stop-opacity="0"/>
</linearGradient>
</defs>
</svg>
