<svg width="327" height="38" viewBox="0 0 327 38" fill="none" xmlns="http://www.w3.org/2000/svg">
<circle cx="4" cy="19" r="3" stroke="white"/>
<path d="M7 19L147 19" stroke="white"/>
<path d="M326.5 19C326.5 20.1397 325.955 21.3023 324.812 22.4812C323.668 23.662 321.954 24.8251 319.704 25.9483C315.205 28.1939 308.662 30.2303 300.536 31.9458C284.293 35.375 261.829 37.5 237 37.5C212.171 37.5 189.707 35.375 173.464 31.9458C165.338 30.2303 158.795 28.1939 154.296 25.9483C152.046 24.8251 150.332 23.662 149.188 22.4812C148.045 21.3023 147.5 20.1397 147.5 19C147.5 17.8603 148.045 16.6977 149.188 15.5188C150.332 14.338 152.046 13.1749 154.296 12.0517C158.795 9.80613 165.338 7.76967 173.464 6.05419C189.707 2.62496 212.171 0.5 237 0.5C261.829 0.5 284.293 2.62496 300.536 6.05419C308.662 7.76967 315.205 9.80613 319.704 12.0517C321.954 13.1749 323.668 14.338 324.812 15.5188C325.955 16.6977 326.5 17.8603 326.5 19Z" stroke="url(#paint0_linear_247_7)"/>
<defs>
<linearGradient id="paint0_linear_247_7" x1="234.5" y1="19" x2="234.5" y2="5" gradientUnits="userSpaceOnUse">
<stop stop-color="white"/>
<stop offset="1" stop-color="white" stop-opacity="0"/>
</linearGradient>
</defs>
</svg>
