<svg width="685" height="367" viewBox="0 0 685 367" fill="none" xmlns="http://www.w3.org/2000/svg">
<mask id="mask0_265_603" style="mask-type:alpha" maskUnits="userSpaceOnUse" x="0" y="0" width="685" height="367">
<rect x="0.0546875" y="0.186035" width="684.094" height="366.761" fill="#D9D9D9"/>
</mask>
<g mask="url(#mask0_265_603)">
<path d="M5.13876 17.7186C8.97611 17.9715 14.7928 18.3199 21.7868 19.3619C37.625 21.7196 48.8564 23.406 59.0797 31.2237C64.8061 35.5887 71.1946 42.6587 72.5425 41.5841C73.2182 41.0332 71.8779 39.0103 72.8405 36.338C73.8032 33.6657 75.9942 33.5018 76.2107 32.3948C76.3636 31.6626 75.6059 30.5638 74.084 29.2826C67.1252 23.4161 44.1107 13.5219 17.6785 14.388C9.11612 14.6685 0.0758506 16.0762 0.123905 16.9696C0.147071 17.3954 1.96987 17.5301 5.13876 17.7186Z" fill="url(#paint0_linear_265_603)"/>
<path d="M5.13975 17.7186C8.97709 17.9714 14.7938 18.3199 21.7877 19.3618C37.626 21.7196 48.8574 23.406 59.0807 31.2236C64.807 35.5886 71.1956 42.6587 72.5435 41.5841C73.2192 41.0332 71.8788 39.0102 72.8415 36.3379C73.8041 33.6656 75.9952 33.5017 76.2117 32.3947C76.3645 31.6626 75.6069 30.5637 74.0849 29.2825C74.0573 30.369 73.7817 31.2561 73.1475 31.7508C71.5663 32.9536 68.7326 31.0628 67.9763 32.0692C66.9319 33.4796 71.565 38.3683 70.9241 39.0282C70.4568 39.513 67.6056 37.4015 67.22 37.1159C62.721 33.7634 60.4596 32.0716 57.0353 28.2342C53.1744 23.9098 47.3164 22.7798 35.6043 20.5168C32.3021 19.9 12.042 15.9911 5.13975 17.7186Z" fill="#E17E4B"/>
<path d="M250.913 141.646C269.637 150.77 288.17 163.629 290.293 160.845C291.072 159.814 289.085 157.36 290.467 154.116C291.61 151.436 293.736 151.297 293.837 150.172C293.889 149.616 293.421 149.048 292.531 148.456C287.417 145.116 268.372 141.121 251.773 134.118C242.147 130.05 233.009 124.854 224.553 118.64C221.126 115.606 219.007 114.299 217.681 113.891C217.413 113.771 217.124 113.712 216.834 113.72C216.544 113.727 216.26 113.8 216.005 113.934C214.889 114.672 215.813 116.845 214.229 119.27C212.645 121.694 210.16 121.527 210.074 122.504C209.572 127.277 227.969 130.46 250.913 141.646Z" fill="url(#paint1_linear_265_603)"/>
<path d="M250.913 141.646C269.637 150.77 288.17 163.629 290.293 160.845C291.072 159.814 289.085 157.36 290.467 154.116C291.61 151.436 293.736 151.297 293.837 150.172C293.889 149.616 293.421 149.048 292.531 148.456C292.198 149.096 291.828 149.715 291.422 150.31C290.873 151.122 287.713 155.595 283.913 156.49C279.488 157.522 275.015 153.491 272.631 151.48C262.45 142.903 251.671 138.625 239.997 133.992C226.421 128.608 212.582 127.131 212.742 124.257C212.809 122.764 216.656 121.858 216.571 119.256C216.523 117.857 215.365 116.651 216.001 115.249C216.189 114.839 216.485 114.49 216.857 114.24C217.11 114.073 217.392 113.953 217.688 113.885C217.421 113.765 217.131 113.707 216.841 113.714C216.551 113.721 216.268 113.795 216.013 113.928C214.896 114.667 215.821 116.839 214.237 119.264C212.653 121.688 210.168 121.521 210.081 122.499C209.572 127.277 227.969 130.46 250.913 141.646Z" fill="#E17E4B"/>
<path d="M168.641 114.75C188.459 120.948 208.65 130.877 210.32 127.79C210.933 126.652 208.606 124.518 209.48 121.088C210.199 118.262 212.276 117.797 212.205 116.668C212.16 116.087 211.625 115.613 210.647 115.174C205.097 112.622 185.751 111.583 168.346 107.165C158.252 104.597 148.469 100.837 139.205 95.9632C135.372 93.4778 133.087 92.5061 131.719 92.2967C131.438 92.223 131.146 92.213 130.864 92.2678C130.582 92.3225 130.317 92.4404 130.089 92.6129C129.097 93.5151 130.326 95.5113 129.141 98.1748C127.955 100.838 125.473 101.032 125.522 102.029C125.76 106.801 144.351 107.163 168.641 114.75Z" fill="url(#paint2_linear_265_603)"/>
<path d="M168.646 114.75C188.464 120.948 208.655 130.877 210.324 127.79C210.938 126.652 208.611 124.518 209.485 121.088C210.204 118.262 212.28 117.797 212.21 116.668C212.164 116.087 211.63 115.613 210.652 115.174C210.421 115.86 210.15 116.531 209.841 117.183C209.42 118.07 206.991 122.997 203.357 124.474C199.154 126.168 194.146 122.858 191.488 121.222C180.175 114.258 168.907 111.669 156.72 108.868C142.541 105.593 128.691 106.244 128.401 103.372C128.253 101.872 131.896 100.4 131.413 97.8422C131.153 96.457 129.834 95.4342 130.25 93.9413C130.371 93.5028 130.61 93.1084 130.94 92.8005C131.164 92.5955 131.422 92.4323 131.704 92.318C131.423 92.2443 131.131 92.2344 130.849 92.2891C130.567 92.3438 130.302 92.4617 130.073 92.6342C129.082 93.5364 130.311 95.5327 129.126 98.1962C127.94 100.86 125.458 101.053 125.507 102.051C125.764 106.801 144.355 107.163 168.646 114.75Z" fill="#E17E4B"/>
<path d="M171.145 298.869C158.697 309.57 143.586 318.86 144.961 321.379C145.471 322.31 147.874 321.682 149.834 323.832C151.434 325.595 150.878 327.213 151.667 327.672C152.059 327.904 152.617 327.751 153.323 327.287C157.335 324.654 166.142 311.95 176.385 302.089C182.329 296.372 188.944 291.403 196.089 287.285C199.363 285.793 200.972 284.674 201.68 283.833C201.849 283.677 201.979 283.484 202.062 283.267C202.144 283.051 202.176 282.818 202.155 282.585C201.943 281.514 200.088 281.448 198.81 279.444C197.533 277.441 198.423 275.662 197.732 275.251C194.411 273.257 186.393 285.743 171.145 298.869Z" fill="url(#paint3_linear_265_603)"/>
<path d="M171.146 298.869C158.697 309.571 143.586 318.86 144.962 321.38C145.471 322.31 147.875 321.683 149.835 323.832C151.435 325.596 150.879 327.213 151.667 327.673C152.06 327.904 152.617 327.751 153.323 327.288C152.958 326.821 152.62 326.334 152.31 325.829C151.887 325.147 149.595 321.28 150.126 318.166C150.744 314.542 155.064 312.623 157.272 311.548C166.674 306.963 173.125 300.467 180.12 293.429C188.242 285.248 193.579 275.541 195.647 276.622C196.715 277.196 196.185 280.334 198.107 281.169C199.143 281.613 200.385 281.166 201.225 282.104C201.464 282.385 201.625 282.724 201.694 283.084C201.739 283.329 201.74 283.579 201.695 283.822C201.864 283.666 201.995 283.472 202.077 283.256C202.16 283.04 202.192 282.806 202.171 282.573C201.959 281.503 200.103 281.436 198.826 279.433C197.549 277.43 198.439 275.651 197.748 275.24C194.411 273.258 186.393 285.743 171.146 298.869Z" fill="#E17E4B"/>
<path d="M97.0587 350.473C86.3198 352.89 74.6864 353 74.4594 355.556C74.3846 356.493 75.9141 357.128 76.148 359.642C76.34 361.713 75.4287 362.689 75.6821 363.402C75.8043 363.753 76.1594 363.895 76.7062 363.855C79.8622 363.702 89.3951 358.095 98.6305 355.307C103.855 353.711 109.319 352.971 114.815 353.115C117.14 353.483 118.43 353.376 119.125 353.064C119.293 353.002 119.444 352.905 119.57 352.778C119.696 352.652 119.793 352.499 119.854 352.33C120.156 351.423 119.175 350.513 119.246 348.408C119.317 346.303 120.467 345.355 120.251 344.724C119.254 341.713 110.215 347.511 97.0587 350.473Z" fill="url(#paint4_linear_265_603)"/>
<path d="M97.0587 350.473C86.3198 352.89 74.6864 353 74.4594 355.556C74.3846 356.493 75.9141 357.128 76.148 359.642C76.34 361.713 75.4287 362.689 75.6821 363.402C75.8043 363.753 76.1594 363.895 76.7062 363.855C76.689 363.381 76.689 362.852 76.7145 362.284C76.7631 361.557 76.9768 357.576 78.4291 355.437C80.1483 352.953 83.1768 353.494 84.7709 353.692C91.5584 354.534 97.4799 352.561 103.898 350.426C111.363 347.944 117.913 343.017 118.597 344.787C118.974 345.733 117.482 347.859 118.213 349.391C118.603 350.203 119.437 350.437 119.521 351.537C119.543 351.864 119.502 352.19 119.399 352.498C119.334 352.699 119.241 352.888 119.122 353.06C119.29 352.998 119.441 352.901 119.567 352.774C119.693 352.648 119.79 352.495 119.851 352.326C120.153 351.419 119.172 350.509 119.243 348.404C119.314 346.299 120.464 345.351 120.248 344.72C119.254 341.713 110.215 347.511 97.0587 350.473Z" fill="#E17E4B"/>
<path d="M189.992 229.824C189.67 250.751 185.803 272.97 189.267 273.864C190.545 274.191 191.951 271.391 195.523 271.421C198.471 271.445 199.509 273.371 200.586 273.032C201.122 272.859 201.437 272.206 201.59 271.141C202.46 265.097 197.95 245.845 197.257 227.704C196.86 217.179 197.708 206.672 199.782 196.405C201.092 192.047 201.385 189.569 201.192 188.177C201.185 187.884 201.112 187.595 200.979 187.331C200.846 187.067 200.657 186.836 200.424 186.654C199.254 185.906 197.667 187.6 194.761 187.069C191.856 186.539 190.943 184.16 189.993 184.446C185.441 185.832 190.401 204.157 189.992 229.824Z" fill="url(#paint5_linear_265_603)"/>
<path d="M189.992 229.824C189.67 250.751 185.803 272.97 189.267 273.864C190.545 274.191 191.952 271.391 195.523 271.421C198.471 271.445 199.509 273.371 200.586 273.032C201.122 272.859 201.438 272.206 201.59 271.141C200.859 271.084 200.13 270.979 199.41 270.829C198.43 270.632 192.945 269.446 190.511 266.247C187.677 262.522 189.447 256.815 190.267 253.82C193.77 241.03 193.07 229.355 192.315 216.707C191.418 201.992 186.842 188.567 189.544 187.595C190.957 187.081 193.414 190.311 195.772 189.22C197.042 188.636 197.651 187.088 199.209 187.135C199.593 187.15 199.971 187.25 200.315 187.429C200.659 187.609 200.962 187.862 201.199 188.171C201.193 187.878 201.12 187.589 200.987 187.325C200.854 187.061 200.664 186.83 200.432 186.648C199.262 185.9 197.675 187.594 194.769 187.063C191.864 186.533 190.95 184.154 190 184.44C185.442 185.832 190.401 204.157 189.992 229.824Z" fill="#E17E4B"/>
<path d="M95.2965 66.5167C104.325 77.9036 110.929 91.5353 114.267 90.4747C115.496 90.0818 115.442 87.955 118.483 86.3866C120.997 85.0899 122.739 85.6558 123.49 84.9984C123.853 84.6851 123.847 84.1787 123.505 83.5396C121.553 79.9062 109.174 71.5791 100.517 62.1514C95.6246 56.8729 91.644 50.8136 88.7463 44.2341C87.9179 41.3106 87.0667 39.8516 86.2823 39.192C86.1042 39.0241 85.8942 38.8946 85.6655 38.8119C85.4369 38.7292 85.1947 38.695 84.9545 38.7116C83.6326 38.8241 83.0381 40.4464 80.339 41.4526C77.6398 42.4588 75.8085 41.5854 75.1295 42.1635C71.8847 44.9274 84.2388 52.5652 95.2965 66.5167Z" fill="url(#paint6_linear_265_603)"/>
<path d="M95.2929 66.5168C104.322 77.9038 110.926 91.5355 114.263 90.4749C115.492 90.082 115.438 87.9551 118.479 86.3868C120.994 85.0901 122.736 85.656 123.486 84.9985C123.85 84.6853 123.843 84.1789 123.502 83.5397C122.91 83.8053 122.247 84.0812 121.514 84.3431C120.594 84.6674 115.423 86.4573 111.933 85.8299C107.865 85.0998 106.835 81.2394 106.199 79.2653C103.49 70.8563 97.6837 64.9076 91.4493 58.4593C84.1616 50.9584 74.2973 45.7871 76.1568 44.0646C77.1275 43.1662 80.6521 43.7985 82.1618 42.1697C82.9745 41.2928 82.8107 40.1919 84.1496 39.5245C84.5493 39.3316 84.9812 39.2116 85.4255 39.1697C85.7134 39.1455 86.0041 39.1582 86.2905 39.2077C86.1125 39.0398 85.9024 38.9104 85.6738 38.8277C85.4451 38.745 85.2029 38.7107 84.9627 38.7273C83.6408 38.8398 83.0463 40.4622 80.3472 41.4684C77.648 42.4746 75.8168 41.6012 75.1377 42.1793C71.8811 44.9275 84.2352 52.5654 95.2929 66.5168Z" fill="#E17E4B"/>
<path d="M372.006 125.242C372.318 125.37 372.654 125.426 372.987 125.406C373.32 125.386 373.642 125.29 373.93 125.126C374.218 124.962 374.464 124.734 374.65 124.458C374.836 124.183 374.956 123.868 375.003 123.536C375.181 121.957 375.592 120.419 376.224 118.973C377.053 117.271 378.905 115.801 380.45 114.81C381.091 114.396 381.688 114.066 382.113 113.835C382.196 113.789 382.265 113.722 382.315 113.641C382.364 113.56 382.392 113.467 382.396 113.371C382.4 113.276 382.38 113.18 382.337 113.093C382.295 113.006 382.231 112.931 382.153 112.874L371.235 101.835C370.559 101.302 368.407 101.399 366.951 101.675C366.576 101.741 366.208 101.843 365.854 101.98L359.061 104.911L354.243 101.124L352.206 108.044L356.995 109.162L360.262 116.137L370.196 123.946L371.439 124.923C371.61 125.06 371.801 125.168 372.006 125.242Z" fill="url(#paint7_linear_265_603)"/>
<path d="M372.458 111.699C376.862 114.705 381.596 115.378 383.031 113.208C384.466 111.039 382.068 106.834 377.667 103.832C373.266 100.829 368.529 100.153 367.09 102.325C365.651 104.498 368.072 108.716 372.458 111.699Z" fill="#E17E4B"/>
<path d="M372.833 110.567C376.429 113.018 380.295 113.569 381.471 111.794C382.647 110.018 380.684 106.591 377.084 104.137C373.485 101.683 369.623 101.129 368.447 102.904C367.271 104.679 369.249 108.102 372.833 110.567Z" fill="#772A1C"/>
<path style="mix-blend-mode:soft-light" d="M372.009 125.242C369.678 122.803 365.763 118.55 366.129 117.797C366.647 116.732 372.47 115.727 372.47 115.727C372.47 115.727 370.302 111.968 367.102 110.332C363.902 108.695 358.041 107.031 358.041 107.031L354.253 101.118L352.215 108.038L357.005 109.156L360.272 116.131L371.448 124.917C371.617 125.056 371.806 125.166 372.009 125.242Z" fill="url(#paint8_linear_265_603)"/>
<path d="M358.592 108.64L367.1 110.335L361.881 106.637C361.798 106.559 361.733 106.465 361.69 106.361C361.647 106.256 361.626 106.144 361.63 106.032C361.634 105.92 361.663 105.81 361.713 105.712C361.764 105.613 361.836 105.526 361.923 105.459L366.947 101.681C366.571 101.747 366.204 101.849 365.85 101.986L359.057 104.917L354.239 101.13L358.592 108.64Z" fill="#FFE6DC"/>
<path d="M378.226 114.42C378.49 114.634 378.796 114.786 379.123 114.866C379.45 114.946 379.789 114.951 380.115 114.881C380.441 114.81 380.745 114.667 381.005 114.46C381.265 114.254 381.474 113.99 381.616 113.689C382.251 112.245 383.097 110.908 384.127 109.722C385.418 108.352 387.631 107.506 389.406 107.024C390.149 106.822 390.804 106.687 391.3 106.587C391.393 106.569 391.48 106.526 391.552 106.464C391.623 106.401 391.677 106.321 391.709 106.231C391.741 106.141 391.75 106.044 391.734 105.948C391.718 105.853 391.678 105.763 391.619 105.686L384.337 91.9783C383.838 91.2743 381.738 90.7281 380.254 90.5638C379.873 90.5129 379.49 90.5013 379.109 90.5294L371.721 91.3022L368.188 86.2785L364.202 92.2425L368.492 94.7193L369.598 102.309L376.871 112.661L377.784 113.956C377.907 114.132 378.056 114.289 378.226 114.42Z" fill="url(#paint9_linear_265_603)"/>
<path d="M382.611 101.69C385.972 105.847 390.33 107.884 392.348 106.251C394.365 104.617 393.281 99.9179 389.929 95.7728C386.577 91.6276 382.21 89.5791 380.192 91.2192C378.173 92.8593 379.25 97.5403 382.611 101.69Z" fill="#E17E4B"/>
<path d="M383.32 100.722C386.064 104.116 389.627 105.779 391.276 104.444C392.925 103.109 392.038 99.2701 389.29 95.879C386.542 92.4879 382.987 90.8193 381.338 92.154C379.689 93.4886 380.588 97.3436 383.32 100.722Z" fill="#772A1C"/>
<path style="mix-blend-mode:soft-light" d="M378.226 114.419C376.69 111.412 374.169 106.216 374.741 105.608C375.551 104.752 381.447 105.52 381.447 105.52C381.447 105.52 380.461 101.306 377.858 98.8091C375.254 96.3118 370.104 93.005 370.104 93.005L368.188 86.2713L364.202 92.2353L368.492 94.7121L369.598 102.302L377.785 113.935C377.906 114.118 378.055 114.282 378.226 114.419Z" fill="url(#paint10_linear_265_603)"/>
<path d="M370.156 94.685L377.859 98.8093L373.927 93.7508C373.87 93.6547 373.834 93.5477 373.822 93.4374C373.811 93.327 373.823 93.2159 373.858 93.112C373.894 93.008 373.952 92.9137 374.028 92.8356C374.105 92.7575 374.197 92.6976 374.3 92.66L380.237 90.5578C379.857 90.5068 379.473 90.4953 379.092 90.5233L371.705 91.2961L368.172 86.2725L370.156 94.685Z" fill="#FFE6DC"/>
<path d="M388.504 103.289C388.745 103.594 389.051 103.842 389.398 104.014C389.745 104.185 390.125 104.277 390.508 104.281C390.891 104.286 391.269 104.203 391.612 104.039C391.955 103.876 392.256 103.635 392.491 103.336C393.557 101.886 394.837 100.609 396.287 99.5488C398.078 98.3528 400.778 97.9803 402.882 97.8763C403.758 97.8259 404.535 97.8508 405.109 97.8632C405.219 97.8666 405.328 97.8416 405.424 97.7906C405.52 97.7396 405.602 97.6642 405.66 97.5718C405.718 97.4793 405.751 97.3728 405.756 97.2624C405.762 97.1521 405.739 97.0416 405.689 96.9415L400.9 79.8911C400.518 78.9864 398.298 77.8546 396.676 77.2961C396.262 77.1449 395.835 77.0365 395.402 76.9724L386.918 75.98L384.191 69.5176L378.251 75.1509L382.447 78.9744L381.816 87.682L387.435 100.998L388.113 102.681C388.21 102.903 388.342 103.108 388.504 103.289Z" fill="url(#paint11_linear_265_603)"/>
<path d="M396.568 90.2528C399.316 95.7074 403.704 99.0642 406.372 97.7488C409.041 96.4334 408.982 90.9475 406.234 85.493C403.487 80.0384 399.099 76.6816 396.43 77.997C393.762 79.3124 393.833 84.8071 396.568 90.2528Z" fill="#E17E4B"/>
<path d="M397.587 89.3407C399.827 93.7957 403.418 96.5394 405.597 95.4667C407.777 94.3939 407.728 89.9101 405.485 85.4512C403.242 80.9924 399.658 78.2565 397.478 79.3292C395.299 80.4019 395.351 84.8828 397.587 89.3407Z" fill="#772A1C"/>
<path style="mix-blend-mode:soft-light" d="M388.504 103.29C387.526 99.5683 385.976 93.1658 386.767 92.632C387.884 91.8868 394.318 94.2169 394.318 94.2169C394.318 94.2169 394.249 89.2869 391.944 85.8609C389.638 82.4349 384.671 77.462 384.671 77.462L384.18 69.5024L378.24 75.1358L382.435 78.9593L381.805 87.6669L388.121 102.651C388.212 102.883 388.342 103.099 388.504 103.29Z" fill="url(#paint12_linear_265_603)"/>
<path d="M384.316 79.3556L391.947 85.8686L388.783 79.2653C388.739 79.1424 388.724 79.0119 388.736 78.8833C388.749 78.7547 388.79 78.6313 388.857 78.5219C388.923 78.4124 389.013 78.3198 389.12 78.2506C389.227 78.1813 389.349 78.1373 389.477 78.1216L396.653 77.2759C396.239 77.1248 395.812 77.0164 395.378 76.9523L386.894 75.9598L384.167 69.4975L384.316 79.3556Z" fill="#FFE6DC"/>
<path d="M401.052 93.2356C401.211 93.5885 401.447 93.9026 401.741 94.1547C402.035 94.4068 402.38 94.5903 402.75 94.6917C403.121 94.7931 403.507 94.8098 403.881 94.7405C404.255 94.6711 404.607 94.5176 404.911 94.2913C406.32 93.1775 407.892 92.2852 409.573 91.6438C411.619 90.9563 414.332 91.2817 416.411 91.7452C417.275 91.9319 418.022 92.1462 418.582 92.3052C418.687 92.3378 418.799 92.3426 418.905 92.3191C419.012 92.2956 419.11 92.2447 419.19 92.1713C419.271 92.0979 419.33 92.0044 419.363 91.9C419.396 91.7955 419.402 91.6836 419.38 91.5751L419.079 73.9427C418.944 72.9741 417.076 71.3092 415.634 70.355C415.271 70.1031 414.883 69.888 414.479 69.7131L406.483 66.5564L405.487 59.6404L398.264 63.5086L401.364 68.2707L398.522 76.4677L400.578 90.7141L400.829 92.4998C400.863 92.7548 400.938 93.0034 401.052 93.2356Z" fill="url(#paint13_linear_265_603)"/>
<path d="M412.228 82.8035C413.499 88.7528 416.903 93.1169 419.838 92.5472C422.773 91.9775 424.115 86.6885 422.844 80.7393C421.572 74.79 418.165 70.4288 415.23 70.9985C412.295 71.5682 410.949 76.8601 412.228 82.8035Z" fill="#E17E4B"/>
<path d="M413.459 82.1959C414.496 87.0546 417.281 90.6208 419.675 90.1546C422.069 89.6883 423.167 85.3673 422.13 80.5086C421.092 75.65 418.307 72.0838 415.913 72.55C413.519 73.0163 412.427 77.3451 413.459 82.1959Z" fill="#772A1C"/>
<path style="mix-blend-mode:soft-light" d="M401.049 93.2355C401.054 89.4071 401.183 82.8549 402.094 82.55C403.372 82.1195 409.028 86.0273 409.028 86.0273C409.028 86.0273 410.224 81.2742 408.856 77.3879C407.487 73.5017 403.939 67.437 403.939 67.437L405.502 59.6638L398.28 63.5319L401.379 68.2941L398.538 76.4911L400.844 92.5231C400.875 92.7692 400.944 93.0097 401.049 93.2355Z" fill="url(#paint14_linear_265_603)"/>
<path d="M403.115 69.1605L408.856 77.3881L407.476 70.2283C407.467 70.0997 407.487 69.9714 407.533 69.8526C407.58 69.7337 407.652 69.6273 407.745 69.5408C407.837 69.4543 407.948 69.39 408.07 69.3524C408.191 69.3147 408.32 69.3047 408.447 69.323L415.64 70.3737C415.276 70.1218 414.889 69.9067 414.484 69.7317L406.489 66.5751L405.493 59.659L403.115 69.1605Z" fill="#FFE6DC"/>
<path d="M419.452 90.4094C419.612 90.7623 419.847 91.0765 420.141 91.3285C420.435 91.5806 420.78 91.7641 421.151 91.8655C421.521 91.9669 421.908 91.9836 422.282 91.9143C422.656 91.845 423.008 91.6915 423.311 91.4652C424.721 90.3513 426.292 89.459 427.974 88.8176C430.019 88.1301 432.733 88.4556 434.812 88.919C435.678 89.1096 436.425 89.3239 436.981 89.4859C437.087 89.518 437.199 89.5224 437.306 89.4986C437.412 89.4749 437.511 89.4237 437.591 89.3501C437.672 89.2766 437.732 89.183 437.765 89.0784C437.799 88.9738 437.805 88.8617 437.783 88.7528L437.483 71.1204C437.347 70.1517 435.479 68.487 434.041 67.5366C433.677 67.2847 433.29 67.0697 432.885 66.8947L424.89 63.7381L423.89 56.8249L416.671 60.6903L419.77 65.4524L416.932 73.6532L418.98 87.8986L419.236 89.6814C419.267 89.9337 419.34 90.1799 419.452 90.4094Z" fill="url(#paint15_linear_265_603)"/>
<path d="M430.641 79.9687C431.912 85.9179 435.316 90.282 438.251 89.7123C441.186 89.1426 442.524 83.8566 441.256 77.9045C439.989 71.9523 436.577 67.594 433.642 68.1637C430.707 68.7334 429.369 74.0194 430.641 79.9687Z" fill="#E17E4B"/>
<path d="M431.881 79.3727C432.918 84.2313 435.703 87.7975 438.097 87.3313C440.491 86.865 441.592 82.5478 440.552 77.6853C439.512 72.8228 436.73 69.2605 434.336 69.7267C431.941 70.1929 430.828 74.5256 431.881 79.3727Z" fill="#772A1C"/>
<path style="mix-blend-mode:soft-light" d="M419.452 90.4094C419.457 86.5809 419.585 80.0287 420.496 79.7238C421.774 79.3001 427.43 83.2012 427.43 83.2012C427.43 83.2012 428.629 78.452 427.258 74.5618C425.887 70.6716 422.341 64.6108 422.341 64.6108L423.901 56.8405L416.682 60.7058L419.781 65.468L416.943 73.6688L419.247 89.697C419.276 89.9433 419.345 90.184 419.452 90.4094Z" fill="url(#paint16_linear_265_603)"/>
<path d="M421.53 66.3255L427.271 74.5531L425.887 67.3961C425.879 67.2672 425.9 67.1388 425.947 67.0199C425.994 66.9011 426.067 66.7948 426.16 66.7085C426.254 66.6222 426.365 66.558 426.487 66.5206C426.609 66.4832 426.738 66.4734 426.865 66.4919L434.062 67.5397C433.698 67.2878 433.311 67.0727 432.906 66.8978L424.911 63.7411L423.911 56.8279L421.53 66.3255Z" fill="#FFE6DC"/>
<path d="M322.041 158.82C322.209 159.081 322.432 159.301 322.693 159.466C322.955 159.63 323.248 159.735 323.552 159.771C323.856 159.807 324.163 159.774 324.45 159.674C324.736 159.574 324.995 159.411 325.208 159.195C326.193 158.138 327.332 157.236 328.587 156.52C330.119 155.736 332.296 155.663 333.989 155.786C334.691 155.831 335.294 155.92 335.767 155.973C335.854 155.984 335.942 155.974 336.022 155.942C336.103 155.909 336.174 155.857 336.228 155.789C336.282 155.722 336.318 155.641 336.333 155.554C336.347 155.468 336.339 155.379 336.31 155.295L334.003 141.351C333.779 140.597 332.11 139.502 330.864 138.916C330.548 138.759 330.218 138.635 329.878 138.545L323.206 137L321.607 131.633L316.375 135.564L319.376 138.971L318.106 145.819L321.397 156.865L321.808 158.252C321.855 158.452 321.933 158.644 322.041 158.82Z" fill="url(#paint17_linear_265_603)"/>
<path d="M329.62 149.205C331.302 153.789 334.522 156.827 336.768 156.024C339.014 155.221 339.458 150.862 337.742 146.298C336.026 141.733 332.837 138.672 330.594 139.479C328.351 140.286 327.912 144.635 329.62 149.205Z" fill="#E17E4B"/>
<path d="M330.528 148.581C331.921 152.318 334.535 154.814 336.367 154.153C338.198 153.493 338.57 149.934 337.162 146.208C335.753 142.481 333.157 139.979 331.325 140.639C329.494 141.299 329.137 144.847 330.528 148.581Z" fill="#772A1C"/>
<path style="mix-blend-mode:soft-light" d="M322.048 158.82C321.6 155.78 320.928 150.563 321.606 150.214C322.568 149.722 327.482 152.143 327.482 152.143C327.482 152.143 327.863 148.231 326.331 145.307C324.799 142.384 321.279 138.002 321.279 138.002L321.594 131.647L316.362 135.578L319.363 138.986L318.094 145.833L321.801 158.275C321.854 158.468 321.937 158.652 322.048 158.82Z" fill="url(#paint18_linear_265_603)"/>
<path d="M320.836 139.467L326.335 145.305L324.396 139.79C324.375 139.688 324.376 139.584 324.4 139.484C324.423 139.385 324.468 139.292 324.532 139.212C324.595 139.133 324.676 139.069 324.767 139.025C324.859 138.981 324.959 138.958 325.062 138.957L330.856 138.928C330.54 138.771 330.21 138.647 329.87 138.557L323.197 137.012L321.598 131.645L320.836 139.467Z" fill="#FFE6DC"/>
<path d="M333.234 156.447C333.357 156.779 333.552 157.08 333.805 157.329C334.057 157.578 334.361 157.767 334.693 157.884C335.026 158 335.378 158.04 335.725 158.001C336.071 157.962 336.402 157.845 336.694 157.658C338.044 156.733 339.528 156.019 341.098 155.54C343.012 155.044 345.474 155.513 347.341 156.069C348.117 156.298 348.791 156.537 349.293 156.722C349.387 156.758 349.488 156.771 349.587 156.757C349.685 156.744 349.779 156.706 349.857 156.646C349.936 156.586 349.998 156.506 350.037 156.414C350.077 156.323 350.092 156.222 350.081 156.122L350.945 140.067C350.872 139.181 349.277 137.542 348.027 136.578C347.711 136.326 347.372 136.105 347.014 135.919L339.904 132.534L339.436 126.17L332.59 129.228L335.12 133.764L332.007 141.059L332.963 154.177L333.084 155.822C333.101 156.036 333.151 156.247 333.234 156.447Z" fill="url(#paint19_linear_265_603)"/>
<path d="M344.118 147.66C344.903 153.166 347.742 157.357 350.445 157.012C353.149 156.668 354.73 151.955 353.942 146.451C353.153 140.947 350.321 136.758 347.615 137.098C344.909 137.438 343.333 142.16 344.118 147.66Z" fill="#E17E4B"/>
<path d="M345.285 147.196C345.926 151.691 348.242 155.115 350.463 154.848C352.684 154.581 353.942 150.724 353.317 146.217C352.691 141.71 350.36 138.297 348.142 138.568C345.924 138.839 344.645 142.7 345.285 147.196Z" fill="#772A1C"/>
<path style="mix-blend-mode:soft-light" d="M333.241 156.447C333.487 152.959 334.022 146.996 334.873 146.78C336.077 146.48 340.99 150.392 340.99 150.392C340.99 150.392 342.383 146.142 341.38 142.508C340.377 138.873 337.517 133.128 337.517 133.128L339.419 126.139L332.572 129.197L335.102 133.733L331.99 141.028L333.078 155.782C333.094 156.011 333.149 156.235 333.241 156.447Z" fill="url(#paint20_linear_265_603)"/>
<path d="M336.654 134.645L341.378 142.507L340.564 135.902C340.565 135.785 340.591 135.669 340.641 135.564C340.691 135.46 340.764 135.368 340.855 135.295C340.945 135.223 341.051 135.172 341.164 135.146C341.277 135.12 341.396 135.12 341.51 135.146L348.008 136.571C347.692 136.319 347.353 136.098 346.996 135.912L339.885 132.527L339.417 126.163L336.654 134.645Z" fill="#FFE6DC"/>
<path d="M346.536 154.35C346.583 154.696 346.705 155.029 346.895 155.325C347.084 155.621 347.336 155.872 347.632 156.061C347.928 156.249 348.26 156.369 348.604 156.412C348.949 156.456 349.297 156.422 349.623 156.313C351.165 155.736 352.789 155.397 354.441 155.308C356.426 155.277 358.721 156.309 360.422 157.287C361.135 157.687 361.728 158.08 362.175 158.374C362.259 158.427 362.354 158.459 362.452 158.466C362.55 158.474 362.647 158.457 362.736 158.417C362.825 158.377 362.901 158.315 362.96 158.237C363.018 158.159 363.056 158.068 363.07 157.97L367.633 142.619C367.777 141.74 366.587 139.781 365.586 138.56C365.337 138.239 365.056 137.945 364.749 137.681L358.586 132.742L359.601 126.477L352.189 127.804L353.611 132.789L348.877 139.106L346.791 152.012L346.525 153.631C346.486 153.869 346.49 154.112 346.536 154.35Z" fill="url(#paint21_linear_265_603)"/>
<path d="M359.201 148.403C358.699 153.91 360.498 158.632 363.23 158.95C365.962 159.268 368.589 155.059 369.101 149.557C369.614 144.055 367.807 139.332 365.075 139.014C362.344 138.696 359.711 142.898 359.201 148.403Z" fill="#E17E4B"/>
<path d="M360.449 148.228C360.037 152.724 361.509 156.58 363.726 156.822C365.943 157.063 368.106 153.644 368.518 149.149C368.93 144.654 367.458 140.79 365.245 140.553C363.031 140.315 360.877 143.746 360.449 148.228Z" fill="#772A1C"/>
<path style="mix-blend-mode:soft-light" d="M346.533 154.35C347.579 151.035 349.482 145.393 350.364 145.382C351.605 145.361 355.509 150.312 355.509 150.312C355.509 150.312 357.856 146.525 357.719 142.78C357.583 139.034 356.112 132.799 356.112 132.799L359.609 126.5L352.197 127.826L353.619 132.811L348.885 139.128L346.533 153.654C346.493 153.883 346.493 154.119 346.533 154.35Z" fill="url(#paint22_linear_265_603)"/>
<path d="M354.921 134.066L357.724 142.78L358.46 136.196C358.488 136.082 358.541 135.976 358.614 135.885C358.688 135.795 358.781 135.723 358.887 135.673C358.992 135.624 359.108 135.599 359.226 135.601C359.343 135.602 359.459 135.63 359.566 135.681L365.602 138.579C365.353 138.259 365.073 137.964 364.765 137.7L358.603 132.762L359.617 126.497L354.921 134.066Z" fill="#FFE6DC"/>
<path d="M371.682 162.628C371.793 162.964 371.977 163.273 372.222 163.531C372.466 163.789 372.763 163.99 373.092 164.118C373.421 164.247 373.773 164.299 374.121 164.273C374.47 164.247 374.806 164.141 375.105 163.965C376.502 163.086 378.028 162.426 379.63 162.007C381.563 161.59 384.006 162.153 385.857 162.776C386.645 163.021 387.287 163.303 387.779 163.507C387.873 163.545 387.975 163.558 388.075 163.545C388.174 163.532 388.268 163.494 388.348 163.433C388.427 163.373 388.49 163.292 388.529 163.2C388.568 163.107 388.583 163.006 388.571 162.905L390.034 146.894C389.999 146.002 388.459 144.31 387.246 143.299C386.939 143.034 386.607 142.8 386.256 142.599L379.271 138.951L379.042 132.578L372.08 135.373L374.44 140.002L371.045 147.154L371.52 160.281L371.571 161.929C371.571 162.166 371.608 162.402 371.682 162.628Z" fill="url(#paint23_linear_265_603)"/>
<path d="M382.893 154.267C383.48 159.783 386.161 164.099 388.884 163.875C391.607 163.651 393.359 158.987 392.783 153.463C392.208 147.939 389.515 143.632 386.792 143.855C384.069 144.079 382.318 148.743 382.893 154.267Z" fill="#E17E4B"/>
<path d="M384.089 153.835C384.562 158.347 386.75 161.856 388.978 161.67C391.206 161.484 392.621 157.667 392.145 153.182C391.669 148.697 389.484 145.161 387.253 145.343C385.022 145.525 383.604 149.332 384.089 153.835Z" fill="#772A1C"/>
<path style="mix-blend-mode:soft-light" d="M371.683 162.628C372.054 159.161 372.824 153.223 373.682 153.039C374.889 152.774 379.664 156.877 379.664 156.877C379.664 156.877 381.218 152.689 380.354 149.023C379.49 145.357 376.846 139.509 376.846 139.509L379.033 132.611L372.071 135.406L374.431 140.035L371.036 147.187L371.566 161.959C371.571 162.186 371.611 162.411 371.683 162.628Z" fill="url(#paint24_linear_265_603)"/>
<path d="M375.919 140.983L380.345 149.016L379.787 142.383C379.791 142.265 379.821 142.151 379.874 142.047C379.928 141.944 380.003 141.854 380.095 141.784C380.187 141.714 380.294 141.665 380.408 141.641C380.522 141.618 380.64 141.619 380.754 141.646L387.212 143.312C386.905 143.047 386.573 142.812 386.222 142.611L379.237 138.964L379.009 132.591L375.919 140.983Z" fill="#FFE6DC"/>
<path d="M517.993 50.0061C510.048 47.6428 504.185 48.6725 501.159 49.5022C498.54 50.2191 495.318 51.1063 494.865 53.1443C493.948 57.3156 505.376 62.9538 505.978 63.2472C493.499 66.7841 482.421 61.2738 479.861 53.5517C478.023 47.9721 480.586 41.1258 485.01 38.0068C492.352 32.8474 506.848 36.478 517.993 50.0061Z" fill="#E17E4B"/>
<path d="M320.621 50.4643C329.879 54.1021 341.566 56.8149 351.645 55.0418C390.168 48.2858 382.839 42.3991 423.744 44.7203C438.576 45.5582 456.692 49.9773 459.045 59.0086C460.048 62.8651 457.409 64.6695 458.375 69.9885C459.706 77.5427 466.603 82.9084 472.015 86.0463C474.181 87.2983 476.439 88.3758 478.767 89.2683C479.477 89.5223 480.163 89.7519 480.823 89.9464C490.892 92.9046 495.677 88.9941 506.531 90.7147C514.166 91.9345 525.083 95.991 537.371 109.567C570.175 102.529 612.124 98.5999 659.198 107.166C663.131 107.869 667.025 108.671 670.8 109.513C675.271 110.505 679.625 111.576 683.861 112.727C683.955 108.344 658.959 96.6436 623.969 85.8635C614.188 82.8338 603.661 79.9153 592.664 77.225C588.174 76.0542 583.819 74.3747 579.684 72.2192C576.588 70.6635 573.41 68.8742 570.115 66.9152L566.053 65.9712L555.951 69.3441L562.049 65.4513L556.107 59.3717L545.248 54.4271L541.023 57.0252L541.401 66.1486L539.983 57.3732L535.162 57.8128L527.223 51.725L536.673 55.4501L537.405 54.6963L532.002 45.9095L520.928 39.3612C513.935 36.3485 506.771 33.7758 499.478 31.6582C501.936 28.2483 504.044 23.9659 502.93 19.9476L502.877 19.7666C498.083 4.03119 443.027 -6.57468 400.417 12.615C372.036 25.3901 364.026 44.694 336.048 44.9504C332.261 44.9666 328.473 44.6745 324.719 44.0771C313.113 42.2627 304.859 38.441 304.124 40.2814C303.501 41.6849 310.661 46.5979 320.621 50.4643ZM483.756 53.4596C483.725 53.0707 484.667 51.8183 486.535 49.3319C488.887 46.1936 490.078 44.6284 490.73 44.3787C494.328 42.9723 502.197 45.1165 509.518 48.9767L509.573 49.0022C514.036 51.3661 518.297 54.3579 521.227 57.5855C523.275 59.8343 523.13 60.4984 522.742 60.9048C520.163 63.6115 500.541 61.213 490.17 57.6217C490.17 57.6217 490.17 57.6217 490.116 57.6069C486.382 56.3272 483.843 54.8713 483.756 53.4596Z" fill="url(#paint25_linear_265_603)"/>
<path d="M480.817 89.9386C490.887 92.8968 495.672 88.9863 506.526 90.7069C514.161 91.9267 525.078 95.9832 537.365 109.559C570.173 102.525 612.133 98.5873 659.181 107.143C663.114 107.846 678.232 110.949 682.011 111.788C675.148 108.848 656.373 103.846 648.159 101.62C599.774 88.539 558.553 100.328 539.586 107.267C536.609 104.302 532.02 99.8912 526.154 94.8685C513.834 84.3101 507.525 79.0209 500.822 78.7802C498.499 78.6996 490.179 78.8946 480.817 89.9386Z" fill="#E17E4B"/>
<path d="M472.08 96.1105C483.975 103.611 498.626 117.669 509.461 146.565C515.427 148.303 524.377 151.047 535.091 154.876C582.633 171.869 616.917 193.114 617.676 191.724C617.987 191.161 612.287 187.669 609.043 185.167L608.34 184.623C589.838 170.255 578.51 157.846 551.082 135.697C536.289 123.755 544.752 130.657 514.065 103.553C508.821 98.9199 504.479 95.0541 500.441 91.8184C493.166 85.9777 486.94 82.245 478.587 80.1121C464.741 76.5777 449.675 78.6205 449.072 82.3189C448.496 85.72 460.607 88.88 472.08 96.1105Z" fill="url(#paint26_linear_265_603)"/>
<path style="mix-blend-mode:soft-light" d="M529.504 56.9065C529.876 56.328 515.448 46.8737 500.497 38.9761C498.509 37.9445 496.494 36.8778 493.632 36.6654C481.64 35.7424 472.483 50.7081 473.002 51.2557C473.424 51.6989 480.041 42.3229 491.013 42.1497C493.168 42.1278 495.322 42.4429 497.396 43.0839C514.235 47.8956 529.133 57.4783 529.504 56.9065Z" fill="url(#paint27_linear_265_603)"/>
<path d="M490.155 57.6337C500.115 62.4244 508.329 63.5605 513.708 63.7368C516.757 63.8383 524.257 64.1069 525.032 61.4795C525.885 58.6006 518.14 53.7879 515.753 52.3025C513.762 51.0641 511.691 49.9641 509.556 49.0103C514.018 51.3741 518.279 54.3659 521.212 57.5975C523.257 59.8423 523.112 60.5065 522.724 60.9129C520.164 63.6119 500.545 61.2105 490.155 57.6337Z" fill="#FFE6DC"/>
<path d="M565.168 89.5036C565.633 91.127 587.199 83.5233 615.103 85.0666C618.194 85.2286 621.15 85.4929 623.971 85.8596C614.19 82.8299 603.663 79.9114 592.667 77.2211C588.176 76.0503 583.821 74.3708 579.686 72.2153C580.055 74.0044 582.114 75.2959 585.114 77.4538C585.319 77.6029 585.481 77.8046 585.581 78.037C585.682 78.2694 585.719 78.5237 585.687 78.7724C585.655 79.0211 585.556 79.2548 585.401 79.4482C585.245 79.6416 585.039 79.7872 584.805 79.8695C569.17 85.3077 564.979 88.835 565.168 89.5036Z" fill="#FFE6DC"/>
<path d="M473.908 27.912C474.156 25.6291 456.48 18.443 435.483 17.7246C400.364 16.5331 374.563 34.1078 374.888 34.9451C375.212 35.7825 403.202 15.7102 433.342 24.5815C449.781 29.4205 466.33 42.7236 467.768 40.6998C468.541 39.6128 463.685 35.799 464.864 32.4385C466.224 28.7067 473.747 29.3769 473.908 27.912Z" fill="#EEA45F"/>
<path d="M320.627 50.4646C329.881 54.0984 341.571 56.8152 351.651 55.042C390.174 48.286 382.845 42.3993 423.749 44.7206C438.582 45.5585 456.701 49.9814 459.051 59.0089C460.053 62.8653 457.414 64.6697 458.38 69.9887C459.715 77.5469 466.61 82.9193 472.028 86.0476C487.828 84.4251 493.138 78.612 493.107 78.3271C492.967 77.9289 474.515 84.3834 468.923 74.1388C465.78 68.4249 470.959 63.9184 469.041 57.2051C463.988 39.4926 418.857 37.8858 416.802 37.8171C407.031 37.5448 408.125 40.0195 362.022 50.0229C355.043 51.5314 350.798 52.4022 344.814 52.7042C336.713 53.1134 328.569 52.3593 320.627 50.4646Z" fill="#EEA45F"/>
<path d="M303.479 232.892C304.387 232.694 304.274 229.738 303.807 225.092C303.523 222.346 303.137 218.999 302.756 215.273C302.723 214.898 302.678 214.514 302.643 214.128C302.447 212.139 302.26 210.058 302.117 207.901L302.104 207.695L302.089 207.516L302.082 207.373L302.011 206.331L301.966 205.749L301.955 205.53C301.615 200.456 301.565 195.374 301.805 190.308C301.837 189.718 301.871 189.131 301.917 188.542L301.922 188.47L301.967 187.888L302.017 187.338L302.11 186.338C302.866 178.736 304.704 171.56 308.357 166.084C316.477 153.921 329.649 156.009 329.286 153.681C329.048 152.198 323.388 149.692 316.571 149.902C310.845 150.076 304.309 152.159 299.482 158.362C287.96 173.144 293.583 201.853 295.19 210.078C297.359 221.233 301.608 233.287 303.479 232.892Z" fill="url(#paint28_linear_265_603)"/>
<path d="M303.482 232.892C304.39 232.694 304.277 229.738 303.81 225.092C299.332 231.769 288.289 186.359 296.079 169.311C297.909 165.288 300.546 156.483 309.708 151.645C311.621 150.633 314.168 150.1 316.558 149.92C310.836 150.091 304.296 152.177 299.473 158.377C287.951 173.159 293.574 201.869 295.181 210.094C297.362 221.233 301.611 233.287 303.482 232.892Z" fill="#E17E4B"/>
<path d="M296.884 187.641L297.022 187.665L301.657 188.451L301.913 188.496L301.958 187.914L302.009 187.364L302.102 186.364L296.884 187.641Z" fill="#772A1C"/>
<path d="M296.924 187.62L297.002 187.659L301.636 188.445L301.776 190.329C301.807 189.738 301.846 189.148 301.888 188.562L301.893 188.49L301.937 187.908L296.955 187.621L296.924 187.62Z" fill="#FFE6DC"/>
<path d="M316.924 237.19C317.945 237.03 317.992 233.748 317.741 228.562C317.6 225.498 317.376 221.757 317.16 217.629L317.101 216.35C317.002 214.14 316.919 211.826 316.866 209.439L316.848 208.838L316.829 207.682C316.717 201.751 316.956 195.827 317.546 189.94C317.618 189.291 317.695 188.641 317.778 187.991L317.787 187.916L317.87 187.274C317.895 187.07 317.923 186.87 317.959 186.664C318.012 186.298 318.065 185.925 318.124 185.56C319.413 177.188 321.863 169.363 326.264 163.509C335.999 150.529 350.499 153.634 350.234 151.033C350.06 149.38 343.923 146.263 336.342 146.086C329.977 145.934 322.596 147.846 316.874 154.423C303.198 170.097 307.741 202.227 309.034 211.431C310.81 223.919 314.82 237.516 316.924 237.19Z" fill="url(#paint29_linear_265_603)"/>
<path d="M316.922 237.191C317.943 237.03 317.991 233.748 317.739 228.563C312.367 235.686 302.814 184.738 312.49 166.311C314.766 161.974 318.216 152.378 328.66 147.581C330.844 146.578 333.713 146.151 336.365 146.08C330.003 145.931 322.622 147.844 316.893 154.419C303.227 170.099 307.767 202.225 309.06 211.428C310.808 223.919 314.818 237.516 316.922 237.191Z" fill="#E17E4B"/>
<path d="M310.134 203.766L310.582 204.546L313.376 209.405L316.87 209.451L316.851 208.849L316.832 207.694L313.153 208.392L310.134 203.766Z" fill="#772A1C"/>
<path d="M310.54 204.467L310.593 204.537L313.387 209.396L316.881 209.442L316.862 208.84L313.282 209.02L310.54 204.467Z" fill="#FFE6DC"/>
<path d="M337.352 238.669C338.33 238.374 337.942 235.104 337.001 229.993C336.444 226.968 335.705 223.299 334.96 219.228C334.894 218.817 334.809 218.389 334.733 217.965C334.346 215.796 333.942 213.493 333.569 211.128L333.497 210.567L333.318 209.416C332.407 203.537 331.843 197.618 331.629 191.688C331.611 191.033 331.599 190.376 331.593 189.72L331.593 189.64L331.587 188.992L331.591 188.373C331.593 187.996 331.613 187.611 331.605 187.253C331.755 178.751 333.111 170.643 336.664 164.22C344.525 149.994 359.267 151.092 358.654 148.547C358.254 146.922 351.776 144.669 344.261 145.527C337.959 146.249 330.924 149.162 326.162 156.479C314.776 173.929 323.6 205.235 326.123 214.205C329.523 226.314 335.319 239.286 337.352 238.669Z" fill="url(#paint30_linear_265_603)"/>
<path d="M337.35 238.67C338.326 238.371 337.94 235.104 337 229.993C332.66 237.809 316.339 188.488 323.391 168.866C325.051 164.24 327.154 154.234 336.825 148.035C338.846 146.738 341.621 145.926 344.227 145.484C337.918 146.206 330.894 149.116 326.125 156.433C314.741 173.887 323.563 205.189 326.089 214.163C329.526 226.311 335.317 239.286 337.35 238.67Z" fill="#E17E4B"/>
<path d="M325.945 189.12L326.099 189.132L331.283 189.574L331.57 189.596L331.564 188.947L331.569 188.328C331.57 187.951 331.59 187.566 331.583 187.209L325.945 189.12Z" fill="#772A1C"/>
<path d="M325.989 189.089L326.075 189.123L331.259 189.564L331.582 191.634C331.564 190.978 331.552 190.322 331.546 189.666L331.546 189.586L331.54 188.938L326.011 189.079L325.989 189.089Z" fill="#FFE6DC"/>
<path d="M330.098 211.536L333.558 211.103L333.486 210.542L333.212 208.902L330.575 210.662L330.34 211.143L330.098 211.536Z" fill="#772A1C"/>
<path d="M330.099 211.536L333.559 211.103L333.487 210.542L330.331 211.138L330.099 211.536Z" fill="#FFE6DC"/>
<path d="M390.507 237.614C391.219 237.072 389.985 234.476 387.762 230.463C386.45 228.105 384.809 225.252 383.03 222.06L382.483 221.072C381.545 219.364 380.585 217.588 379.6 215.701L379.376 215.256L378.924 214.368C376.512 209.73 374.376 204.956 372.53 200.072L371.945 198.441L371.906 198.39L371.718 197.85L371.562 197.353C371.456 197.039 371.353 196.73 371.257 196.414C368.976 189.287 367.801 182.137 368.904 175.767C371.343 161.656 383.751 158.358 382.529 156.411C381.742 155.163 375.788 155.14 369.881 158.026C364.907 160.43 359.96 164.871 358.114 172.335C353.696 190.139 369.779 213.718 374.381 220.472C380.592 229.562 389.007 238.718 390.507 237.614Z" fill="url(#paint31_linear_265_603)"/>
<path d="M390.505 237.614C391.218 237.072 389.983 234.476 387.757 230.466C386.402 238.222 359.086 201.773 359.327 183.39C359.372 179.045 358.29 170.118 364.477 162.184C365.77 160.523 367.804 159.038 369.837 157.947C364.867 160.348 359.92 164.789 358.071 172.25C353.66 190.054 369.739 213.636 374.342 220.39C380.591 229.555 389.005 238.718 390.505 237.614Z" fill="#E17E4B"/>
<path d="M367.153 199.571L367.281 199.535L371.661 198.42L371.907 198.356L371.718 197.816L371.563 197.319C371.457 197.005 371.353 196.696 371.258 196.38L367.153 199.571Z" fill="#772A1C"/>
<path d="M367.182 199.533L367.265 199.539L371.644 198.424L372.494 200.056L371.91 198.426L371.871 198.375L371.683 197.835L367.182 199.533Z" fill="#FFE6DC"/>
<path d="M372.184 213.908L372.834 214.343L376.893 217.07L379.607 215.719L379.383 215.274L378.93 214.387L376.362 216.396L372.184 213.908Z" fill="#772A1C"/>
<path d="M372.769 214.292L372.817 214.355L376.875 217.081L379.59 215.731L379.365 215.286L376.666 216.846L372.769 214.292Z" fill="#FFE6DC"/>
<path d="M474.92 15.117C477.163 13.5032 479.698 11.3163 479.292 9.60477C479.117 8.87598 478.251 7.5638 471.732 6.78255C473.682 7.14724 477.569 8.08263 477.975 10.04C478.301 11.7813 476.693 13.6206 474.92 15.117Z" fill="#FFE6DC"/>
<path d="M500.44 91.8143C504.896 96.3757 511.38 102.788 519.638 110.949C544.704 135.733 564.461 155.071 594.264 175.265C598.187 177.923 603.526 181.542 608.338 184.619C589.836 170.251 578.508 157.842 551.08 135.693C536.287 123.751 544.75 130.653 514.063 103.549C508.84 98.9432 504.477 95.05 500.44 91.8143Z" fill="#EEA45F"/>
<path d="M531.822 148.073L514.331 136.94C511.858 129.12 508.145 121.729 503.338 115.056C490.857 97.8575 474.219 90.337 473.924 90.7643C473.63 91.1916 492.405 98.0901 501.227 116.606C507.069 128.865 504.532 137.81 512.182 144.056C518.02 148.828 525.924 148.852 531.822 148.073Z" fill="#EEA45F"/>
<path d="M297.36 202.048L299.477 201.005L300.726 201.255L301.617 201.501L301.607 201.361L301.6 201.25L301.546 200.459L301.515 200.015L300.611 200.456L299.319 200.552L297.36 202.048Z" fill="#FFE6DC"/>
<path d="M297.357 202.048L299.443 200.837L300.704 201.11L301.638 201.366L301.631 201.255L301.577 200.464L301.546 200.02L301.536 199.849L300.593 200.308L299.3 200.404L297.357 202.048Z" fill="#772A1C"/>
<path d="M527.225 51.7254L535.054 59.8674L539.984 57.3736L535.164 57.8132L527.225 51.7254Z" fill="#FFE6DC"/>
<path d="M562.054 65.4594L560.595 67.7951L555.957 69.3522L562.054 65.4594Z" fill="#E17E4B"/>
<path d="M545.256 54.4351L541.881 57.5813L541.381 65.5674L541.025 57.0253L545.256 54.4351Z" fill="#FFE6DC"/>
<path d="M570.201 66.9352L566.048 65.9675L555.955 69.3521L553.064 71.4966L556.611 69.8022L570.201 66.9352Z" fill="#FFE6DC"/>
<path d="M427.835 9.49178L410.975 12.9551L408.979 15.3049L408.776 17.5598L406.669 14.3952L409.641 11.044L427.835 9.49178Z" fill="#FFE6DC"/>
<path d="M324.677 44.046C339.673 47.8753 349.41 45.7224 355.836 42.5154C366.351 37.2821 395.952 16.465 395.952 16.465C396.947 15.7639 402.824 14.3174 402.824 14.3174C402.824 14.3174 407.409 16.3047 408.616 17.5913C407.872 16.439 408.948 12.4123 408.948 12.4123C408.948 12.4123 447.355 6.16905 456.83 6.13091C463.642 6.10387 468.377 6.35108 471.676 6.74237C478.214 7.50912 479.237 9.56462 479.237 9.56462C479.237 9.56462 477.107 13.463 474.864 15.0768C473.145 16.3111 471.598 17.2108 471.671 17.3151C471.804 17.4907 476.515 14.5109 481.918 11.0173C483.683 10.8077 491.552 10.0819 498.583 15.5298C500.204 16.783 501.646 18.2577 502.865 19.9096L502.811 19.7286C498.017 3.9932 442.961 -6.61275 400.351 12.577C371.971 25.3521 363.961 44.656 335.982 44.9124C332.203 44.9296 328.423 44.6398 324.677 44.046Z" fill="#E17E4B"/>
<path d="M280.783 200.281L277.769 200.012L276.503 200.815L274.271 197.881L260.429 191.782L259.059 203.534L282.137 207.399L280.783 200.281Z" fill="#E17E4B"/>
<path d="M240.271 203.087C238.75 205.476 237.183 207.899 235.654 210.356C210.965 201.89 204.788 200.965 204.368 202.018C204.165 202.542 205.348 203.489 208.572 205.964C208.596 206.001 208.628 206.032 208.665 206.055C208.702 206.077 208.744 206.092 208.787 206.096C210.7 207.646 213.355 209.729 216.851 212.569C224.902 219.2 223.789 218.883 225.154 219.618C237.234 226.011 249.734 211.391 260.78 217.609C266.418 220.767 265.475 225.838 270.076 226.865C273.177 227.549 276.774 225.976 280.148 223.311C287.285 217.716 293.26 207.179 290.499 202.245C288.994 199.523 285.824 200.259 280.813 199.673L278.949 200.709L278.169 203.384L274.784 199.726L269.779 197.455L260.932 203.063L266.525 196.253L262.443 193.766L262.05 190.37L261.336 188.751C255.617 181.707 251.993 173.07 241.346 167.62C230.832 162.259 216.675 161.677 213.817 166.696C212.139 169.623 212.676 177.572 240.271 203.087Z" fill="url(#paint32_linear_265_603)"/>
<path d="M208.77 206.108C210.677 207.657 213.338 209.741 216.831 212.577C224.885 219.212 223.769 218.891 225.137 219.63C237.244 226.009 249.717 211.402 260.76 217.624C266.398 220.775 265.455 225.853 270.06 226.877C273.16 227.561 276.757 225.995 280.129 223.319C273.389 225.434 270.889 224.971 270.002 223.749C268.425 221.629 272.477 217.727 270.604 214.459C268.313 210.498 258.967 210.587 252.109 212.823C245.251 215.059 244.477 218.351 238.678 219.11C234.887 219.598 231.453 218.657 225.847 216.103C219.846 213.356 214.124 210.007 208.77 206.108Z" fill="#E17E4B"/>
<path style="mix-blend-mode:soft-light" d="M260.473 198.612C261.049 198.174 256.331 188.422 246.757 180.58C237.725 173.174 225.348 168.25 223.197 171.02C222.183 172.321 223.577 175.196 224.681 176.759C228.764 182.521 235.973 180.351 244.667 184.134C255.549 188.857 259.901 199.053 260.473 198.612Z" fill="url(#paint33_linear_265_603)"/>
<path d="M262.419 193.786L267.08 196.633L260.908 203.083L264.653 196.724L262.419 193.786Z" fill="#FFE6DC"/>
<g style="mix-blend-mode:multiply" opacity="0.19">
<path d="M154.691 148.3C152.613 153.207 165.287 159.597 164.697 171.268C164.477 175.58 162.647 176.701 163.648 179.709C165.784 186.091 177.353 191.314 184.16 187.041C190.967 182.769 189.123 171.472 188.603 168.369C188.493 167.671 185.599 151.42 172.028 146.58C165.45 144.218 156.275 144.54 154.691 148.3Z" fill="#61222A"/>
</g>
<g style="mix-blend-mode:multiply" opacity="0.19">
<path d="M215.178 178.738C213.053 175.945 208.986 175.817 206.76 177.492C203.46 180.002 204.17 186.502 207.557 188.354C209.625 189.491 212.428 188.732 214.129 187.179C216.246 185.242 217.272 181.499 215.178 178.738Z" fill="#61222A"/>
</g>
<g style="mix-blend-mode:multiply" opacity="0.19">
<path d="M169.476 236.441C168.689 237.217 168.772 238.442 168.95 240.659C169.147 243.077 169.616 248.96 172.109 249.724C175.042 250.621 181.319 244.64 179.73 240.108C178.359 236.187 171.483 234.446 169.476 236.441Z" fill="#61222A"/>
</g>
<g style="mix-blend-mode:multiply" opacity="0.19">
<path d="M515.949 206.06C520.812 203.802 524.955 198.045 524.077 192.233C522.871 184.147 512.449 178.907 504.088 180.678C497.593 182.071 491.393 187.94 491.742 193.894C492.261 202.516 506.484 210.451 515.949 206.06Z" fill="#61222A"/>
</g>
<g style="mix-blend-mode:multiply" opacity="0.19">
<path d="M548.268 204.407C545.108 204.87 542.286 209.068 543.016 212.226C544.254 217.585 555.577 219.337 557.477 216.513C559.376 213.688 553.643 203.613 548.268 204.407Z" fill="#61222A"/>
</g>
</g>
<defs>
<linearGradient id="paint0_linear_265_603" x1="57.0125" y1="16.3352" x2="31.1623" y2="46.1559" gradientUnits="userSpaceOnUse">
<stop stop-color="#FDDC94"/>
<stop offset="1" stop-color="#F7AD6B"/>
</linearGradient>
<linearGradient id="paint1_linear_265_603" x1="269.933" y1="129.548" x2="246.559" y2="156.513" gradientUnits="userSpaceOnUse">
<stop stop-color="#FDDC94"/>
<stop offset="1" stop-color="#F7AD6B"/>
</linearGradient>
<linearGradient id="paint2_linear_265_603" x1="171.308" y1="101.577" x2="151.946" y2="131.669" gradientUnits="userSpaceOnUse">
<stop stop-color="#FDDC94"/>
<stop offset="1" stop-color="#F7AD6B"/>
</linearGradient>
<linearGradient id="paint3_linear_265_603" x1="182.254" y1="308.113" x2="169.932" y2="281.548" gradientUnits="userSpaceOnUse">
<stop stop-color="#FDDC94"/>
<stop offset="1" stop-color="#F7AD6B"/>
</linearGradient>
<linearGradient id="paint4_linear_265_603" x1="97.9567" y1="351.697" x2="101.782" y2="325.848" gradientUnits="userSpaceOnUse">
<stop stop-color="#FDDC94"/>
<stop offset="1" stop-color="#F7AD6B"/>
</linearGradient>
<linearGradient id="paint5_linear_265_603" x1="224.651" y1="235.679" x2="189.803" y2="225.362" gradientUnits="userSpaceOnUse">
<stop stop-color="#FDDC94"/>
<stop offset="1" stop-color="#F7AD6B"/>
</linearGradient>
<linearGradient id="paint6_linear_265_603" x1="121.955" y1="62.4916" x2="87.8457" y2="72.6279" gradientUnits="userSpaceOnUse">
<stop stop-color="#FDDC94"/>
<stop offset="1" stop-color="#F7AD6B"/>
</linearGradient>
<linearGradient id="paint7_linear_265_603" x1="365.149" y1="105.62" x2="355.741" y2="123.913" gradientUnits="userSpaceOnUse">
<stop stop-color="#FDDC94"/>
<stop offset="1" stop-color="#F7AD6B"/>
</linearGradient>
<linearGradient id="paint8_linear_265_603" x1="360.148" y1="111.053" x2="353.996" y2="123.014" gradientUnits="userSpaceOnUse">
<stop stop-color="#FDE3C0"/>
<stop offset="1" stop-color="#FDCC90"/>
</linearGradient>
<linearGradient id="paint9_linear_265_603" x1="384.11" y1="97.0031" x2="369.92" y2="111.815" gradientUnits="userSpaceOnUse">
<stop stop-color="#FDDC94"/>
<stop offset="1" stop-color="#F7AD6B"/>
</linearGradient>
<linearGradient id="paint10_linear_265_603" x1="377.714" y1="100.708" x2="368.435" y2="110.393" gradientUnits="userSpaceOnUse">
<stop stop-color="#FDE3C0"/>
<stop offset="1" stop-color="#FDCC90"/>
</linearGradient>
<linearGradient id="paint11_linear_265_603" x1="398.626" y1="81.6163" x2="379.185" y2="94.6834" gradientUnits="userSpaceOnUse">
<stop stop-color="#FDDC94"/>
<stop offset="1" stop-color="#F7AD6B"/>
</linearGradient>
<linearGradient id="paint12_linear_265_603" x1="390.538" y1="84.1209" x2="377.827" y2="92.6638" gradientUnits="userSpaceOnUse">
<stop stop-color="#FDE3C0"/>
<stop offset="1" stop-color="#FDCC90"/>
</linearGradient>
<linearGradient id="paint13_linear_265_603" x1="423.485" y1="78.3931" x2="401.423" y2="86.2418" gradientUnits="userSpaceOnUse">
<stop stop-color="#FDDC94"/>
<stop offset="1" stop-color="#F7AD6B"/>
</linearGradient>
<linearGradient id="paint14_linear_265_603" x1="415.001" y1="78.743" x2="400.578" y2="83.8742" gradientUnits="userSpaceOnUse">
<stop stop-color="#FDE3C0"/>
<stop offset="1" stop-color="#FDCC90"/>
</linearGradient>
<linearGradient id="paint15_linear_265_603" x1="441.87" y1="75.4793" x2="419.808" y2="83.328" gradientUnits="userSpaceOnUse">
<stop stop-color="#FDDC94"/>
<stop offset="1" stop-color="#F7AD6B"/>
</linearGradient>
<linearGradient id="paint16_linear_265_603" x1="433.387" y1="75.8247" x2="418.963" y2="80.9559" gradientUnits="userSpaceOnUse">
<stop stop-color="#FDE3C0"/>
<stop offset="1" stop-color="#FDCC90"/>
</linearGradient>
<linearGradient id="paint17_linear_265_603" x1="330.401" y1="148.665" x2="313.765" y2="157.413" gradientUnits="userSpaceOnUse">
<stop stop-color="#FDDC94"/>
<stop offset="1" stop-color="#F7AD6B"/>
</linearGradient>
<linearGradient id="paint18_linear_265_603" x1="323.725" y1="149.936" x2="312.848" y2="155.656" gradientUnits="userSpaceOnUse">
<stop stop-color="#FDE3C0"/>
<stop offset="1" stop-color="#FDCC90"/>
</linearGradient>
<linearGradient id="paint19_linear_265_603" x1="347.082" y1="146.863" x2="326.306" y2="152.626" gradientUnits="userSpaceOnUse">
<stop stop-color="#FDDC94"/>
<stop offset="1" stop-color="#F7AD6B"/>
</linearGradient>
<linearGradient id="paint20_linear_265_603" x1="339.272" y1="146.616" x2="325.69" y2="150.383" gradientUnits="userSpaceOnUse">
<stop stop-color="#FDE3C0"/>
<stop offset="1" stop-color="#FDCC90"/>
</linearGradient>
<linearGradient id="paint21_linear_265_603" x1="362.8" y1="136.946" x2="341.203" y2="137.637" gradientUnits="userSpaceOnUse">
<stop stop-color="#FDDC94"/>
<stop offset="1" stop-color="#F7AD6B"/>
</linearGradient>
<linearGradient id="paint22_linear_265_603" x1="355.249" y1="134.831" x2="341.125" y2="135.282" gradientUnits="userSpaceOnUse">
<stop stop-color="#FDE3C0"/>
<stop offset="1" stop-color="#FDCC90"/>
</linearGradient>
<linearGradient id="paint23_linear_265_603" x1="383.939" y1="142.324" x2="362.965" y2="147.165" gradientUnits="userSpaceOnUse">
<stop stop-color="#FDDC94"/>
<stop offset="1" stop-color="#F7AD6B"/>
</linearGradient>
<linearGradient id="paint24_linear_265_603" x1="376.159" y1="141.727" x2="362.443" y2="144.893" gradientUnits="userSpaceOnUse">
<stop stop-color="#FDE3C0"/>
<stop offset="1" stop-color="#FDCC90"/>
</linearGradient>
<linearGradient id="paint25_linear_265_603" x1="656.619" y1="26.8819" x2="341.587" y2="138.955" gradientUnits="userSpaceOnUse">
<stop stop-color="#FDDC94"/>
<stop offset="1" stop-color="#F7AD6B"/>
</linearGradient>
<linearGradient id="paint26_linear_265_603" x1="595.983" y1="120.717" x2="480.066" y2="161.955" gradientUnits="userSpaceOnUse">
<stop stop-color="#FDDC94"/>
<stop offset="1" stop-color="#F7AD6B"/>
</linearGradient>
<linearGradient id="paint27_linear_265_603" x1="528.505" y1="46.1523" x2="480.045" y2="63.3923" gradientUnits="userSpaceOnUse">
<stop stop-color="#FDE3C0"/>
<stop offset="1" stop-color="#FDCC90"/>
</linearGradient>
<linearGradient id="paint28_linear_265_603" x1="343.935" y1="186.165" x2="294.955" y2="203.59" gradientUnits="userSpaceOnUse">
<stop stop-color="#FDDC94"/>
<stop offset="1" stop-color="#F7AD6B"/>
</linearGradient>
<linearGradient id="paint29_linear_265_603" x1="354.439" y1="184.997" x2="302.499" y2="195.788" gradientUnits="userSpaceOnUse">
<stop stop-color="#FDDC94"/>
<stop offset="1" stop-color="#F7AD6B"/>
</linearGradient>
<linearGradient id="paint30_linear_265_603" x1="372.805" y1="183.227" x2="323.056" y2="200.925" gradientUnits="userSpaceOnUse">
<stop stop-color="#FDDC94"/>
<stop offset="1" stop-color="#F7AD6B"/>
</linearGradient>
<linearGradient id="paint31_linear_265_603" x1="397.267" y1="177.614" x2="360.84" y2="205.889" gradientUnits="userSpaceOnUse">
<stop stop-color="#FDDC94"/>
<stop offset="1" stop-color="#F7AD6B"/>
</linearGradient>
<linearGradient id="paint32_linear_265_603" x1="281.198" y1="220.901" x2="205.268" y2="176.039" gradientUnits="userSpaceOnUse">
<stop stop-color="#FDDC94"/>
<stop offset="1" stop-color="#F7AD6B"/>
</linearGradient>
<linearGradient id="paint33_linear_265_603" x1="261.229" y1="192.325" x2="221.464" y2="168.831" gradientUnits="userSpaceOnUse">
<stop stop-color="#FDE3C0"/>
<stop offset="1" stop-color="#FDCC90"/>
</linearGradient>
</defs>
</svg>
