<svg width="522" height="270" viewBox="0 0 522 270" fill="none" xmlns="http://www.w3.org/2000/svg">
<mask id="mask0_265_819" style="mask-type:alpha" maskUnits="userSpaceOnUse" x="0" y="0" width="522" height="270">
<rect x="0.46875" y="0.791016" width="521.094" height="268.254" fill="#D9D9D9"/>
</mask>
<g mask="url(#mask0_265_819)">
<ellipse cx="265.718" cy="166.236" rx="222.043" ry="49.1056" transform="rotate(-22.9366 265.718 166.236)" fill="#334F5D"/>
<path d="M518.534 37.3919C528.84 61.7474 421.875 130.291 279.62 190.489C137.365 250.687 13.6898 279.743 3.38329 255.388C-6.92321 231.032 88.75 135.804 231.005 75.6057C373.26 15.4079 508.227 13.0364 518.534 37.3919Z" fill="#334F5D"/>
<path d="M518.534 37.3919C528.84 61.7474 421.875 130.291 279.62 190.489C137.365 250.687 13.6898 279.743 3.38329 255.388C-6.92321 231.032 88.75 135.804 231.005 75.6057C373.26 15.4079 508.227 13.0364 518.534 37.3919Z" fill="#334F5D"/>
<path fill-rule="evenodd" clip-rule="evenodd" d="M513.003 31.6066C504.166 60.5389 403.778 122.384 274.036 177.287C144.293 232.19 30.0053 261.189 3.08511 247.388C2.39224 250.555 2.47887 253.245 3.3854 255.388C13.6919 279.743 137.367 250.687 279.622 190.489C421.877 130.291 528.842 61.7474 518.536 37.3919C517.629 35.2496 515.758 33.3142 513.003 31.6066Z" fill="white"/>
<path fill-rule="evenodd" clip-rule="evenodd" d="M319.262 61.1119C288.871 -10.7047 248.154 -2.85513 202.08 16.6419C156.006 36.1389 125.02 66.9823 152.413 131.717C155.696 139.473 195.707 129.956 241.781 110.459C287.854 90.9618 322.544 68.8684 319.262 61.1119Z" fill="url(#paint0_linear_265_819)"/>
<ellipse cx="266.191" cy="158.749" rx="16.7752" ry="7.01508" transform="rotate(-22.9366 266.191 158.749)" fill="url(#paint1_linear_265_819)"/>
<ellipse cx="142.212" cy="208.564" rx="16.7752" ry="7.01508" transform="rotate(-15.1188 142.212 208.564)" fill="url(#paint2_linear_265_819)"/>
<ellipse cx="16.7752" cy="7.01508" rx="16.7752" ry="7.01508" transform="matrix(-0.859367 0.511359 0.511359 0.859367 399.273 89.7598)" fill="url(#paint3_linear_265_819)"/>
<ellipse cx="36.2899" cy="233.272" rx="16.7752" ry="7.01508" transform="rotate(-15.1188 36.2899 233.272)" fill="url(#paint4_linear_265_819)"/>
<ellipse cx="16.7752" cy="7.01508" rx="16.7752" ry="7.01508" transform="matrix(-0.859367 0.511359 0.511359 0.859367 490.75 30.9336)" fill="url(#paint5_linear_265_819)"/>
</g>
<defs>
<linearGradient id="paint0_linear_265_819" x1="231.721" y1="-8.67906" x2="259.13" y2="123.858" gradientUnits="userSpaceOnUse">
<stop stop-color="#FDDC94"/>
<stop offset="1" stop-color="#F7AD6B"/>
</linearGradient>
<linearGradient id="paint1_linear_265_819" x1="273.073" y1="150.113" x2="270.321" y2="168.711" gradientUnits="userSpaceOnUse">
<stop stop-color="#FDDC94"/>
<stop offset="1" stop-color="#F7AD6B"/>
</linearGradient>
<linearGradient id="paint2_linear_265_819" x1="149.094" y1="199.928" x2="146.342" y2="218.526" gradientUnits="userSpaceOnUse">
<stop stop-color="#FDDC94"/>
<stop offset="1" stop-color="#F7AD6B"/>
</linearGradient>
<linearGradient id="paint3_linear_265_819" x1="23.6577" y1="-1.62068" x2="20.9058" y2="16.9773" gradientUnits="userSpaceOnUse">
<stop stop-color="#FDDC94"/>
<stop offset="1" stop-color="#F7AD6B"/>
</linearGradient>
<linearGradient id="paint4_linear_265_819" x1="43.1723" y1="224.636" x2="40.4204" y2="243.234" gradientUnits="userSpaceOnUse">
<stop stop-color="#FDDC94"/>
<stop offset="1" stop-color="#F7AD6B"/>
</linearGradient>
<linearGradient id="paint5_linear_265_819" x1="23.6577" y1="-1.62068" x2="20.9058" y2="16.9773" gradientUnits="userSpaceOnUse">
<stop stop-color="#FDDC94"/>
<stop offset="1" stop-color="#F7AD6B"/>
</linearGradient>
</defs>
</svg>
