<svg width="95" height="87" viewBox="0 0 95 87" fill="none" xmlns="http://www.w3.org/2000/svg">
<g clip-path="url(#clip0_246_4986)">
<path d="M80.9472 61.5768C79.528 63.7272 77.3667 65.6602 74.5969 67.2477C68.3086 70.8508 58.8811 72.6741 47.8847 71.2171L48.4766 73.5604C48.7415 74.6057 47.6928 75.6884 46.8154 75.273L22.1691 63.603C21.2924 63.1879 21.4646 61.6902 22.4404 61.2324L24.8094 60.1208C24.7862 60.1013 24.7709 60.0781 24.7505 60.06C16.3802 52.0895 11.8943 43.1966 11.1 35.8879C10.9898 34.901 10.9514 33.8939 10.9852 32.8761C11.0201 31.6899 11.1929 30.4907 11.4992 29.3091C11.7483 28.3515 12.1147 27.4193 12.5869 26.5413C14.7548 22.5429 19.078 20.2638 23.6867 18.9792C24.3587 18.7922 25.0371 18.6253 25.7162 18.479C32.7563 16.9535 39.8208 17.4634 40.4273 17.5113C40.5889 15.5725 40.7506 13.6466 40.9113 11.7022C40.9351 11.4232 41.0203 11.145 41.1592 10.893C41.298 10.6411 41.4861 10.4235 41.7061 10.2601C41.9261 10.0967 42.1711 9.99271 42.4186 9.95773C42.6661 9.92275 42.9082 9.95786 43.1228 10.0598L75.4767 25.3793C75.6914 25.4808 75.8719 25.6459 76.0015 25.8595C76.1312 26.0732 76.2059 26.3285 76.2189 26.6022C76.2318 26.8759 76.1826 27.1592 76.0757 27.4262C75.9688 27.6931 75.8076 27.9353 75.6069 28.1304C74.2054 29.4874 72.8163 30.8311 71.4218 32.186C72.1612 32.9615 86.6478 48.2477 82.0796 59.4448C81.7728 60.1917 81.3926 60.9074 80.9472 61.5768Z" fill="url(#paint0_linear_246_4986)"/>
<path d="M70.1129 42.6891L68.554 45.3476L67.6178 46.1964L66.9534 46.8006L65.5872 48.0424L62.9613 50.4265L62.9336 50.4517L59.664 49.5884L55.2433 48.4225L51.6158 47.4663L50.8423 47.2617L47.8934 46.4844L47.7396 46.1255L46.7355 43.7762L44.9006 39.4863L37.2565 30.892L67.2597 41.6635L68.337 42.0513L70.1129 42.6891Z" fill="url(#paint1_linear_246_4986)"/>
<path style="mix-blend-mode:screen" opacity="0.17" d="M66.9612 46.8024L66.448 42.4119L65.5925 48.0473L62.9628 50.4285L62.6857 45.4819L59.6654 49.5903L55.2452 48.4236L56.4666 45.0842L52.7852 44.1918L51.6177 47.4675L50.8438 47.2616L51.6995 44.1574L49.561 43.3883L47.7403 46.1217L46.735 43.773L47.3629 42.104L67.26 41.6606L68.4076 41.6351L68.3373 42.0484C68.1793 42.9733 67.7991 45.2051 67.6184 46.1926L66.9612 46.8024Z" fill="url(#paint2_linear_246_4986)"/>
<path d="M74.6022 67.2477L74.3765 67.3759C74.1086 67.5255 73.8346 67.6716 73.5548 67.8141C72.1018 68.5539 70.6162 69.1715 69.1116 69.661C69.0354 69.6866 68.9611 69.712 68.8843 69.7352C68.0398 70.0089 67.1625 70.2557 66.2523 70.4755C66.0378 70.5282 65.8221 70.5781 65.6048 70.6273C64.5728 70.8611 63.5059 71.0585 62.4042 71.2195C61.6959 71.323 60.9743 71.4107 60.2395 71.4824C58.7403 71.6304 57.1869 71.7102 55.5792 71.7217C55.3376 71.7222 55.0958 71.7215 54.8522 71.7189C53.7586 71.7094 52.6441 71.6652 51.5086 71.5862C50.32 71.502 49.1123 71.3797 47.8856 71.2192L48.4774 73.5625C48.7424 74.6079 47.6936 75.6905 46.8163 75.2751L35.4733 69.9042L31.6452 63.6007L29.7444 60.4674L21.8818 47.5127L40.6576 40.6309L46.0048 44.9824L44.4928 46.6932L42.0841 46.2854L42.0516 46.319L40.4754 47.8835L38.3335 50.0129L31.5727 56.7284L31.5001 56.8003L32.5353 57.7106L40.6058 64.802L41.6798 65.7455L50.2009 67.547L53.2901 68.1983L59.4986 69.5077L59.6994 69.5507L61.5567 68.8786L65.3622 67.5018L66.3311 67.1513L67.463 66.7418L68.4852 66.3751L72.2396 65.0156L72.6239 64.8785L74.7921 58.4833L76.9112 52.2286L75.0257 45.7719L74.7717 44.9072L73.5858 44.569L69.154 43.3043L66.179 37.6844L74.6438 39.2656L75.9009 41.3752L77.1199 43.4189L80.8935 49.7466L74.6022 67.2477Z" fill="url(#paint3_linear_246_4986)"/>
<path style="mix-blend-mode:multiply" opacity="0.27" d="M31.5697 56.7252L27.7687 55.1551L35.7659 47.7798L38.3271 50.0113L31.5697 56.7252Z" fill="url(#paint4_linear_246_4986)"/>
<path style="mix-blend-mode:multiply" opacity="0.27" d="M40.4721 47.8823L38.8815 45.8562L41.3929 43.4062L42.0518 46.3141L40.4721 47.8823Z" fill="url(#paint5_linear_246_4986)"/>
<path style="mix-blend-mode:multiply" opacity="0.27" d="M32.5371 57.7087L40.6087 64.7997L34.7946 66.3303L31.649 63.5966L29.9735 62.1407L29.747 60.4638L29.3962 57.8635L32.5371 57.7087Z" fill="url(#paint6_linear_246_4986)"/>
<path style="mix-blend-mode:screen" opacity="0.22" d="M55.5843 71.7206C54.2599 71.7266 52.9031 71.6815 51.5137 71.5851L50.2018 67.5417L53.291 68.193L55.5843 71.7206Z" fill="url(#paint7_linear_246_4986)"/>
<path style="mix-blend-mode:screen" opacity="0.17" d="M62.405 71.2228C61.6968 71.3262 60.9752 71.4139 60.2404 71.4857L59.4969 69.5033L59.6977 69.5463L61.555 68.8742L62.405 71.2228Z" fill="url(#paint8_linear_246_4986)"/>
<path style="mix-blend-mode:screen" opacity="0.43" d="M74.7777 44.8963L73.591 44.5578L75.9044 41.3621L76.3274 40.7765L77.4696 43.0157L77.1223 43.4064L75.0309 45.7606L74.7777 44.8963Z" fill="url(#paint9_linear_246_4986)"/>
<path style="mix-blend-mode:screen" opacity="0.17" d="M66.2593 70.4778C66.0448 70.5305 65.829 70.5804 65.6118 70.6296L65.3667 67.4965L66.3355 67.146L66.2593 70.4778Z" fill="url(#paint10_linear_246_4986)"/>
<path style="mix-blend-mode:screen" opacity="0.17" d="M69.1153 69.6615C69.0392 69.6871 68.9648 69.7126 68.888 69.7358L67.4678 66.7365L68.49 66.3697L69.1153 69.6615Z" fill="url(#paint11_linear_246_4986)"/>
<path style="mix-blend-mode:screen" opacity="0.43" d="M74.3785 67.3759C74.1105 67.5255 73.8366 67.6716 73.5567 67.8141L72.2442 65.0062L72.6285 64.8691L74.7967 58.4739L77.5376 58.0947L74.3785 67.3759Z" fill="url(#paint12_linear_246_4986)"/>
<path d="M81.621 60.4453C81.593 60.5044 81.5605 60.5602 81.5309 60.6153C81.5013 60.6704 81.4593 60.7441 81.4229 60.8099C81.3496 60.9389 81.2748 61.0672 81.1959 61.1947C81.1571 61.2582 81.1176 61.3214 81.0765 61.386C81.0354 61.4505 80.9955 61.5125 80.9545 61.5749C80.9135 61.6374 80.8814 61.6849 80.8457 61.7361C80.8404 61.7474 80.8303 61.7575 80.8227 61.7699C80.7937 61.8125 80.7636 61.8557 80.7328 61.8985C80.717 61.9208 80.7015 61.9443 80.685 61.9663C80.6684 61.9882 80.6399 62.03 80.617 62.0617L80.5736 62.1199C80.5598 62.1399 80.5452 62.1596 80.531 62.1784C80.5169 62.1972 80.4912 62.2329 80.472 62.2568C80.4528 62.2806 80.4239 62.3212 80.3987 62.354C80.3938 62.3644 80.385 62.3719 80.3775 62.3822C80.3366 62.4351 80.2953 62.489 80.2551 62.5369C80.253 62.5413 80.251 62.5456 80.2485 62.5508C80.2104 62.5998 80.1712 62.6493 80.1305 62.6981C80.1239 62.712 80.1098 62.7233 80.0992 62.7364C80.0667 62.7753 80.0351 62.8124 79.9999 62.8553C79.9647 62.8982 79.9463 62.9203 79.919 62.952C79.9026 62.9719 79.8854 62.9914 79.8675 63.0127C79.823 63.064 79.7785 63.1152 79.735 63.1627C79.7276 63.1783 79.7116 63.1899 79.6988 63.204C79.6656 63.2426 79.6318 63.2787 79.5949 63.3197C79.5904 63.3261 79.5853 63.3319 79.5797 63.3369C79.5462 63.3743 79.5127 63.4116 79.4783 63.4474C79.4165 63.5149 79.3539 63.582 79.29 63.6485C79.2802 63.6578 79.2709 63.6676 79.2621 63.6779C79.1481 63.7962 79.0313 63.9132 78.9138 64.0298C78.8964 64.046 78.8802 64.0618 78.8636 64.0783C78.8471 64.0928 78.832 64.108 78.8173 64.1224C78.7752 64.163 78.7332 64.2037 78.6908 64.2432C78.6484 64.2827 78.5982 64.3312 78.5509 64.3737L78.5476 64.3807C78.5434 64.3836 78.5397 64.3872 78.5364 64.3913L78.4587 64.4609L78.3983 64.5163L78.2717 64.6297C78.2422 64.6551 78.2129 64.6816 78.1822 64.7075C78.1515 64.7334 78.1241 64.7598 78.095 64.7842C78.0846 64.7932 78.0765 64.801 78.0666 64.8091C78.037 64.8344 78.0082 64.8601 77.9787 64.8834C77.9493 64.9067 77.9353 64.9213 77.9146 64.9392L77.7923 65.0418C77.7716 65.0597 77.7501 65.0772 77.7275 65.0952C77.6448 65.1624 77.5582 65.2341 77.4714 65.3025C77.4404 65.3272 77.4087 65.3515 77.378 65.3774C77.3066 65.4319 77.2381 65.4877 77.1652 65.5414C77.1502 65.5546 77.1347 65.5653 77.1209 65.5758C77.0793 65.6081 77.036 65.6419 76.9964 65.67C76.9568 65.698 76.8892 65.75 76.8348 65.7891C76.8308 65.7929 76.8266 65.7962 76.8221 65.799C76.7828 65.8283 76.7432 65.8563 76.7044 65.8847C76.6232 65.9431 76.542 66.0014 76.4594 66.0591L76.4005 66.1003C76.362 66.1278 76.3228 66.155 76.284 66.1813C76.2452 66.2076 76.2243 66.2221 76.1934 66.2447L76.1273 66.29L75.9312 66.4205C75.8913 66.4473 75.8503 66.4746 75.8065 66.4986C75.713 66.5607 75.6181 66.6221 75.5218 66.6828C75.496 66.7004 75.4687 66.7172 75.4418 66.7332C75.3962 66.7627 75.3483 66.7953 75.3045 66.8192C75.2314 66.8644 75.1587 66.9086 75.0834 66.9527L75.0651 66.9653C75.0618 66.9665 75.0586 66.9682 75.0557 66.9704C75.0179 66.9922 74.98 67.0147 74.9421 67.0379L74.8563 67.0877C74.7885 67.1289 74.7178 67.1688 74.6474 67.21C74.5057 67.2918 74.3622 67.3727 74.2167 67.4526L74.0046 67.5649C73.8197 67.6645 73.6319 67.7628 73.4428 67.8583L74.6982 64.1989L79.3061 50.7756L76.5007 42.5348L70.5968 39.8277L68.4395 38.8391L70.1285 42.6718L66.4657 44.985L66.3708 45.0464L62.9905 47.1818L54.3144 45.8227L48.8247 44.9631L47.3759 42.0928L52.0289 41.9915L46.7117 41.1753L46.1097 39.1888L45.375 36.7969L38.6955 32.2996L45.0584 37.2542L45.4844 40.7335L46.0045 44.9816L41.2608 44.4369L33.7726 50.8356L28.6515 55.2095L29.4098 57.822L30.3289 60.9753L35.0363 63.9317L35.289 65.001L35.4755 65.7859L35.7051 66.7613L36.5713 70.4192L22.1755 63.6029C21.2989 63.1878 21.471 61.6901 22.4469 61.2322L24.8159 60.1207C24.7926 60.1012 24.7773 60.078 24.7569 60.0598C24.4951 59.8111 24.2373 59.561 23.9836 59.3098L23.6064 58.9334L23.299 58.6208L23.156 58.4744L22.8848 58.1929C22.6236 57.9203 22.3666 57.6472 22.1135 57.3736L21.815 57.0461C21.8103 57.0419 21.8061 57.037 21.8025 57.0317C21.6951 56.9138 21.5895 56.7958 21.4844 56.6769L21.4374 56.6259L21.1363 56.2834C20.6695 55.7483 20.2197 55.2121 19.7868 54.6746C19.6953 54.5621 19.6045 54.45 19.5172 54.3342L19.5129 54.3322C19.3505 54.1277 19.1907 53.923 19.0333 53.718L18.9124 53.5544C18.8135 53.4247 18.7158 53.2951 18.6191 53.1657C18.4778 52.9786 18.3402 52.7911 18.2041 52.6023C18.1201 52.488 18.0378 52.3739 17.9573 52.2599L17.7762 52.003L17.7691 51.9996L17.528 51.6526C17.5188 51.6386 17.5092 51.6256 17.5011 51.6111C17.4186 51.4926 17.3371 51.3736 17.2569 51.2541C17.056 50.9555 16.8597 50.6573 16.6679 50.3594C16.6018 50.258 16.5373 50.1551 16.4727 50.0543C16.3903 49.9246 16.3093 49.7948 16.2298 49.6649C16.1599 49.5531 16.0912 49.4405 16.0238 49.3271C15.8057 48.9686 15.5952 48.6101 15.3923 48.2517L15.2721 48.0385C15.1777 47.8673 15.0833 47.696 14.9893 47.5239C14.9057 47.3705 14.8247 47.2173 14.7441 47.0632C14.6884 46.9603 14.6353 46.8575 14.5833 46.7542L14.4522 46.4975C14.2234 46.0453 14.006 45.5946 13.7999 45.1454L13.72 44.9693C13.5665 44.6301 13.42 44.2927 13.2805 43.9572C13.2482 43.8792 13.2175 43.803 13.1851 43.727L13.1647 43.6738L13.0761 43.4531C12.8365 42.8682 12.6199 42.2861 12.4263 41.7066C12.4 41.6325 12.3755 41.5581 12.3557 41.485C12.2842 41.2654 12.2131 41.0449 12.1424 40.8235C12.1106 40.7202 12.0811 40.6158 12.05 40.5128C12.0189 40.4099 11.9956 40.3276 11.9702 40.2347L11.9636 40.2135C11.9445 40.1481 11.9266 40.0822 11.9091 40.0154C11.8371 39.7559 11.7697 39.4975 11.7067 39.2401C11.6812 39.1216 11.6515 39.0119 11.6251 38.8973C11.5613 38.6218 11.5021 38.3477 11.4475 38.0751C11.4342 38.0125 11.4199 37.9483 11.4098 37.8861C11.3685 37.673 11.3313 37.4607 11.2962 37.2495C11.2779 37.1398 11.2604 37.0305 11.2438 36.9227C11.1899 36.5732 11.1443 36.2272 11.107 35.8848C11.0524 35.3627 11.0147 34.8518 10.9939 34.352L10.988 34.1642C10.9842 34.039 10.982 33.9157 10.9807 33.7906L10.9801 33.6064C10.9791 33.4826 10.9802 33.3597 10.9799 33.2362L10.9837 33.054C10.9853 32.9931 10.987 32.9322 10.9893 32.8717C10.9929 32.7936 10.9958 32.7152 10.9999 32.6363C11.0039 32.5574 11.0078 32.4806 11.0126 32.402C11.0173 32.3234 11.0232 32.2369 11.03 32.1539C11.0368 32.071 11.0414 32.0094 11.0447 31.9376C11.0886 31.4321 11.157 30.9256 11.2497 30.4203C11.2599 30.3656 11.2711 30.3103 11.282 30.2559C11.2928 30.2015 11.3029 30.1488 11.3144 30.0947C11.3395 29.9694 11.3664 29.846 11.3954 29.7236C11.4122 29.6529 11.4297 29.5825 11.4461 29.5126C11.4625 29.4428 11.4819 29.3722 11.5005 29.3033C11.7496 28.3457 12.1159 27.4135 12.5882 26.5355C14.756 22.5371 19.0792 20.258 23.6879 18.9734C24.3599 18.7865 25.0383 18.6195 25.7174 18.4732C32.7576 16.9478 39.822 17.4576 40.4285 17.5055C40.5953 15.5724 40.757 13.6465 40.9178 11.7021C40.9366 11.4652 41.0004 11.228 41.1048 11.0069C41.1172 10.9808 41.1291 10.9556 41.141 10.9304C41.1529 10.9052 41.1665 10.8766 41.185 10.8523C41.2035 10.8281 41.2047 10.8106 41.2203 10.7925C41.3399 10.6035 41.4877 10.4372 41.6556 10.3031C41.6733 10.2881 41.6924 10.2737 41.7111 10.2602C41.7295 10.2458 41.7484 10.2324 41.7678 10.2201C41.7848 10.2074 41.8023 10.1958 41.8202 10.1854C41.8392 10.1731 41.8577 10.1617 41.8766 10.1515C41.8952 10.1392 41.9144 10.1284 41.9341 10.1191C42.0015 10.0829 42.0705 10.0523 42.1406 10.0276C42.1578 10.0209 42.1742 10.0159 42.1918 10.0104C42.3057 9.97325 42.4212 9.95151 42.5357 9.94562C42.5567 9.94388 42.5766 9.94265 42.5975 9.94298L42.6591 9.94449L42.7205 9.94808C42.7417 9.94962 42.7618 9.95168 42.7829 9.95529C42.8177 9.9597 42.8522 9.96648 42.8865 9.97562C42.902 9.97822 42.9171 9.98219 42.9318 9.98749C42.9504 9.9915 42.9687 9.99694 42.9864 10.0038C43.0348 10.019 43.082 10.0374 43.1278 10.059L75.4817 25.3785C75.6027 25.4363 75.7135 25.5142 75.8109 25.6099C75.9582 25.7556 76.0711 25.9405 76.1418 26.1519C76.2125 26.3634 76.2394 26.5965 76.2207 26.8355C76.202 27.0745 76.138 27.3138 76.0333 27.5372C75.9285 27.7606 75.7853 27.9629 75.6134 28.1303C74.2119 29.4873 72.8228 30.8309 71.4283 32.1859C72.1676 32.9614 86.6543 48.2475 82.086 59.4446C81.9471 59.7852 81.7918 60.1193 81.621 60.4453Z" fill="url(#paint13_linear_246_4986)"/>
<g style="mix-blend-mode:saturation" opacity="0.15">
<path d="M66.356 45.0609L62.9757 47.1963L48.8099 44.9776L47.3611 42.1073L52.0141 42.0059L46.6969 41.1898L46.0949 39.2032L45.3704 36.7971L38.6909 32.2998L45.0539 37.2544L45.4799 40.7337L46 44.9818L41.2563 44.4371L33.768 50.8358C27.9121 47.894 23.123 44.1077 19.9397 40.1971C16.0985 35.4761 14.6031 30.5748 16.4072 26.7648C18.0993 23.191 22.5658 20.8446 28.2819 20.2438C28.5317 20.2203 28.7839 20.1979 29.0384 20.1767C32.4442 19.9166 36.255 20.2598 40.1639 21.3109C40.578 21.4249 41.0302 21.3969 41.4676 21.2303C41.905 21.0638 42.3095 20.7655 42.6336 20.3704C43.0763 19.8353 43.3381 19.154 43.3619 18.4746L43.5703 13.2996L43.5986 12.5856C43.6307 12.2218 43.766 11.862 43.9842 11.5601C44.2153 11.2423 44.5241 11.0067 44.8606 10.8914C45.1209 10.8017 45.3875 10.7885 45.6334 10.8532L49.1713 11.7595C51.6865 12.7484 54.6892 14.0532 57.7645 15.4658L54.1144 23.1745C53.6671 24.124 53.515 25.174 53.6856 26.1345C53.8561 27.0951 54.3381 27.903 55.0443 28.4121C61.7368 33.2824 65.8371 39.717 66.356 45.0609Z" fill="#FFA600"/>
</g>
<path d="M35.696 66.7641L36.5622 70.422L22.17 63.6074C21.2934 63.1923 21.4656 61.6946 22.4414 61.2368L24.8104 60.1252C24.7872 60.1057 24.7718 60.0825 24.7515 60.0644C24.7515 60.0644 29.73 62.6705 35.2873 65.0031L35.4738 65.7879L35.696 66.7641Z" fill="url(#paint14_linear_246_4986)"/>
<path d="M81.6149 60.4454C81.5869 60.5045 81.5543 60.5603 81.5247 60.6154C81.4951 60.6706 81.4532 60.7443 81.4168 60.81C81.3441 60.9394 81.2686 61.0674 81.1898 61.1949C81.151 61.2584 81.1114 61.3216 81.0703 61.3861C81.0292 61.4507 80.9894 61.5126 80.9484 61.5751C80.9074 61.6376 80.8752 61.6851 80.8396 61.7363C80.8342 61.7476 80.8242 61.7577 80.8166 61.77C80.7876 61.8127 80.7575 61.8559 80.7267 61.8987C80.7117 61.922 80.6957 61.9446 80.6788 61.9664C80.6566 61.9985 80.6337 62.0301 80.6108 62.0618L80.5675 62.12C80.5536 62.14 80.5391 62.1597 80.5249 62.1785C80.5107 62.1973 80.485 62.233 80.4658 62.2569C80.4466 62.2808 80.4178 62.3214 80.3926 62.3541C80.3877 62.3645 80.3788 62.3721 80.3713 62.3823C80.3312 62.4356 80.2899 62.4895 80.2489 62.5371C80.2469 62.5414 80.2448 62.5457 80.2424 62.551C80.2043 62.5999 80.165 62.6494 80.1244 62.6982C80.1178 62.7121 80.1036 62.7235 80.0931 62.7366C80.046 62.7951 79.9972 62.8539 79.9487 62.9117C79.9367 62.9241 79.925 62.9377 79.9129 62.9522C79.9007 62.9667 79.8793 62.9916 79.8613 63.0129C79.8169 63.0641 79.7724 63.1154 79.7289 63.1628C79.7215 63.1785 79.7055 63.19 79.6926 63.2042C79.6595 63.2427 79.6257 63.2788 79.5888 63.3198C79.5843 63.3262 79.5792 63.332 79.5735 63.3371C79.5401 63.3744 79.5066 63.4117 79.4721 63.4475C79.4103 63.515 79.3478 63.5822 79.2838 63.6487C79.2741 63.6579 79.2648 63.6677 79.2559 63.678C79.142 63.7963 79.0252 63.9133 78.9076 64.0299C78.8903 64.0462 78.8741 64.0619 78.8575 64.0785C78.8424 64.0937 78.8259 64.1082 78.8112 64.1225C78.7691 64.1632 78.727 64.2039 78.6846 64.2434C78.6422 64.2828 78.5813 64.3412 78.5274 64.3901C78.4735 64.439 78.4353 64.4752 78.3876 64.5185L78.2611 64.632C78.2315 64.6573 78.2023 64.6839 78.1716 64.7098C78.1409 64.7356 78.1135 64.762 78.0844 64.7865C78.074 64.7954 78.0659 64.8033 78.0559 64.8113C78.0264 64.8367 77.9975 64.8624 77.9681 64.8857C77.9386 64.9089 77.9247 64.9236 77.9039 64.9414L77.7816 65.0441C77.7609 65.0619 77.7395 65.0794 77.7169 65.0974C77.6342 65.1646 77.5476 65.2363 77.4608 65.3048C77.4298 65.3295 77.3981 65.3538 77.3674 65.3797C77.296 65.4341 77.2274 65.4899 77.1546 65.5437C77.14 65.556 77.1251 65.567 77.1103 65.578C77.0686 65.6104 77.0254 65.6442 76.9858 65.6722C76.9462 65.7003 76.8786 65.7523 76.8241 65.7913C76.8202 65.7952 76.816 65.7985 76.8115 65.8013C76.7722 65.8306 76.7326 65.8586 76.6937 65.887C76.6125 65.9453 76.5314 66.0037 76.4488 66.0614L76.3898 66.1025C76.3513 66.1301 76.3122 66.1572 76.2734 66.1835C76.2346 66.2098 76.2137 66.2244 76.1828 66.247L76.1166 66.2922L75.9206 66.4227C75.8807 66.4495 75.8396 66.4769 75.7958 66.5008C75.7024 66.5629 75.6075 66.6243 75.5112 66.6851C75.4839 66.7019 75.458 66.7195 75.4311 66.7355C75.3856 66.7649 75.3377 66.7976 75.2939 66.8215C75.2208 66.8666 75.148 66.9109 75.0727 66.955C75.0699 66.9611 75.0602 66.9629 75.0545 66.9676C75.0512 66.9687 75.048 66.9705 75.045 66.9727C75.0072 66.9945 74.9694 67.017 74.9315 67.0402L74.8456 67.0899C74.7778 67.1312 74.7072 67.1711 74.6368 67.2122C74.4951 67.294 74.3515 67.3749 74.206 67.4549L73.994 67.5672C73.8091 67.6668 73.6213 67.7651 73.4322 67.8605L74.6875 64.2012L79.2955 50.7779L76.49 42.5371L70.5862 39.8299C69.4883 37.7936 68.333 35.8619 67.3423 34.1699C66.663 33.0102 66.0587 31.9606 65.6047 31.0682C64.9187 29.7224 64.5688 28.7304 64.8004 28.2414C65.4099 26.954 67.9212 26.1778 70.2935 25.7208C71.1727 25.5522 72.0339 25.4272 72.7726 25.3367L73.0647 25.3016L73.2492 25.2826C74.2758 25.1679 74.9683 25.1268 74.9683 25.1268L75.4765 25.3674C75.5975 25.4253 75.7083 25.5031 75.8057 25.5988C75.9547 25.7444 76.069 25.9298 76.1406 26.1422C76.2123 26.3547 76.2396 26.5892 76.2208 26.8296C76.2019 27.0701 76.1373 27.3108 76.0314 27.5353C75.9256 27.7599 75.7809 27.9629 75.6073 28.1305C74.2057 29.4874 72.8166 30.8311 71.4222 32.1861C72.1615 32.9615 86.6481 48.2477 82.0799 59.4448C81.9409 59.7854 81.7857 60.1195 81.6149 60.4454Z" fill="url(#paint15_linear_246_4986)"/>
<path opacity="0.73" d="M41.442 13.8412L40.4328 17.5108C40.5951 15.5725 40.7568 13.6465 40.9176 11.7021C40.9414 11.4231 41.0266 11.1449 41.1654 10.8929C41.3043 10.641 41.4923 10.4234 41.7123 10.26C41.9324 10.0966 42.1773 9.99262 42.4248 9.95764C42.6723 9.92266 42.9144 9.95777 43.129 10.0597L61.429 18.7247L63.2777 21.6143L42.864 12.9896L41.442 13.8412Z" fill="url(#paint16_linear_246_4986)"/>
<path d="M75.7948 25.7702C75.1967 26.7759 65.2439 22.6534 56.396 18.3566C51.1444 15.8062 46.283 13.1938 43.9977 11.5544C43.0263 10.8595 42.5199 10.3389 42.6453 10.074C42.8921 9.55277 45.513 10.3184 49.174 11.7562C51.6892 12.7451 54.6919 14.0499 57.7672 15.4624C66.7924 19.6221 76.3955 24.7593 75.7948 25.7702Z" fill="#5E0715"/>
<g style="mix-blend-mode:color-dodge" opacity="0.41">
<path d="M45.6434 11.5667C45.515 11.8377 46.0194 12.3626 46.9887 13.0619C48.5216 14.1684 51.2184 15.7133 54.4146 17.382C49.948 15.1607 45.9923 12.9868 43.9974 11.5551C43.0261 10.8602 42.5197 10.3396 42.6451 10.0747C42.8919 9.55347 45.5128 10.3191 49.1738 11.7569C51.689 12.7458 54.6916 14.0506 57.767 15.4631C59.7337 16.3688 61.7273 17.3213 63.6347 18.267C62.6828 17.8163 61.7273 17.3639 60.7763 16.9263C57.7026 15.5103 54.6924 14.2083 52.1795 13.2258C48.5173 11.7906 45.8968 11.0316 45.6434 11.5667Z" fill="#FF908D"/>
</g>
<g style="mix-blend-mode:multiply" opacity="0.13">
<path d="M35.6989 66.7641L36.5652 70.422L22.173 63.6073C21.2964 63.1923 21.4685 61.6945 22.4443 61.2367L24.8133 60.1252C24.7901 60.1057 24.7748 60.0825 24.7544 60.0643C24.4925 59.8155 24.2348 59.5655 23.9811 59.3142L23.6039 58.9378L23.2965 58.6253L23.1534 58.4789L22.8822 58.1973C22.6211 57.9248 22.364 57.6517 22.111 57.3781L21.8124 57.0506C21.8078 57.0463 21.8036 57.0415 21.7999 57.0362C21.6925 56.9183 21.587 56.8003 21.4818 56.6814L21.4349 56.6304L21.1337 56.2879C20.667 55.7528 20.2172 55.2165 19.7843 54.6791C19.6928 54.5666 19.602 54.4545 19.5146 54.3387L19.5103 54.3367C19.348 54.1322 19.1881 53.9275 19.0307 53.7225L18.9099 53.5589C18.811 53.4291 18.7133 53.2996 18.6166 53.1701C18.4753 52.983 18.3377 52.7956 18.2016 52.6067C18.1176 52.4925 18.0353 52.3784 17.9547 52.2644L17.7737 52.0075L17.7665 52.0041L17.5254 51.657C17.5162 51.6431 17.5066 51.63 17.4986 51.6156C17.416 51.4971 17.3346 51.3781 17.2543 51.2585C17.0535 50.96 16.8572 50.6617 16.6653 50.3639C16.5993 50.2624 16.5348 50.1596 16.4702 50.0588C16.3877 49.929 16.3068 49.7992 16.2272 49.6694C16.1573 49.5576 16.0887 49.445 16.0213 49.3316C15.8032 48.9731 15.5927 48.6146 15.3898 48.2562L15.2696 48.043C15.1752 47.8717 15.0808 47.7005 14.9868 47.5284C14.9032 47.375 14.8222 47.2218 14.7416 47.0677C14.6859 46.9648 14.6328 46.862 14.5808 46.7587L14.4496 46.5019C14.2209 46.0498 14.0035 45.5991 13.7973 45.1498L13.7175 44.9738C13.564 44.6345 13.4175 44.2972 13.278 43.9617C13.2456 43.8836 13.215 43.8075 13.1826 43.7315L13.1621 43.6782L13.0735 43.4576C12.8353 42.8698 12.6194 42.2862 12.4258 41.7067C12.3995 41.6326 12.375 41.5583 12.3552 41.4851C12.2837 41.2655 12.2126 41.045 12.1419 40.8237C12.1101 40.7203 12.0806 40.6159 12.0495 40.513C12.0184 40.41 11.9951 40.3277 11.9697 40.2348L11.9631 40.2136C11.944 40.1482 11.9261 40.0823 11.9086 40.0155C11.8367 39.756 11.7692 39.4976 11.7062 39.2402C11.6807 39.1217 11.6511 39.012 11.6246 38.8974C11.5608 38.6219 11.5017 38.3478 11.447 38.0753C11.4337 38.0126 11.4194 37.9484 11.4093 37.8862C11.3681 37.6731 11.3308 37.4609 11.2957 37.2496C11.2774 37.1399 11.2599 37.0306 11.2433 36.9228C11.1895 36.5733 11.1439 36.2274 11.1065 35.885C11.0519 35.3628 11.0142 34.8519 10.9934 34.3521L10.9876 34.1643C10.9837 34.0391 10.9815 33.9158 10.9802 33.7908L10.9797 33.6065C10.9786 33.4827 10.9798 33.3599 10.9795 33.2364L10.9832 33.0542C10.9849 32.9933 10.9865 32.9324 10.9889 32.8718C10.9925 32.7937 10.9954 32.7154 10.9994 32.6364C11.0034 32.5575 11.0073 32.4807 11.0121 32.4021C11.0168 32.3235 11.0227 32.237 11.0295 32.1541C11.0363 32.0711 11.0409 32.0095 11.0442 31.9377C11.0881 31.4322 11.1565 30.9257 11.2493 30.4205C11.2594 30.3657 11.2707 30.3104 11.2815 30.256C11.2924 30.2016 11.3024 30.1489 11.3139 30.0948C11.3391 29.9695 11.3659 29.8461 11.3949 29.7237C11.4117 29.653 11.4292 29.5826 11.4457 29.5128C11.4621 29.4429 11.4814 29.3723 11.5 29.3035C11.5115 29.3738 11.5211 29.4443 11.5372 29.5178C11.6472 30.1711 11.7723 30.8262 11.9123 31.4831C12.3328 33.459 12.8773 35.38 13.5421 37.2328C13.597 37.3875 13.6534 37.5407 13.7101 37.6952C16.8317 46.0783 22.4207 52.888 29.4046 57.8135L30.3284 60.9755L35.0358 63.9318L35.2885 65.0011L35.475 65.786L35.6989 66.7641Z" fill="#770E1C"/>
</g>
<g style="mix-blend-mode:multiply" opacity="0.31">
<path d="M80.9494 61.5768C80.9128 61.6318 80.8762 61.6868 80.8406 61.738C80.8352 61.7493 80.8252 61.7594 80.8176 61.7717C80.7886 61.8144 80.7585 61.8575 80.7277 61.9004C80.7119 61.9227 80.6964 61.9462 80.6798 61.9681C80.6633 61.9901 80.6347 62.0318 80.6118 62.0635L80.5685 62.1217C80.5546 62.1417 80.5401 62.1614 80.5259 62.1802C80.5117 62.199 80.486 62.2347 80.4668 62.2586C80.4476 62.2825 80.4188 62.3231 80.3936 62.3558C80.3887 62.3662 80.3798 62.3737 80.3723 62.384C80.3315 62.437 80.2902 62.4908 80.2499 62.5388C80.2479 62.5431 80.2458 62.5474 80.2434 62.5526C80.2053 62.6016 80.166 62.6511 80.1254 62.6999C80.1188 62.7138 80.1046 62.7252 80.0941 62.7383C80.0616 62.7771 80.03 62.8143 79.9948 62.8571C79.9799 62.8756 79.9643 62.8937 79.9497 62.9134C79.9351 62.9331 79.926 62.9394 79.9139 62.9539C79.9018 62.9684 79.8803 62.9933 79.8623 63.0146C79.8179 63.0658 79.7734 63.1171 79.7299 63.1645C79.7225 63.1802 79.7065 63.1917 79.6936 63.2059C79.6605 63.2444 79.6267 63.2805 79.5898 63.3215C79.5853 63.3279 79.5802 63.3337 79.5746 63.3388C79.5411 63.3761 79.5076 63.4134 79.4731 63.4492C79.4113 63.5167 79.3488 63.5839 79.2848 63.6504C79.2751 63.6596 79.2658 63.6694 79.2569 63.6797C79.143 63.798 79.0262 63.915 78.9087 64.0316C78.8913 64.0479 78.8751 64.0636 78.8585 64.0802C78.842 64.0947 78.8269 64.1099 78.8122 64.1242C78.7701 64.1649 78.728 64.2056 78.6856 64.2451C78.6432 64.2845 78.593 64.3331 78.5457 64.3756C78.5407 64.3817 78.5351 64.3872 78.5291 64.3921L78.4514 64.4617L78.391 64.5171L78.2644 64.6305C78.2349 64.6559 78.2056 64.6824 78.1749 64.7083C78.1443 64.7342 78.1169 64.7606 78.0877 64.7851C78.0773 64.794 78.0692 64.8018 78.0593 64.8099C78.0297 64.8352 78.0009 64.8609 77.9715 64.8842C77.942 64.9075 77.928 64.9221 77.9073 64.94L77.785 65.0426C77.7643 65.0605 77.7428 65.078 77.7203 65.096C77.6375 65.1632 77.5509 65.2349 77.4641 65.3033C77.4331 65.328 77.4014 65.3523 77.3707 65.3782C77.2993 65.4327 77.2308 65.4885 77.158 65.5423C77.143 65.5554 77.1274 65.5661 77.1136 65.5766C77.072 65.609 77.0288 65.6427 76.9892 65.6708C76.9496 65.6988 76.8819 65.7508 76.8275 65.7899C76.8235 65.7937 76.8193 65.7971 76.8149 65.7999C76.7756 65.8291 76.736 65.8572 76.6971 65.8855C76.6159 65.9439 76.5348 66.0022 76.4522 66.0599L76.3932 66.1011C76.3547 66.1286 76.3155 66.1558 76.2767 66.1821C76.238 66.2084 76.217 66.2229 76.1862 66.2455L76.12 66.2908L75.9239 66.4213C75.884 66.4481 75.843 66.4755 75.7992 66.4994C75.7057 66.5615 75.6109 66.6229 75.5145 66.6836C75.4887 66.7012 75.4614 66.718 75.4345 66.734C75.389 66.7635 75.3411 66.7961 75.2973 66.82C75.2241 66.8652 75.1514 66.9094 75.0761 66.9535L75.0578 66.9662C75.0545 66.9673 75.0514 66.969 75.0484 66.9713C75.0106 66.9931 74.9727 67.0156 74.9349 67.0387L74.849 67.0885C74.7812 67.1297 74.7105 67.1697 74.6402 67.2108C74.4985 67.2926 74.3549 67.3735 74.2094 67.4535L73.9974 67.5658C73.8124 67.6654 73.6246 67.7636 73.4355 67.8591L74.6909 64.1997C75.4457 63.9424 76.1953 63.6657 76.9398 63.3695C78.3508 62.821 79.6919 62.2107 80.9494 61.5768Z" fill="#770E1C"/>
</g>
<path d="M66.932 35.2379L68.2593 38.7781L65.4814 35.7644L64.8312 34.4857L62.4747 29.8519L64.4429 27.3872L65.1401 22.3788L66.3105 21.9621L74.0352 25.6718L74.2175 25.7592L73.469 26.9287L68.6227 30.8222L66.932 35.2379Z" fill="#5E0715"/>
<path d="M66.9326 35.2389L68.5387 39.0334L65.4809 35.766L64.8314 34.4875C64.8314 34.4875 64.6559 33.0698 65.6884 30.8894C66.7208 28.709 70.3968 25.597 71.0054 25.1567C71.6856 24.6652 74.0353 25.6736 74.0353 25.6736L74.2174 25.7598L74.1764 25.9818C74.1094 26.3482 73.9692 26.7045 73.7667 27.0223C73.5643 27.3402 73.3052 27.6109 73.0102 27.8128L68.623 30.822L66.9326 35.2389Z" fill="url(#paint17_linear_246_4986)"/>
<path style="mix-blend-mode:color-dodge" opacity="0.13" d="M45.484 40.7344C42.6339 45.2711 31.8354 44.9585 19.9422 40.1938C18.6796 39.6895 17.405 39.1328 16.1255 38.527C15.2439 38.1095 14.3828 37.6795 13.5424 37.2369C12.8291 36.8616 12.1329 36.4788 11.4537 36.0884C11.3642 36.0385 11.2754 35.9869 11.1873 35.9357L11.1046 35.888C11.05 35.3659 11.0123 34.8549 10.9915 34.3552L10.9857 34.1674C10.9818 34.0422 10.9796 33.9189 10.9783 33.7938L10.9778 33.6096C10.9768 33.4857 10.9779 33.3629 10.9776 33.2394L10.9814 33.0572C10.983 32.9963 10.9846 32.9354 10.987 32.8748C10.9906 32.7968 10.9935 32.7184 10.9975 32.6395C11.0015 32.5606 11.0054 32.4837 11.0102 32.4051C11.0149 32.3266 11.0208 32.24 11.0276 32.1571C11.0344 32.0742 11.039 32.0126 11.0423 31.9407C11.0862 31.4353 11.1547 30.9287 11.2474 30.4235C11.2575 30.3688 11.2688 30.3135 11.2796 30.2591C11.2905 30.2046 11.3005 30.152 11.3121 30.0979C11.3372 29.9726 11.364 29.8492 11.393 29.7268C11.4098 29.6561 11.4274 29.5857 11.4438 29.5158C11.4602 29.4459 11.4796 29.3754 11.4981 29.3065C11.7472 28.3489 12.1136 27.4166 12.5858 26.5387C14.7537 22.5403 19.0769 20.2612 23.6856 18.9766C24.3576 18.7896 25.0359 18.6227 25.7151 18.4764L25.7968 18.515C26.9145 19.0443 27.9968 19.5957 29.0437 20.1694C29.0767 20.185 29.1104 20.201 29.1409 20.2218C40.075 26.1967 47.1446 34.0585 46.0929 39.1947L45.3731 36.7971L38.6936 32.2998L45.0566 37.2545L45.484 40.7344Z" fill="url(#paint18_radial_246_4986)"/>
<g style="mix-blend-mode:multiply" opacity="0.21">
<path d="M25.6374 47.1947C25.463 47.563 24.7356 47.5834 24.0131 47.2413C23.2906 46.8992 22.8461 46.3239 23.0205 45.9556C23.1949 45.5873 23.9215 45.5666 24.6441 45.9087C25.3666 46.2508 25.8118 46.8264 25.6374 47.1947Z" fill="#771064"/>
</g>
<g style="mix-blend-mode:multiply" opacity="0.21">
<path d="M42.3353 41.5465C42.1185 42.0043 41.1501 41.9999 40.1724 41.5369C39.1947 41.074 38.5783 40.328 38.7951 39.8702C39.0119 39.4124 39.976 39.4148 40.9572 39.8795C41.9385 40.3441 42.552 41.0887 42.3353 41.5465Z" fill="#771064"/>
</g>
<g style="mix-blend-mode:multiply" opacity="0.21">
<path d="M27.0149 56.7552C26.6986 57.4232 25.65 57.5882 24.673 57.1256C23.6961 56.663 23.1584 55.747 23.4747 55.079C23.791 54.4109 24.8396 54.246 25.8173 54.7089C26.795 55.1718 27.3308 56.0881 27.0149 56.7552Z" fill="#771064"/>
</g>
<g style="mix-blend-mode:multiply" opacity="0.21">
<path d="M27.6909 49.6243C27.6086 49.7981 27.3232 49.8448 27.0659 49.723C26.8086 49.6011 26.6611 49.3547 26.7454 49.1767C26.8297 48.9986 27.1135 48.9553 27.3715 49.0775C27.6295 49.1997 27.7752 49.4462 27.6909 49.6243Z" fill="#771064"/>
</g>
<g style="mix-blend-mode:multiply" opacity="0.32">
<path d="M35.4668 65.7842L35.6964 66.7596L30.5267 63.4972C32.0086 64.2573 33.6567 65.0334 35.4668 65.7842Z" fill="#771064"/>
</g>
<path opacity="0.65" d="M40.4309 17.5426C40.4871 20.0481 49.3453 24.4753 49.3303 24.8405C42.4128 22.536 31.208 18.4929 23.6078 21.0324C19.0273 22.5633 14.7779 25.0646 12.7716 29.15C12.3336 30.0457 12.0048 30.9898 11.7955 31.9526C11.5389 33.1411 11.4175 34.3396 11.4343 35.5175C11.4583 37.0698 11.6415 38.5873 11.9804 40.0405C11.29 37.5197 10.9871 35.1165 11.0685 32.9154C11.1031 31.7291 11.2757 30.5299 11.5818 29.3481C11.8309 28.3904 12.1972 27.4582 12.6695 26.5802C14.8381 22.5822 19.1605 20.3028 23.7692 19.0181C31.1924 16.9488 39.3555 17.4641 40.4309 17.5426Z" fill="url(#paint19_linear_246_4986)"/>
<path d="M54.9843 71.6807L54.8562 71.7178C53.7626 71.7084 52.6481 71.6642 51.5126 71.5852C50.324 71.501 49.1163 71.3786 47.8895 71.2182L48.4814 73.5615C48.7463 74.6068 47.6976 75.6895 46.8202 75.2741L36.5603 70.416L37.8029 67.7917L41.4843 68.6841L54.9843 71.6807Z" fill="url(#paint20_linear_246_4986)"/>
<path style="mix-blend-mode:screen" opacity="0.77" d="M36.5836 70.3691L37.8036 67.7925L45.8328 69.6525L38.2236 68.5976L36.5836 70.3691Z" fill="url(#paint21_linear_246_4986)"/>
</g>
<defs>
<linearGradient id="paint0_linear_246_4986" x1="12.2636" y1="27.1815" x2="81.7881" y2="60.1011" gradientUnits="userSpaceOnUse">
<stop stop-color="#201C1C"/>
<stop offset="1" stop-color="#5E0715"/>
</linearGradient>
<linearGradient id="paint1_linear_246_4986" x1="35.9423" y1="33.6675" x2="67.3443" y2="48.5362" gradientUnits="userSpaceOnUse">
<stop stop-color="#FD0547"/>
<stop offset="1" stop-color="#AC2A28"/>
</linearGradient>
<linearGradient id="paint2_linear_246_4986" x1="48.6419" y1="39.414" x2="66.7692" y2="47.9972" gradientUnits="userSpaceOnUse">
<stop stop-color="#EF403A"/>
<stop offset="1" stop-color="#AC2A28"/>
</linearGradient>
<linearGradient id="paint3_linear_246_4986" x1="47.3978" y1="26.1254" x2="69.5284" y2="84.1141" gradientUnits="userSpaceOnUse">
<stop stop-color="#BF0647"/>
<stop offset="1" stop-color="#AC2A28"/>
</linearGradient>
<linearGradient id="paint4_linear_246_4986" x1="29.9273" y1="50.5962" x2="36.5625" y2="53.738" gradientUnits="userSpaceOnUse">
<stop stop-color="#EF403A"/>
<stop offset="1" stop-color="#AC2A28"/>
</linearGradient>
<linearGradient id="paint5_linear_246_4986" x1="39.3389" y1="44.8902" x2="42.1057" y2="46.2003" gradientUnits="userSpaceOnUse">
<stop stop-color="#EF403A"/>
<stop offset="1" stop-color="#AC2A28"/>
</linearGradient>
<linearGradient id="paint6_linear_246_4986" x1="28.5706" y1="59.6069" x2="40.4125" y2="65.214" gradientUnits="userSpaceOnUse">
<stop stop-color="#EF403A"/>
<stop offset="1" stop-color="#AC2A28"/>
</linearGradient>
<linearGradient id="paint7_linear_246_4986" x1="49.6967" y1="68.6085" x2="55.7097" y2="71.4556" gradientUnits="userSpaceOnUse">
<stop stop-color="#EF403A"/>
<stop offset="1" stop-color="#AC2A28"/>
</linearGradient>
<linearGradient id="paint8_linear_246_4986" x1="59.4924" y1="69.5129" x2="62.533" y2="70.9526" gradientUnits="userSpaceOnUse">
<stop stop-color="#EF403A"/>
<stop offset="1" stop-color="#AC2A28"/>
</linearGradient>
<linearGradient id="paint9_linear_246_4986" x1="74.4721" y1="42.697" x2="77.0439" y2="43.9148" gradientUnits="userSpaceOnUse">
<stop stop-color="#EF403A"/>
<stop offset="1" stop-color="#AC2A28"/>
</linearGradient>
<linearGradient id="paint10_linear_246_4986" x1="64.9397" y1="68.3982" x2="66.822" y2="69.2895" gradientUnits="userSpaceOnUse">
<stop stop-color="#EF403A"/>
<stop offset="1" stop-color="#AC2A28"/>
</linearGradient>
<linearGradient id="paint11_linear_246_4986" x1="67.1832" y1="67.3376" x2="69.6603" y2="68.5105" gradientUnits="userSpaceOnUse">
<stop stop-color="#EF403A"/>
<stop offset="1" stop-color="#AC2A28"/>
</linearGradient>
<linearGradient id="paint12_linear_246_4986" x1="73.203" y1="61.8434" x2="76.303" y2="63.3113" gradientUnits="userSpaceOnUse">
<stop stop-color="#EF403A"/>
<stop offset="1" stop-color="#AC2A28"/>
</linearGradient>
<linearGradient id="paint13_linear_246_4986" x1="26.6369" y1="3.74056" x2="76.4625" y2="66.844" gradientUnits="userSpaceOnUse">
<stop stop-color="#A9403A"/>
<stop offset="1" stop-color="#7C0017"/>
</linearGradient>
<linearGradient id="paint14_linear_246_4986" x1="20.4263" y1="47.6946" x2="34.3937" y2="66.7144" gradientUnits="userSpaceOnUse">
<stop stop-color="#A9403A"/>
<stop offset="1" stop-color="#7C0017"/>
</linearGradient>
<linearGradient id="paint15_linear_246_4986" x1="52.3053" y1="1.41224" x2="85.5914" y2="46.7375" gradientUnits="userSpaceOnUse">
<stop stop-color="#A9403A"/>
<stop offset="1" stop-color="#7C0017"/>
</linearGradient>
<linearGradient id="paint16_linear_246_4986" x1="40.1536" y1="13.0153" x2="62.3687" y2="23.5341" gradientUnits="userSpaceOnUse">
<stop stop-color="#FD0547"/>
<stop offset="1" stop-color="#AC2A28"/>
</linearGradient>
<linearGradient id="paint17_linear_246_4986" x1="66.1478" y1="29.9191" x2="71.6261" y2="32.513" gradientUnits="userSpaceOnUse">
<stop stop-color="#BF0647"/>
<stop offset="1" stop-color="#AC2A28"/>
</linearGradient>
<radialGradient id="paint18_radial_246_4986" cx="0" cy="0" r="1" gradientUnits="userSpaceOnUse" gradientTransform="translate(33.5503 28.9464) rotate(25.3374) scale(13.797 5.68519)">
<stop stop-color="#A9403A"/>
<stop offset="0.17" stop-color="#883333"/>
<stop offset="0.57" stop-color="#3F1824"/>
<stop offset="0.86" stop-color="#11071B"/>
<stop offset="1" stop-color="#000017"/>
</radialGradient>
<linearGradient id="paint19_linear_246_4986" x1="14.2758" y1="23.1433" x2="43.5669" y2="37.0126" gradientUnits="userSpaceOnUse">
<stop stop-color="#FD0547"/>
<stop offset="1" stop-color="#AC2A28"/>
</linearGradient>
<linearGradient id="paint20_linear_246_4986" x1="21.4728" y1="42.9613" x2="36.8032" y2="56.7889" gradientUnits="userSpaceOnUse">
<stop stop-color="#A9403A"/>
<stop offset="1" stop-color="#7C0017"/>
</linearGradient>
<linearGradient id="paint21_linear_246_4986" x1="29.6642" y1="56.6677" x2="36.8581" y2="63.1561" gradientUnits="userSpaceOnUse">
<stop stop-color="#EF403A"/>
<stop offset="1" stop-color="#AC2A28"/>
</linearGradient>
<clipPath id="clip0_246_4986">
<rect width="76.9244" height="58.7533" fill="white" transform="translate(25.1406) rotate(25.3374)"/>
</clipPath>
</defs>
</svg>
